<svg xmlns="http://www.w3.org/2000/svg" xmlns:xlink="http://www.w3.org/1999/xlink" viewBox="0 0 906.52 242.63"><defs><style>.cls-1{isolation:isolate;}.cls-2{fill:url(#New_Gradient_Swatch_2);}.cls-3{fill:url(#New_Gradient_Swatch_2-2);}.cls-4{fill:url(#New_Gradient_Swatch_2-3);}.cls-5{fill:url(#New_Gradient_Swatch_2-4);}.cls-6{fill:url(#New_Gradient_Swatch_2-5);}.cls-7{fill:url(#New_Gradient_Swatch_2-6);}.cls-8{fill:url(#New_Gradient_Swatch_1);}.cls-9{fill:url(#New_Gradient_Swatch_1-2);}.cls-10{fill:url(#New_Gradient_Swatch_2-7);}.cls-11{fill:#7fbcd2;}.cls-12{fill:url(#New_Gradient_Swatch_1-3);}.cls-13,.cls-16{mix-blend-mode:overlay;}.cls-14{fill:url(#New_Gradient_Swatch_3);}.cls-15{fill:url(#New_Gradient_Swatch_3-2);}.cls-16{opacity:0.2;fill:url(#New_Gradient_Swatch_3-3);}.cls-17{font-size:72px;fill:#005495;font-family:James Fajardo;}</style><linearGradient id="New_Gradient_Swatch_2" x1="333.07" y1="43.64" x2="333.07" y2="287.5" gradientUnits="userSpaceOnUse"><stop offset="0" stop-color="#0083a9"/><stop offset="1" stop-color="#000070"/></linearGradient><linearGradient id="New_Gradient_Swatch_2-2" x1="419.67" y1="43.64" x2="419.67" y2="287.5" xlink:href="#New_Gradient_Swatch_2"/><linearGradient id="New_Gradient_Swatch_2-3" x1="496.97" y1="43.64" x2="496.97" y2="287.5" xlink:href="#New_Gradient_Swatch_2"/><linearGradient id="New_Gradient_Swatch_2-4" x1="555.65" y1="43.64" x2="555.65" y2="287.5" xlink:href="#New_Gradient_Swatch_2"/><linearGradient id="New_Gradient_Swatch_2-5" x1="1024.72" y1="43.64" x2="1024.72" y2="287.51" gradientTransform="matrix(1, 0, -0.47, 1, -426.29, 0)" xlink:href="#New_Gradient_Swatch_2"/><linearGradient id="New_Gradient_Swatch_2-6" x1="610.43" y1="43.64" x2="610.43" y2="287.5" xlink:href="#New_Gradient_Swatch_2"/><linearGradient id="New_Gradient_Swatch_1" x1="787.34" y1="-47.26" x2="787.34" y2="294.96" gradientUnits="userSpaceOnUse"><stop offset="0" stop-color="#ffbe00"/><stop offset="1" stop-color="#ff3200"/></linearGradient><linearGradient id="New_Gradient_Swatch_1-2" x1="770.74" y1="-47.27" x2="770.74" y2="294.96" xlink:href="#New_Gradient_Swatch_1"/><linearGradient id="New_Gradient_Swatch_2-7" x1="97.39" y1="-19.68" x2="198.99" y2="320.92" xlink:href="#New_Gradient_Swatch_2"/><linearGradient id="New_Gradient_Swatch_1-3" x1="84.56" y1="-17.97" x2="198.18" y2="377.41" xlink:href="#New_Gradient_Swatch_1"/><linearGradient id="New_Gradient_Swatch_3" x1="117.5" y1="-54.72" x2="137.64" y2="52.97" gradientUnits="userSpaceOnUse"><stop offset="0" stop-color="#fff"/><stop offset="1" stop-color="#fff" stop-opacity="0"/></linearGradient><linearGradient id="New_Gradient_Swatch_3-2" x1="132.34" y1="274.42" x2="132.34" y2="206.75" xlink:href="#New_Gradient_Swatch_3"/><linearGradient id="New_Gradient_Swatch_3-3" x1="233.7" y1="90.53" x2="-53.9" y2="90.53" xlink:href="#New_Gradient_Swatch_3"/></defs><title>enviaya-logo-2</title><g class="cls-1"><g id="Envia_Ya_" data-name="Envia Ya!"><g id="Envia_Ya_2" data-name="Envia Ya!"><g id="Envia"><path class="cls-2" d="M292.07,183v-101a11.76,11.76,0,0,1,11.81-11.81h70.2V89.47H315v24.28h44v7.54a11.76,11.76,0,0,1-11.81,11.81H315V162h59v21h-82Z" transform="translate(-1.36 -2.69)"/><path class="cls-3" d="M457.72,183H446.24a10.68,10.68,0,0,1-11.15-11.15V127.2q0-7.87-4.76-11.48a17.22,17.22,0,0,0-10.66-3.61,16.54,16.54,0,0,0-10.5,3.61q-4.6,3.61-4.59,11.48V183h-23V131.79q0-22.31,11.64-29.85A50.91,50.91,0,0,1,419,93.73a49.38,49.38,0,0,1,26.57,7.55q12.13,7.55,12.14,30.51V183Z" transform="translate(-1.36 -2.69)"/><path class="cls-4" d="M508.45,183H485.16L454.65,95.7h24.27L496.31,157l15.42-53.47q2.62-7.87,10.5-7.87h17.06Z" transform="translate(-1.36 -2.69)"/><path class="cls-5" d="M544.16,95.7H556a11.2,11.2,0,0,1,11.15,11.15V183h-23V95.7Z" transform="translate(-1.36 -2.69)"/><path class="cls-6" d="M583.48,62.11L567.91,83.06a7.14,7.14,0,0,1-5.21,3.22H547.08c-1.61,0-2.37-1.13-1.62-2.74l0.22-.48,15.56-20.95a7.43,7.43,0,0,1,5.37-3.22h15.62c1.61,0,2.21,1.13,1.46,2.74Z" transform="translate(-1.36 -2.69)"/><path class="cls-7" d="M631.26,179.35a40.43,40.43,0,0,1-14.6,4.43,131.5,131.5,0,0,1-13.61.82,34.38,34.38,0,0,1-20.67-6.4q-8.86-6.4-8.86-21.16,0-13.78,8-19.68t20.5-7.87A19.21,19.21,0,0,0,606,129c1.53-.33,3.28-0.6,5.25-0.82q14.43-2,14.43-8.53,0-4.92-5.09-6.4a33.75,33.75,0,0,0-9.35-1.48,23.94,23.94,0,0,0-8.2,1.31A8.94,8.94,0,0,0,597.8,118h-22A25.25,25.25,0,0,1,585,101.28q8.85-7.54,25.26-7.55,18.37,0,27.55,6.23,9.51,6.57,9.51,18.37v29.85q0,13.12-4.75,20.5A29.09,29.09,0,0,1,631.26,179.35ZM626,139a61.82,61.82,0,0,1-12.79,4.26l-7.54,1.64q-5.9,1.64-8.53,4.26a13.37,13.37,0,0,0-2.3,7.22,10.64,10.64,0,0,0,3,7.87q3,2.63,8.53,2.63,9.18,0,14.43-5.25T626,147.21V139Z" transform="translate(-1.36 -2.69)"/></g><g id="Ya"><path class="cls-8" d="M782.69,139.38q-5.77,1.61-8.33,4.17a13,13,0,0,0-2.25,7.05,10.41,10.41,0,0,0,2.88,7.69q2.89,2.57,8.34,2.56,9,0,14.1-5.13t5.13-14.1v-8a60.65,60.65,0,0,1-12.5,4.17Z" transform="translate(-1.36 -2.69)"/><path class="cls-9" d="M906.86,186.45L883.3,81c-4.55-17.46-22.92-33.56-40.82-35.79L659.91,22.84c-17.9-2.23-29.41,10.38-25.57,28L677,186.14c3.84,17.62,21.74,32,39.78,32H882.33C900.37,218.19,911.41,203.9,906.86,186.45Zm-180-9.88H704.09v-41L664,66.29h27.89l23.4,47.44,18.91-41q3.2-6.41,10.58-6.41h18.27l-36.22,69.24v41Zm96.55-34q0,12.82-4.65,20A28.43,28.43,0,0,1,807.7,173a39.5,39.5,0,0,1-14.26,4.33,128.35,128.35,0,0,1-13.3.8,33.58,33.58,0,0,1-20.19-6.25q-8.66-6.25-8.66-20.68,0-13.46,7.85-19.23t20-7.69a18.83,18.83,0,0,0,3.85-.48,51.68,51.68,0,0,1,5.13-.8q14.1-1.92,14.11-8.34,0-4.81-5-6.25a33,33,0,0,0-9.14-1.44,23.45,23.45,0,0,0-8,1.28,8.76,8.76,0,0,0-5.13,4.81H753.52a24.7,24.7,0,0,1,9-16.35q8.65-7.37,24.68-7.37,17.94,0,26.93,6.09,9.29,6.41,9.3,18v29.17Zm32.25,34H833.54V154.45h13.79q8.34,0,8.34,8.33v13.79Zm-3.53-31.09H837.06l-3.85-79.18h11.22A11.49,11.49,0,0,1,856,77.83Z" transform="translate(-1.36 -2.69)"/></g></g><g id="Logo"><g id="Upper_Shape" data-name="Upper Shape"><path id="Upper_Shape-2" data-name="Upper Shape" class="cls-10" d="M255.89,98.1A123,123,0,0,0,251,81.68,121.24,121.24,0,0,0,29.83,68.13q0.59,0.65,1.22,1.31c6.1,6.29,15.53,12.53,27.27,18a87.16,87.16,0,0,1,165.16,22.8c-22.39,4.95-51,6.43-81.91,3.36-33.21-3.3-63.13-11.25-85.22-21.58C44,86.28,34.13,79.77,27.47,72.91,21,66.21,17.57,59.19,18,52.2c0.44-7.56,5.31-14.29,13.62-19.89C13.38,41.08,2.23,53,1.41,67.07,0.74,78.49,7,89.88,18.47,100.34c8.17,7.43,19,14.39,31.86,20.54,24.62,11.77,56.75,20.57,92.18,24.09,29.36,2.92,56.89,1.79,80.09-2.53a158.13,158.13,0,0,0,35.89-10.76A120.16,120.16,0,0,0,255.89,98.1Z" transform="translate(-1.36 -2.69)"/></g><g id="Globe"><path class="cls-11" d="M91.72,98.46a1.44,1.44,0,0,0-.29.55v0.15l0.16,0a0.9,0.9,0,0,0,.61-0.93V98.05l-0.25,0,0,0A1.72,1.72,0,0,1,91.72,98.46Z" transform="translate(-1.36 -2.69)"/><path class="cls-11" d="M94.63,99.07V98.93l0.12,0,0-.1-0.08-.32,0-.08H94.56V98.15a2.32,2.32,0,0,1,.68-0.2l0,0.06,0,0h0a0.33,0.33,0,0,0,.36-0.23v0l0.65,0V97.71a3,3,0,0,0,.31-0.84V96.75l-0.09,0V96.72c0.3-.16.3-0.26,0.31-0.76V95.88l-0.07,0a1,1,0,0,0-.41,0l-0.16,0V96L96,96l0,0a1,1,0,0,1-.9.55l-0.06,0v0.08l-0.28,0v0.13a1.89,1.89,0,0,1-.55.1l-0.32,0a1.1,1.1,0,0,0-.48.19l0,0v0.06L93,97.38l0,0.41,0.14,0a1.07,1.07,0,0,1-.11.17,1,1,0,0,1-.38.27l0,0,0,0.55L92,99.07a2.18,2.18,0,0,0-1.15.91,0.74,0.74,0,0,1-.39.36l-0.07,0,0,0.07,0.05,0.15-0.13.1-0.23.3v0.17H90.09l0,0a1.1,1.1,0,0,0-.33.88v0.12l0.48-.08h0.07V102h0a0.38,0.38,0,0,0,.33-0.09l0,0v-0.09l1-.17,0,0,0.08-.19,0.37-.06,0,0,0.08-.2,0.18,0,0,0,0.18-.33,0.11,0v-0.06a0.35,0.35,0,0,0-.07-0.37l0.07-.23,0.29,0h0.1V99.94l0.32-.15,0.06,0V99.71a1,1,0,0,0-.05-0.37,0.66,0.66,0,0,0,.32-0.17l0,0V99.07l0.28,0V98.95L94.43,99Z" transform="translate(-1.36 -2.69)"/><path class="cls-11" d="M106.42,80.67l0,0-0.22,0,0,0.67,0.45-.08V81l0,0-0.08-.06v0A0.26,0.26,0,0,0,106.42,80.67Z" transform="translate(-1.36 -2.69)"/><path class="cls-11" d="M69.73,77.51a0.14,0.14,0,0,0,.09.08l0.07,0L70,77.49l0.1,0,0.09-.13,0,0,0-.08a0.65,0.65,0,0,0,.06-0.12l0.07-.22,0.07-.1V76.69l0,0-0.05,0,0-.07a0.9,0.9,0,0,0,.11-0.4,0.7,0.7,0,0,0,.17-0.36v0l0-.21-0.16.23h0l-0.23.33a0.33,0.33,0,0,0,0,.21c-0.26.41-.42,0.65-0.28,0.82A0.44,0.44,0,0,0,69.73,77.51Z" transform="translate(-1.36 -2.69)"/><path class="cls-11" d="M132.55,42.19h0.3l0.55,0v0h3.92l0.64,0,0.67,0h0.46v0l0.36,0h0.67l0.53,0h0.13V42.05L140,42l-0.49,0-1.08,0-0.87,0h-0.62c-0.32,0-1,0-2,0l-0.95,0h0l-1,0v0h0v0h0v0h0v0h0v0l-0.5,0v0.18h0.08ZM133,42h0Z" transform="translate(-1.36 -2.69)"/><path class="cls-11" d="M156.93,46l-0.18-.09a1.82,1.82,0,0,0-.41-0.09l-0.08,0-0.26,0L156,46l0,0a2.79,2.79,0,0,1,.57.28h0L157,46.42l0.15,0h0.07l0.09-.09-0.06-.06a0.84,0.84,0,0,0-.22-0.14V46.09l0,0v0Z" transform="translate(-1.36 -2.69)"/><path class="cls-11" d="M151.64,45.68l0.12,0,0.13,0.06a1.41,1.41,0,0,0,.66.2l0-.1,0.33-.05-0.33-.12-0.92-.32-0.06,0-0.31-.05h0a0.12,0.12,0,0,0-.09.1,0.12,0.12,0,0,0,.09.12A2.82,2.82,0,0,0,151.64,45.68Z" transform="translate(-1.36 -2.69)"/><path class="cls-11" d="M154.76,46l-0.57-.22a0.77,0.77,0,0,0-.25,0l0,0.18L154.24,46l0.14,0Z" transform="translate(-1.36 -2.69)"/><path class="cls-11" d="M186,106.39a0.33,0.33,0,0,0-.08-0.07h0l0-.17-0.24,0v0.07s0,0.1,0,.15,0,0.14,0,.21a1.47,1.47,0,0,0,0,.27V107l0.12-.07a0.68,0.68,0,0,0,.16-0.11l0.09-.11,0.07-.09,0,0,0-.06,0-.05A0.55,0.55,0,0,0,186,106.39Z" transform="translate(-1.36 -2.69)"/><path class="cls-11" d="M189.68,91.29l-0.1-.25h0L189.26,91l-0.17,0,0.18,0.45Z" transform="translate(-1.36 -2.69)"/><path class="cls-11" d="M136.27,182.2l-0.41.07v0.06l-0.06.31-0.13,0,0.08,0.25h0.64l-0.08-.62Z" transform="translate(-1.36 -2.69)"/><path class="cls-11" d="M126,42.79l0.23,0,0-.18h-0.4l0,0.18H126Z" transform="translate(-1.36 -2.69)"/><path class="cls-11" d="M127.94,42.58l0,0.18h1.26v0.06h-0.39l-0.09,0h-0.19l-0.12,0h-0.1l-0.06,0h-0.13v0.18h0v0.11h0l0.11,0h0l0.06,0,0.24,0h0l0.11,0h0.34l0-.09,0.23,0h0.09V43.14a0.92,0.92,0,0,1,.37,0l0.29,0,0.13,0,0.43,0.06,0-.14v0l0,0h0v0h0V42.93h0v0h0.08v0.14h0.09l0.16,0h0.31v0h0.06l0.31,0.08h0.07l0.26,0V43l-0.49-.06h0.1V42.85h0l0.15,0,0.26,0h0.4V42.73h0.23v0.05l0,0a3.92,3.92,0,0,0,.94.09,0.14,0.14,0,0,0,.08,0l0.1-.12-0.15,0h-0.14s-0.71-.06-0.8-0.05l0,0A1.2,1.2,0,0,0,132,42.5V42.41h-1.91l0,0.18h0.14v0h0v0a1,1,0,0,0,.4,0H131v0.06h0l-0.36,0v0l-0.21,0h-0.16v0.11H130l-0.31,0v0l-0.23,0-0.06,0H129.3v0h0.36v0h0.19l0.18-.05-0.12-.1-0.06,0H129.4v0h-1.18v0h-0.3l0,0h0Zm2.46,0.29h0Z" transform="translate(-1.36 -2.69)"/><path class="cls-11" d="M88.89,64l0.3-.14a1.32,1.32,0,0,0,.36-0.31h0l0,0h0a0.3,0.3,0,0,0,.34,0h0l0,0.05a3.09,3.09,0,0,1,.54-0.27h0a0.88,0.88,0,0,0,.18-0.18,4.2,4.2,0,0,0,1-.49L92,62.51h0l0,0,0.17-.25h0A1.37,1.37,0,0,0,92.73,62h0.06l0,0,0.07-.11,0.24-.21,0.06,0,0.16,0h0l0.43-.19c0.22-.09.45-0.19,0.66-0.3a0.66,0.66,0,0,0,.31-0.14L95,60.74v0a0.17,0.17,0,0,0,0-.09,1.26,1.26,0,0,1,.39-0.22h0l0,0,0.1-.11,0.07-.1A3,3,0,0,1,96,59.95a1.5,1.5,0,0,0,.69-0.62l0.07-.15,0.39-.09,0,0a2.68,2.68,0,0,0,.3-0.34l0.15-.18-0.14,0,0.15-.12v0h0l0.63-.7-0.15,0c0.07-.13.14-0.27,0.2-0.39a0.21,0.21,0,0,0,0-.22h0L98.53,57l-0.06-.1,0,0a0.46,0.46,0,0,0,.05-0.18l0.09,0h0l-0.08.16L99,56.76l0.06-.08,0.12-.1,0.08-.08,0-.06a0.77,0.77,0,0,0-.06-0.13l0.1-.07A3.87,3.87,0,0,0,99.67,56l0.19-.17H99.68a0.91,0.91,0,0,0,.22-0.13H100l0,0,0-.07,0.08-.11,0.12-.1,0.13-.1,0.11-.1-0.13-.05,0,0-0.05,0,0.17-.14,0.24-.21-0.34.06,0,0,0.07-.06-0.06-.07-0.06,0,0.15,0-0.06.06,0.17,0,0.09,0a0.19,0.19,0,0,0,.18,0l0.26-.09,0.06-.05,0.13,0,0,0a0.65,0.65,0,0,1,.19-0.12h0l0.06-.06,0.29,0,0.05,0h0a0.14,0.14,0,0,0,0,0v0.05h0l-0.13.2,0.12,0,0.12,0h0l-0.1.22h0.07a0.17,0.17,0,0,0,0,.08l-0.09.14-0.12.18L102,55v0l0,0v0a0.68,0.68,0,0,0-.1.21v0.05l0,0c-0.38.41-.42,0.47-0.39,0.62l-0.27.34h0.09v0l-0.06.12h0.14l0.15,0a0.59,0.59,0,0,0,.31,0h0a0.92,0.92,0,0,0,.37-0.21c0,0.1,0,.2,0,0.29l-0.2.28,0.11,0,0,0.12,0.65-.11,0.22-.21h0.06l0.1-.15a4.32,4.32,0,0,1,1.17-.93h0a0.27,0.27,0,0,0,.11-0.06,1.1,1.1,0,0,0,.23-0.37l0.09-.18,0,0,0-.15,0.15-.21,0.14-.18h0l0.45-.48,0.18-.2-0.16,0a5.25,5.25,0,0,0,.51-0.63l0.12-.18h0l0,0,0.12-.14h0l0,0c0.18-.16.31-0.3,0.47-0.46l0.07-.08-0.09-.06-0.07,0,0.16-.17H106.6l0.1-.1h-0.07l0.05-.06-0.25,0,0.05-.05-0.11,0,0.05-.05-0.24,0-0.09,0h0l0-.06-0.12-.07-0.1.09a8.39,8.39,0,0,1-1.07.56,1.45,1.45,0,0,0-.55.24l-0.11,0,0-.07-0.07,0a0.34,0.34,0,0,0-.09-0.11l0.12-.08,0.15-.1,0.06,0,0,0,0.19,0.15,0.23-.22-0.11-.15L104.5,52h0l0.24-.2-0.18,0,0,0,0,0,0.07-.12-0.12,0,0.16-.06,0,0h0a0.14,0.14,0,0,0,.12,0h0l0,0,0,0-0.07.12,0.44-.08h0a1.11,1.11,0,0,1,.3-0.19h0.12l0.06-.06h0l0,0,0.29-.26,0.23-.21-0.19,0,0.23-.2,0,0v0a0.53,0.53,0,0,1,.1-0.16,0.54,0.54,0,0,0,.12-0.22l0.2-.16,0,0v0l0,0,0.11-.1a0.12,0.12,0,0,0,0-.05l0.17-.12h0a1,1,0,0,0,.29-0.16h0l-0.16.15,0,0.06-0.07.06-0.24.21h0v0a1.43,1.43,0,0,0,0,.17l0,0.16,0.16-.14h0l0.11-.1h0.08l0.12,0a0.38,0.38,0,0,0,.36-0.13v0.07l0,0a0.16,0.16,0,0,0,.12,0A1,1,0,0,0,108.7,50h0.07l0.16-.15a2.23,2.23,0,0,0,.3-0.2l0.16,0,0.06-.05a0.42,0.42,0,0,0,.15-0.13l0.05-.07h0l0.21-.18-0.11,0,0.06,0-0.13,0,0.08-.08h0l0.05,0-0.18,0,0.07-.06,0.12-.14,0.14-.13-0.1,0h0l0.08-.08-0.11,0,0-.06v0l0.06-.06,0.21-.2-0.09,0,0.08-.1,0-.08h0l0.05-.09L110,48a0.58,0.58,0,0,0-.21,0l0.18-.12h-0.18l0.47-.25h0l0.55-.26h0l0.17-.1,0.23-.13h0l0.27-.14,0.55-.27,0.06,0v0a12.15,12.15,0,0,0,1.19-.47l0.4-.19,0.26-.13-0.15,0h0.15l0.19,0,0.29-.12,0.25-.1,0.33-.13,0.36-.15,0,0,0.15-.05,0.61-.17,0.23-.1,0.25-.08,0.23-.09,0.13,0,0.15,0,0.3-.13,0-.17h0l0.45-.12,0.13,0,0.87-.25,0.16-.05h0l0.14,0h0.09l0.82-.19h0l0.28-.06,0.31-.06h0l0.43-.08,0-.09,0,0.09H121l0-.18H121l-0.09,0h-0.1l-1.53.3h0l-0.3.06-0.38.08v0l-0.13,0h0l-0.27.06h0l-0.15,0h0l-0.33.08h0l-0.41.09-0.33.08-0.55.13-0.78.19h0l-0.52.13-1,.26-0.72.2h0L113,45.1h0l-1.91.56-1,.33H110l-0.27.09h0l-0.33.11h0l-0.1,0h0l-0.12,0h0l-0.34.11v0l-0.07,0-0.25.08h0l-0.71.25h0l-0.1,0h0l-0.43.16h0l-0.58.21-0.21.08h0l-1.15.44-0.44.17-0.13,0h0l-0.89.36h0l-0.27.11h0l0,0h0l-0.66.28-0.45.19-1.19.53h0l-0.2.09-0.51.24h0l-0.12.05h0l-0.11.05h0l-0.07,0h0L99.9,50h0l0,0h0l-0.06,0-0.52.25-0.32.16-0.22.11h0l-0.61.3h0L97.92,51l-0.35.18-0.35.18h0l-0.1.05-0.58.3L96,52h0l-0.29.16,0.06,0.12h0v0l-0.32.19-0.58.34L94.57,53l-0.17.11-0.17.11L94,53.44l-0.17.09-0.25.17h0l0,0,0,0a1.4,1.4,0,0,0-.25.18h0L93.11,54v0l-0.16.08-0.11.06-0.2.13,0,0-0.18.11-0.28.15-0.29.18,0,0-0.17.12-0.37.25h0l-0.24.17L91,55.45l0,0-0.41.29L90.14,56h0l-0.24.16a0.35,0.35,0,0,0-.12.12l-0.21.15-0.14.09-0.41.3-0.41.3a2,2,0,0,0-.44.24v0l-0.49.35L87.36,58,87,58.3v0c-0.77.57-.78,0.58-0.89,0.68l-0.17.14,0,0,0,0L86,59.33a3,3,0,0,0-.41.33l-0.24.21,0.39-.07,0,0,0.18-.15,0,0.05-0.15.19L85.7,60H85.61l0,0-0.45.37,0,0a1,1,0,0,1-.11.16l-0.1,0A0.57,0.57,0,0,1,85,60.44l0.19-.17H85a0.61,0.61,0,0,0-.39.07l-0.18.13L84,60.77l-0.2.18-0.25.22,0.14,0-0.23.21h0l0,0a22.72,22.72,0,0,0-2.34,2l-0.1.1,0.16,0.06-0.09.09-0.21,0-0.34.36,0.16,0A0.67,0.67,0,0,0,81,64h0l0.08-.08,0.11,0,0.08-.08h0l0,0c0.15-.12.35-0.27,0.51-0.38L82,63.3h0l0,0h0l-0.06.06,0,0.06-0.26.24-0.15.14-0.14,0,0,0L81,64.22a1,1,0,0,0-.14.16l-0.2.21a0.34,0.34,0,0,0-.09.12l-0.16.18h0l-0.24.24-0.07,0,0.44-.45-0.28,0-0.09,0,0,0,0,0.05,0,0v0l0,0.24,0,0-0.12,0,0,0a2.84,2.84,0,0,0-.37.33l-0.17.12,0,0a2.14,2.14,0,0,0-.33.27L78.79,66h0a1.65,1.65,0,0,0-.2.18l-0.13.25a1.8,1.8,0,0,0-.81.58c-0.27.26-.41,0.41-0.52,0.54l0.05,0.06-0.07.08-0.28.21a0.71,0.71,0,0,0-.16.19l-0.2.23-0.12.14h0l0,0a0.48,0.48,0,0,0-.05.16l0,0.05L76,69a0.13,0.13,0,0,0,0,0l-0.17.17a0.48,0.48,0,0,1-.16.13h0l-0.2.25h0L75.11,70h0a2.16,2.16,0,0,0-.31.31,0.36,0.36,0,0,0-.08.26l-0.11.09-0.48.59,0.25-.07-0.2.25,0,0.06a0.88,0.88,0,0,1-.18.11H73.9l-0.07.09h0l0,0a6.75,6.75,0,0,1-1,1l-0.13.17h0l0,0-0.42.53h0L72,73.66h0l0,0-0.07.09-0.08-.09-0.12.08-0.07,0,0,0-0.27.37-0.14.18h0L71,74.76v0l0,0.07a0.74,0.74,0,0,0-.07.21l0,0.29,0.2-.23,0.22-.25,0.11,0h0l0,0,0.07-.07,0.1,0,0,0a2.68,2.68,0,0,1,.27-0.27l0.2-.2-0.42.59v0a0.78,0.78,0,0,1-.15.3,0.8,0.8,0,0,0-.19.47v0.06l0.06,0h0l0,0-0.12.18H71.3l-0.2.29L71,76.39l0.25,0c-0.1.17-.18,0.34-0.27,0.5a7,7,0,0,1-.41.72l0.13,0.12,0.16-.13a0.41,0.41,0,0,0-.09.2l0,0,0.06,0L70.65,78a2,2,0,0,0-.18.25l0.08,0.07,0,0a0.3,0.3,0,0,0,0,.08l-0.57.73,0.27-.11a0.81,0.81,0,0,0-.2.22l-0.1.17,0.15,0-0.26.4,0.05,0.05s0.05,0.06,0,.09H69.83l0,0-0.23.39-0.1.17,0.37-.06L70,80.25h0.06l0.17-.2a0.17,0.17,0,0,0,.19,0h0.06l-0.17.29,0.3-.05-0.14.22-0.11.17,0.3,0,0,0a2.39,2.39,0,0,0,.23-0.21L71,80.41l0,0a2.83,2.83,0,0,0-.39.45,2.16,2.16,0,0,0-.22.3l0.14,0.11,0.13-.13,0,0.06-0.05.1,0.13,0.1,0,0h0l-0.05.1,0.16,0,0,0.12,0,0a0.19,0.19,0,0,0-.08-0.11l-0.1,0-0.05.08a1.79,1.79,0,0,0-.25.49l-0.06.15,0.36-.06,0.05-.1h0l0.13-.26,0,0,0.45-.39,0,0v0a1.09,1.09,0,0,1,0-.18l0.23,0V81.15a0.87,0.87,0,0,1,0-.32A5.39,5.39,0,0,1,72,80.3l0,0v0a0.2,0.2,0,0,1,0-.17l0.08-.16h0.08l0.05-.1h0l0,0a6.66,6.66,0,0,1,1-1.3l0.31-.54h0l0.4-.53,0.13-.16h0l0.18-.3-0.09,0s0,0,0,0a6.87,6.87,0,0,1,.48-0.59,6.36,6.36,0,0,0,.52-0.64l0.12-.18-0.11,0,0.16-.21a0.21,0.21,0,0,0,.22.08h0l0,0a6.56,6.56,0,0,1,.72-1.11l0,0v0a0.53,0.53,0,0,1,0-.06l0.18,0.18,0.06-.1,0.41-.67,0.14-.19,0,0,0.48-.57,0.08-.1-0.24-.09h0.08a1.19,1.19,0,0,0,.78-0.64,0.69,0.69,0,0,0,.1-0.2,7,7,0,0,1,.78-1A8.52,8.52,0,0,0,80,69.84l0.29-.05a0.51,0.51,0,0,0,.23-0.16h0.31a0.28,0.28,0,0,0,.13-0.08H81l0,0,0.24-.22v0.05a1.38,1.38,0,0,1-.13.32L81,69.83l0.29,0,0,0,0.45-.43h0l0.44-.51h0L82.18,69v0a0.16,0.16,0,0,0,0,.15,0.12,0.12,0,0,0,.12,0h0l0.3-.36,0.21-.19,0,0A0.54,0.54,0,0,0,83,68.39h0l0.13,0,0.08-.1a2.72,2.72,0,0,0,.45-0.43,0.65,0.65,0,0,0,.14-0.17h0l0,0a2.45,2.45,0,0,1,.37-0.31,3.05,3.05,0,0,0,.3-0.24,1,1,0,0,0,.23-0.18,3.56,3.56,0,0,0,1-.78,3.22,3.22,0,0,0,.29-0.31,10,10,0,0,0,1.35-1.17,0.22,0.22,0,0,0,0-.19l0.14-.21,0.07-.1a0.75,0.75,0,0,1,.05.21l-0.15.19,0.56-.1,0.06-.08a0.27,0.27,0,0,0,.2-0.11,1.82,1.82,0,0,0,.47-0.3Zm17.72-14.12,0.1-.05,0.11-.07h0l0.3-.22v0a1.08,1.08,0,0,1,.23,0l-0.11.11,0,0L107,49.7h0l-0.19.17a0.9,0.9,0,0,0-.29.19l0,0L106.5,50Zm-2.16,1.69h0l0,0.07H104.4ZM104,52l-0.1.14,0-.06Zm-0.15.26,0,0h0l-0.1,0-0.06.05h0Zm-3.57,2.21h0Zm0-.05h0l0,0v0Zm-1.73,1.93v0h0Zm0,0.24a0.14,0.14,0,0,0,0,0h0v0h0.07Zm0.17-.9,0.05-.06-0.06-.06,0,0a0.05,0.05,0,0,1,0,0l0-.06a0.5,0.5,0,0,0,.15-0.06l0.11-.07L99,55.37l0,0.06,0.16,0,0,0a0.44,0.44,0,0,0-.19.18l-0.05.08h0a3.38,3.38,0,0,0-.38.39l-0.06.07,0.05,0-0.07.07a0.75,0.75,0,0,0-.19-0.15A1.12,1.12,0,0,0,98.7,55.74Zm-2.87,1.59,0.06,0.07,0.27-.1,0.07-.06h0.1l-0.09.09H96.16l-0.06.07-0.41.07ZM94.75,59h0l0,0v0h0Zm-0.13-.51,0,0h0Zm0.1,0.71,0,0,0-.07,0.16,0A1.13,1.13,0,0,0,95.34,59a2.25,2.25,0,0,0,.48-0.54L96,58.23l-0.23,0h0l0.08-.05,0.36-.06,0.24-.29a0.23,0.23,0,0,0,0-.19h0V57.58l0.29,0c-0.43.9-.45,1-0.38,1.32l-0.2.25,0.26-.07a0.89,0.89,0,0,0,.29-0.1h0.08l-0.14.18-0.33.09,0,0-0.27,0,0.06-.07-0.24,0h0L96,59.05l-0.13,0,0,0h-0.2a0.58,0.58,0,0,0-.34.05l-0.1,0,0,0a0.63,0.63,0,0,1-.25.15h0l-0.05.06-0.14,0-0.05.06H94.51A1.55,1.55,0,0,0,94.72,59.25Zm-24,22.57s0,0,0,0l0,0h0Zm1.78-8.21-0.25.34h0l0.33-.43Zm9.53-5.15,0.08-.11-0.05-.07,0.08,0.05,0.15-.13h0Zm1.11-6.24L83,62.37h0l0,0c-0.27.24-.29,0.26-0.79,0.73,0.14-.14.35-0.37,1-1.13l0.05,0.08,0.09,0h0Zm3-2.62h0Zm0.42-.47-0.18.12,0,0-0.24,0h0l0.12-.06,0.16-.13,0.1,0,0,0.08Z" transform="translate(-1.36 -2.69)"/><path class="cls-11" d="M126.54,42.77l0.33,0h0.76v0h0.26V42.54h-0.32v0h-0.28v0H127l-0.57,0v0.18h0.08Z" transform="translate(-1.36 -2.69)"/><path class="cls-11" d="M126.81,44.71l0.16-.07h0l0,0h0.06l0,0,0,0,0.13-.05,0.16-.07-0.24-.15-0.14,0a0.45,0.45,0,0,0-.29,0h0a0.18,0.18,0,0,0-.11.06h0l-0.19,0,0.32,0.22Z" transform="translate(-1.36 -2.69)"/><path class="cls-11" d="M121,44.73h0v0a0.16,0.16,0,0,0-.08,0h0l0,0a1.09,1.09,0,0,0-.12.33l0,0.15-0.13,0v0.07l0,0.28v0.07h0l0,0.11h0.06v0.11h0.08v0l0.24,0V46h0.27l0,0.51,0.11,0,0,0.07a0.06,0.06,0,0,1,0,0l0,0v0a1.27,1.27,0,0,0,0,.18,1.09,1.09,0,0,1,0,.15v0.1h0v0l0.51,0,0,0.07,0,0.06H122v0h0.14l0.16-.06a0.73,0.73,0,0,0,.22.31l0,0.09,0.19,0v-0.1h0.06l0,0a0.11,0.11,0,0,0,0,0l0.11-.06V47.31a0.56,0.56,0,0,0-.1-0.25l0.36-.06,0-.05a0.7,0.7,0,0,1,.06-0.12,0.61,0.61,0,0,0,.09-0.25,0.29,0.29,0,0,0,.2-0.11,0.38,0.38,0,0,0,0-.3h0l0.1-.05h0.06l-0.19-.28h0l0-.12h0l0-.07h0l0.16,0.07a1.44,1.44,0,0,0,.31.07l0,0.1,0,0.06h0.14a0.12,0.12,0,0,0,.08-0.05h0l0,0-0.07.06L124.32,46l0.11,0.15,0,0h0.08s0,0,0,.06a0.59,0.59,0,0,0,0,.23l0,0.09,0.08,0,0.24-.11a1.34,1.34,0,0,1,.22-0.1l0.11,0.19,0.08-.05,0,0,0,0,0.22-.05,0,0,0.1,0,0.22,0,0-.06,0.12-.06h0l0.35-.06-0.06-.09,0,0h0l-0.2-.25h-0.07a0.27,0.27,0,0,0-.18.05h0l0,0h-0.05l0,0-0.12,0-0.08-.06h-0.1a0.2,0.2,0,0,1-.17-0.1l0,0h-0.39l0,0.08h-0.08l0,0,0-.07,0.09,0-0.07-.09a0.48,0.48,0,0,0-.26-0.19s-0.24,0-.41,0l0,0a0.33,0.33,0,0,0-.29-0.18h-0.11v0H123.6v0l-0.16,0-0.06,0-0.09,0a0.32,0.32,0,0,0-.34-0.3l0-.12,0,0.07H123l0,0h0.18a0.34,0.34,0,0,0,.17.18l0,0,0.09,0h0.11l0.22-.06v0h0.06l0,0,0.25,0,0.06,0h0l0,0,0.21,0,0,0,0.11,0h0a5.86,5.86,0,0,0,.63-0.08h0a0.19,0.19,0,0,0,.14-0.1l0.17,0-0.17-.13,0,0a0.53,0.53,0,0,0,.15-0.09l0.06,0,0-.07v0l0.1,0-0.16-.16V44.07l0,0,0,0,0,0a0.31,0.31,0,0,0-.08-0.09l-0.05,0-0.14,0h0a0.41,0.41,0,0,1-.36-0.06l0,0-0.12.06-0.16-.1,0,0.13v0l0,0-0.12-.06-0.1,0,0,0-0.21,0L124,43.93l-0.11,0h0l-0.06,0,0,0-0.3.07L123.63,44h-0.16l0,0-0.06,0,0-.05-0.14,0-0.06,0-0.05,0,0,0-0.07,0-0.08.05L123,44.1l-0.07,0,0,0h-0.42l0.07,0.13a0.22,0.22,0,0,0,.17.15h0l0.1,0.14h0l0-.05h-0.08l-0.11-.08h0l0,0,0-.06h-0.08a0.18,0.18,0,0,0-.11.06l-0.09-.14-0.18,0v0.07a0.3,0.3,0,0,1-.19.23l-0.06,0v0.14l-0.07-.11,0-.09-0.09,0a0.53,0.53,0,0,0-.14,0V44.61l-0.13,0v0l-0.19,0v0H121v0.06Zm-0.26.54h0Zm0.06,0.41a0.17,0.17,0,0,1,0-.09V45.53l0.07,0v0l0,0.11v0Zm0.06,0.1v0h0v0Zm0,0h0v0h0v0Zm2.88-.32h0Zm-1.14.67h0l-0.07,0Zm-1.22-.35,0.29-.05V45.62l0,0,0.06,0,0,0.11,0,0.08,0.32-.06v0.08h-0.34l0,0.06s0,0,0,0h0a0.15,0.15,0,0,0-.1.08h0V45.9h-0.25Z" transform="translate(-1.36 -2.69)"/><path class="cls-11" d="M126.32,44.91l0,0,0.11,0h0l0.45-.06-0.26-.12-0.08,0-0.07,0-0.09-.06-0.06,0-0.19.13Z" transform="translate(-1.36 -2.69)"/><path class="cls-11" d="M142.12,43.62v0l0.08,0,0.15,0.05,0,0a0.25,0.25,0,0,0,.11.07v0h0v0h-0.23L142.49,44l-0.11,0h-0.49l-0.07,0-0.06,0,0,0.07a0.15,0.15,0,0,0,.1.08h0l0.22,0.05,0,0-0.32.05,0.38,0.14v0.09l0.07,0a0.29,0.29,0,0,0,.11.07l0,0.06,0,0h0l0,0,0,0h0a0.17,0.17,0,0,0-.13,0l-0.09,0v0.17h0l0,0.17,0.26,0.13h0l0.12,0,0,0a0.43,0.43,0,0,0,.11.09l0,0.09,0.07,0.05h0l0,0-0.14,0,0.3,0.12,0.12,0v0.07L143.21,46l0,0.05a0.29,0.29,0,0,0,.08.1l-0.1,0,0.12,0.07-0.22,0,0.22,0.13a1,1,0,0,0,.66.17l0.12,0h0l0,0-0.1,0,0.26,0.12,0.28,0.13v0l0.19,0.05,0.1,0L145,47a0.26,0.26,0,0,0-.1.06l-0.08.07,0.08,0.08v0l-0.11,0,0.85,0.38-0.11,0,0.23,0.13L146,47.94l-0.2,0,0.32,0.12,0.36,0.14H146.3l-0.25,0,0.21,0.14a15.15,15.15,0,0,0,1.37.83l0,0h0l0.08,0,0.44-.07-0.2-.13,0,0L148,49h0l0,0,0,0a0.27,0.27,0,0,0,.11-0.13l0,0,0,0h0c0.08,0,.13,0,0.21.11a0.59,0.59,0,0,0,.2.16,1.29,1.29,0,0,0,.68.15l0.16,0.11v0l-0.24,0,0.24,0.13,0.3,0.16h0.15l0.07,0-0.18,0,0.45,0.29h0l0.08,0,0.09,0A0.36,0.36,0,0,0,150.7,50l0,0v0l0.09,0a1.14,1.14,0,0,0,.3.12h0.14l0.05,0,0.25,0,0.06-.17-0.2-.13h0l0.16,0,0.06,0h0a0.35,0.35,0,0,0,.33-0.15l0.12,0,0.11,0.05,0,0,0.32-.05-0.18-.11h0.06l0.06-.17h0l0-.09v0h0l0.25,0-0.08,0h0l-0.3-.17h0l-0.19,0-0.09-.05-0.24,0-0.08,0-0.08,0-0.08,0-0.13,0L151,48.89l-0.12,0-0.05,0-0.64-.18-0.31-.18h-0.07a9.82,9.82,0,0,1-1.18-.56h-0.1l0,0,0,0-0.08,0a2.46,2.46,0,0,0-.35-0.18l-0.29-.14,0.15,0-0.27-.12A3.39,3.39,0,0,1,147,47V46.94l-0.06,0a1.45,1.45,0,0,0-.62-0.14l0,0V46.59l0,0a1.16,1.16,0,0,0-.31-0.17l0.17-.09-0.31-.12,0.17,0L145.74,46,145.57,46l-0.1-.1,0.18,0-0.3-.12-0.27-.14a2.48,2.48,0,0,0-.37-0.17l0.07,0-0.13-.06V45.23l0.2-.07-0.15-.1-0.19-.1h0l-0.11-.08,0,0,0.18,0-0.38-.15h0.28l-0.1-.14v0h0.06l0-.17-0.14-.05V44.23h0v0h0V44h0v0h0V43.91l-0.08,0v0l-0.25-.08v0l-0.08,0a0.61,0.61,0,0,0-.23-0.08h0l-0.19,0-0.48-.1h-0.11l-0.29,0a1.81,1.81,0,0,0-.59,0l-0.22,0,0.18,0.13A0.37,0.37,0,0,0,142.12,43.62Zm9.78,5.83,0.06,0h0l0.11,0v0h0l-0.22-.09h0Z" transform="translate(-1.36 -2.69)"/><path class="cls-11" d="M123.32,57.76l-0.09,0,0,0.09a1,1,0,0,1-.45.5l-0.06,0,0,0.23h0.07v0.11l0.12-.07a1.63,1.63,0,0,0,.33-0.26,1.73,1.73,0,0,1,.21-0.18l0,0v0a1.05,1.05,0,0,1,0-.11v0l0,0.27,0.12-.08,0.14-.1,0,0.22,0.39-.07,0-.2h0a0.3,0.3,0,0,0,.17,0h0.06l0-.05,0.14-.26,0.13,0,0.14-.18v0a0.43,0.43,0,0,0,0-.13,0.19,0.19,0,0,1,0-.09l0,0,0-.05v0a0.32,0.32,0,0,0-.19-0.27l0-.12-0.44.18,0,0.17h0V57h-0.07l-0.05-.32-0.29,0v0.06c0,0.15-.05.29-0.08,0.44l0,0.13,0,0L123.69,57l0-.11-0.11,0a0.52,0.52,0,0,0-.33.25l-0.11,0,0,0.23h0.54l0,0,0,0v0.05a0.28,0.28,0,0,1-.08.23l0,0,0,0.1C123.5,57.84,123.45,57.82,123.32,57.76Z" transform="translate(-1.36 -2.69)"/><path class="cls-11" d="M129,53.16a0.42,0.42,0,0,0,.41.34l0,0,0.07,0,0.06-.08,0,0.08,0.12,0.06V53.53a1.22,1.22,0,0,1,0-.13,1.54,1.54,0,0,0,0-.22,0.77,0.77,0,0,0,0-.26l-0.08,0,0.08,0-0.06-.08-0.09,0-0.09,0a0.33,0.33,0,0,1-.11.05h-0.32L129,53h-0.06Z" transform="translate(-1.36 -2.69)"/><path class="cls-11" d="M129.76,52.68c0.19,0,.21-0.1.21-0.15a0.12,0.12,0,0,0-.11-0.1h0l-0.09-.16-0.33.06,0.28,0.37h0.05Z" transform="translate(-1.36 -2.69)"/><path class="cls-11" d="M124.74,56.54a0.38,0.38,0,0,0,0-.12h0l0-.05,0,0a0.37,0.37,0,0,0,0-.14l0-.15-0.22,0,0,0.2h-0.06v0.06c0,0.06,0,.13,0,0.2l0,0.12,0.25,0,0-.05v0Z" transform="translate(-1.36 -2.69)"/><path class="cls-11" d="M113.55,74.63a0.17,0.17,0,0,0,.08.06h0.24v-0.3l-0.48.09Z" transform="translate(-1.36 -2.69)"/><path class="cls-11" d="M135,73.33l0,0.08,0.08,0a0.41,0.41,0,0,0,.34-0.43l0.17,0-0.1-.12a0.65,0.65,0,0,1-.09-0.19,0.82,0.82,0,0,0-.12-0.24l0,0H135.2l0-.09-0.23,0,0,0.12,0,0.08a0.5,0.5,0,0,1,0,.11l0,0h-0.08a0.43,0.43,0,0,0-.23.23l-0.13.18,0.37-.06A1,1,0,0,1,135,73.33Z" transform="translate(-1.36 -2.69)"/><path class="cls-11" d="M126.72,54.09l0,0.05,0.36-.06,0-.11a0.55,0.55,0,0,0-.14-0.2,0.57,0.57,0,0,0-.15-0.09l-0.09,0,0,0-0.21,0,0,0.11a0.55,0.55,0,0,0,.14.21A0.55,0.55,0,0,1,126.72,54.09Z" transform="translate(-1.36 -2.69)"/><path class="cls-11" d="M127.19,53.92l0,0.07,0,0,0,0.09,0.21,0V54a0.7,0.7,0,0,0,0-.33l0-.07-0.27,0v0.08a0.16,0.16,0,0,0,0,.05l0,0.09Z" transform="translate(-1.36 -2.69)"/><path class="cls-11" d="M129.36,70.72l0.21,0.13a0.19,0.19,0,0,0,.08,0h0.27l-0.06-.29-0.27,0Z" transform="translate(-1.36 -2.69)"/><path class="cls-11" d="M114,74.76l-0.36.06v0.73l0.3,0,0-.1,0-.07V75.27a0.23,0.23,0,0,0-.09-0.08l0,0,0.25,0V74.76Z" transform="translate(-1.36 -2.69)"/><path class="cls-11" d="M133.68,61.59l0.37-.06L134,61.4l0,0a0.32,0.32,0,0,0-.05-0.08l-0.09-.05-0.22-.13,0.07,0.21h-0.08Z" transform="translate(-1.36 -2.69)"/><path class="cls-11" d="M130.67,71.08a0.47,0.47,0,0,0-.07.29v0.09h0.09l0.25,0a2.45,2.45,0,0,0,.37,0l0.06,0.25,0.11-.11,0.24-.22,0,0,0-.17a0.43,0.43,0,0,0-.29-0.4l0-.13-0.28,0,0-.07H131l-0.26,0-0.17,0,0.12,0.22a0.29,0.29,0,0,0,.2.18l-0.06,0A0.17,0.17,0,0,0,130.67,71.08Z" transform="translate(-1.36 -2.69)"/><path class="cls-11" d="M128,53.33h0.06l0.06,0.15,0.1-.07,0.15-.1,0.21-.14,0.06,0v0l0.24,0,0-.11a0.52,0.52,0,0,0,.07-0.42h-0.09l0.08,0,0-.1-0.15,0a0.33,0.33,0,0,0-.24.13,0.32,0.32,0,0,0,0,.2l-0.5.08L128,53l-0.12,0Z" transform="translate(-1.36 -2.69)"/><path class="cls-11" d="M89.8,71.16v0l0,0h0.09l0.18-.08h0l0,0a0.37,0.37,0,0,0,.3.07l0,0.07h0.06l-0.37.32L90,72l0.21-.09,0.14-.06v0h0.15c0.34,0,.55,0,0.7-0.07a0.88,0.88,0,0,0,.45-0.19v0l0.21,0.1,0.12-.14,0.28-.35H92.3V71.16a0.22,0.22,0,0,0,0-.24,1.59,1.59,0,0,1,.09-0.26h0.3l-0.05.3,0.61-.22,0.1-.25h0s0,0,0,.06v0.14l0.13-.06a1.6,1.6,0,0,0,.44-0.33l0-.07,0.12,0,0,0L94.2,70l0.27,0,0-.08,0.13,0,0-.08,0.26,0,0-.09,0.11,0,0.14-.18,0.2,0,0-.08H95.5l0,0a0.44,0.44,0,0,0,.09-0.3h0.1l0.1-.25,0.26,0,0-.09h0.06l0.09-.23h0l0,0.05,0,0.07,0.32-.05,0-.08h0.07L96.83,68h0.05L97,67.77l-0.16-.06,0.14-.11,0,0a1.42,1.42,0,0,0,.1-0.21V67.3a0.36,0.36,0,0,1,0-.12,0.58,0.58,0,0,0,0-.14V67H97a0.22,0.22,0,0,0-.17,0V66.92l0,0a0.18,0.18,0,0,0-.12,0L96.41,67l0.14-.21,0.14-.22,0.06-.1-0.11,0h0a0.57,0.57,0,0,1,.23-0.31l0-.07L97,66l0.07-.07,0.12-.12a0.49,0.49,0,0,0,.08-0.13l0.08-.18-0.19.06a0.83,0.83,0,0,0-.3.13h0l0,0.08L96.4,66V65.88l0.05-.11-0.09-.07,0.08-.33-0.21.07-0.41.13h0v0a1.42,1.42,0,0,1-.43.68H95.28V66.22l0-.14-0.13,0a1.46,1.46,0,0,0-.42.23,1.39,1.39,0,0,1-.33.19h0l0,0.05H94.27a0.32,0.32,0,0,0,0-.15V66.4l-0.19,0,0,0.09h0l0-.07,0.11-.17-0.21,0a8.25,8.25,0,0,0-1,.61l-0.09,0v0.06a0.55,0.55,0,0,1-.16.36,1.56,1.56,0,0,1,.17-0.5l0.1-.22-0.22.09-0.1,0a0.38,0.38,0,0,0-.27.14,3.29,3.29,0,0,0-.34.62L92,67.69H91.88c-0.22,0-.23,0-0.6.6H91.22l0.08-.14a2.44,2.44,0,0,0,.28-0.54l0-.11,0.14-.21,0.11-.17-0.12,0,0.13-.24-0.12,0c0-.05,0-0.13,0-0.27V66.59h0l0.17-.28-0.14,0a0.15,0.15,0,0,0,0-.11,0.18,0.18,0,0,0-.16,0v0.09l0-.09h0l0,0-0.12,0a0.76,0.76,0,0,0-.52.41l-0.18.24,0.28-.1,0.13-.06a0.78,0.78,0,0,1,.18-0.07v0.07l0.2,0-0.14.06h0l0,0-0.13,0h0l-0.28.36,0-.1L91,66.77l-0.21.11a0.82,0.82,0,0,0-.35.32l-0.06.09-0.08,0h0a0.22,0.22,0,0,0-.14.11l-0.1.17h0.05l0,0.08,0.16,0L90,67.91a3,3,0,0,0-.59.46l-0.06.08-0.16,0-0.07,0-0.06.1-0.08,0L89,68.75l0,0a0.53,0.53,0,0,0,.44.08h0l0,0,0.3-.32,0,0,0,0h0a2.52,2.52,0,0,0,.57-0.34l0,0.07H90.46l0,0,0,0h0a0.2,0.2,0,0,0-.11.08H90.19l0,0a2.13,2.13,0,0,0-.17.43l0,0.07H89.75l0,0a0.34,0.34,0,0,0-.08.1,2.06,2.06,0,0,1-.77.42l0,0a0.29,0.29,0,0,0-.07.08H88.7l0,0a1.58,1.58,0,0,0-.13.35l0,0.14L88.93,70h0l0-.08,0.11,0,0,0h0a2.39,2.39,0,0,0,.37,0,0.4,0.4,0,0,0,0,.17,0.21,0.21,0,0,1,0,.08l-0.08.16,0.21,0a0.19,0.19,0,0,0,0,0l-0.11.22,0.11,0-0.26.25-0.1,0-0.06,0,0,0-0.05.07a0.61,0.61,0,0,0-.51.4,0.26,0.26,0,0,0,.16.26,0.39,0.39,0,0,0,.27,0l0.12,0,0,0,0.07-.08,0.12,0,0-.09,0.35-.06h0Zm4-4.36v0c0,0.08,0,.17-0.08.24h0l0,0Zm-3,.31,0.09,0,0.15,0.08L91,67.35l-0.29,0C90.76,67.34,90.79,67.27,90.85,67.1Z" transform="translate(-1.36 -2.69)"/><path class="cls-11" d="M149.27,51.79l0,0,0.41,0.38,0,0h0.06a1.86,1.86,0,0,0,.36.23,1.64,1.64,0,0,0,.27.09l0.2,0.06h0l0.18,0h0.08V52.49a0.22,0.22,0,0,0-.12-0.17h0l0-.08a1.38,1.38,0,0,0-.1-0.21h0l-0.1-.12,0,0a2.59,2.59,0,0,0-.5-0.33l0,0-0.14,0-0.06,0h0a1.77,1.77,0,0,0-.41,0h0a0.13,0.13,0,0,0-.09.06l-0.05.07,0.06,0a0.32,0.32,0,0,0,0,.1Z" transform="translate(-1.36 -2.69)"/><polygon class="cls-11" points="115.38 65.61 115.46 65.6 115.45 65.25 115.11 65.31 115.11 65.58 115.19 65.56 115.19 65.64 115.38 65.61"/><path class="cls-11" d="M122.61,58.59l-0.05-.06a0.38,0.38,0,0,1,0-.1l0-.07-0.28,0v0.11a0.2,0.2,0,0,1,0,.06l-0.07.06L122,58.7l0,0.07,0.08,0.11,0,0,0.43-.07V58.79l0.15,0-0.1-.12Z" transform="translate(-1.36 -2.69)"/><path class="cls-11" d="M98.47,82.22c0,0.16,0,.33-0.07.5l0,0.12,0.28,0,0-.13,0.18-.13,0.06-.46-0.44.08v0.07Z" transform="translate(-1.36 -2.69)"/><path class="cls-11" d="M99.85,86.24l0-.09a0.72,0.72,0,0,1,0-.11v0a0.2,0.2,0,0,0-.08-0.08l-0.14-.15,0,0.52Z" transform="translate(-1.36 -2.69)"/><path class="cls-11" d="M99.38,80.76l-0.05,0v0.06a2.42,2.42,0,0,1-.08.61l-0.62.11v0.09a0.59,0.59,0,0,1,0,.1v0h0a0.16,0.16,0,0,0,0,.06l0,0.21,0.29-.13,0.21-.1,0,0,0-.12,0.14-.07a0.72,0.72,0,0,0,.41-0.45l0.35-.06,0-.06a5.84,5.84,0,0,1,.25-0.82,1.19,1.19,0,0,1,.19-0.32,0.2,0.2,0,0,0,.05-0.07l0.08-.54-0.17,0a0.14,0.14,0,0,0-.1,0l-0.08,0-0.24.14a1.87,1.87,0,0,1-.25.15l0,0v0l-0.05.35-0.08.06-0.16-.19v0.23a0.36,0.36,0,0,0,.1.4A0.29,0.29,0,0,1,99.38,80.76Z" transform="translate(-1.36 -2.69)"/><path class="cls-11" d="M99.57,84.84a0.18,0.18,0,0,0-.07-0.09l-0.14-.15-0.05.52,0.29,0V85a0.51,0.51,0,0,1,0-.1v0Z" transform="translate(-1.36 -2.69)"/><path class="cls-11" d="M100.1,97.89a1,1,0,0,0,.4-0.55,1,1,0,0,1,.23-0.39L100.9,97l0-.12c0.08-.29.08-0.3,1-0.55l0,0.15,0,0a0.2,0.2,0,0,0,.21.1h0l0,0c0.48-.67.55-0.77,0.58-0.84l0.64-.2v0.09l0.2,0v0.09h0.79V95.38l0.42-.17v0.36l0.13-.06,0.1,0,0,0a0.21,0.21,0,0,0,.07-0.08l0.14,0V95.05l-0.4.07V95a2.11,2.11,0,0,1,.33,0,1.73,1.73,0,0,0,.45,0h0l0,0a0.29,0.29,0,0,0,.07-0.11l0.21,0V94.79l0.51-.08V94.58l0.16,0a0.74,0.74,0,0,1,.67.24,0.26,0.26,0,0,0,.22.07h0.06l0.07-.28a0.92,0.92,0,0,1,.37-0.12h0.08V94.28a1.35,1.35,0,0,1,.55-0.38l0.05,0V93.82a1.22,1.22,0,0,1,.07-0.37l0-.06,0,0a0.34,0.34,0,0,0-.35-0.08l-0.58.13,0-.1v0a0.18,0.18,0,0,0-.06-0.12l0,0,0-.11a0.75,0.75,0,0,1,.29-0.09h0.06l0-.06a1.64,1.64,0,0,1,.16-0.4H109V92.12a1.83,1.83,0,0,0,.56-1.5s0-.11,0-0.16V90.34l0,0a0.59,0.59,0,0,1-.19-0.26l0,0h0a4,4,0,0,0-1-.13,0.48,0.48,0,0,0-.33.25l-0.18,0s0-.07,0-0.11a1.36,1.36,0,0,0,0-.73,7.8,7.8,0,0,0-.82-0.81H107a2,2,0,0,0,.6.31h0.09V88.36l0,0a4.42,4.42,0,0,1-1.12-.89l0-.08h-0.06V87.06l-0.15,0-0.12-.18h0a0.62,0.62,0,0,0-.34,0,1.74,1.74,0,0,1-.18-0.22,1.88,1.88,0,0,0-.21-0.25,3.93,3.93,0,0,0-.07-0.77V85.55h-0.07l-0.15,0a0.88,0.88,0,0,0,0-.25l0-.08-0.12,0a0.56,0.56,0,0,1-.11-0.22v0l0,0a0.45,0.45,0,0,0-.27,0c-0.06-.24-0.09-0.37-0.13-0.5l0-.09-0.09,0-0.52.17v0l0.17-.28,0.32-.05,0-.22h0.06l0.1,0,0-.41-0.21,0v-0.1l0,0,0,0v0a0.69,0.69,0,0,0-.08-0.22h0v0h0l0.26,0V82.93h0.06l0.11,0,0.16,0h0.06l0-.06a3.47,3.47,0,0,0,.19-0.39l0.11,0,0-.3,0.24,0,0,0a0.86,0.86,0,0,1,.18-0.21l0,0V81.7h0.09l0-.32a0.83,0.83,0,0,0,.32-0.86V80.38l-0.09,0V80.27l-0.14.06a1.85,1.85,0,0,0-.46.32,2.25,2.25,0,0,1-.32.24,0.33,0.33,0,0,0,0-.19v0l0,0-0.17-.08,0.13-.11,0,0v0c0-.22,0-0.44.06-0.66a2.55,2.55,0,0,1,.17-0.29A2.33,2.33,0,0,0,105.5,79l0-.14-0.26,0a1,1,0,0,0-.9.62l-0.11,0v0.06a0.24,0.24,0,0,0,0,.27l-0.16.18,0,0a0.23,0.23,0,0,0-.06.07v0a0.64,0.64,0,0,1,0,.11l-0.05.15,0.15,0-0.07.22h0l0,0-0.08,0h0a14.21,14.21,0,0,0-1.35.64,1.15,1.15,0,0,0,0-.16h0.06V81a1.69,1.69,0,0,1,.63-0.86,1.24,1.24,0,0,0,.55-1.56l0,0h0a0.75,0.75,0,0,0-.38,0l-0.11,0a0.27,0.27,0,0,0-.15-0.08h0l0,0a3.63,3.63,0,0,1-.49.38h0l-0.1,0V79a0.36,0.36,0,0,0-.34-0.07H102l0,0a5.13,5.13,0,0,0-.37,1.06l-0.17,0,0,0.05c-0.14.41-.17,0.51,0,0.62a0.64,0.64,0,0,1-.29.19,0.66,0.66,0,0,0-.42.35l-0.06.15,0.16,0a0.22,0.22,0,0,1,0,.13l-0.26.11v0a0.54,0.54,0,0,0-.08.25V82h0.09c0.12,0,.13,0,0.14.17v0.1h0.06a0.6,0.6,0,0,1-.25.25l0,0v0.1h-0.09l-0.27,0,0-.31V82.2l0.18-.8,0-.13-0.29.05,0,0.29-0.08,0v0l-0.16,0,0,0.12-0.09,0v0.07a2,2,0,0,0,.11.83,1.87,1.87,0,0,1,.08.41v0.1l0.15,0,0,0.3,0.29,0h0.06V83.33l0.13-.53,0-.16a0.61,0.61,0,0,0,.06.2l0,0h0.08a0.11,0.11,0,0,1,0,.07c-0.19.14-.21,0.2-0.36,1l0,0.1h0.1a0.62,0.62,0,0,0,.35-0.11,0.55,0.55,0,0,1,.21-0.08c0,0.26-.13.33-0.46,0.44l-0.1,0,0,0.09a0.42,0.42,0,0,1,.07.25l0,0h-0.07v0.16a0.06,0.06,0,0,0,0,0,0.38,0.38,0,0,0,0-.17,0.3,0.3,0,0,0-.15-0.12l-0.09,0,0,0,0.07-.06-0.05-.07,0.09,0,0,0v0a1.08,1.08,0,0,0,0-.31,0.75,0.75,0,0,0-.1-0.18,0.62,0.62,0,0,1-.07-0.11l0-.07-0.41.07v0.08c0,0.17,0,.34,0,0.51l-0.17,0,0,0.25,0.08,0h0.1l0,0.08,0.08,0a1.16,1.16,0,0,0,.24-0.1l0.09-.07,0,0.14a0.37,0.37,0,0,1-.17.33l0,0,0,0.23H99.9v0.1l0.26,0,0-.05a0.37,0.37,0,0,1,.15-0.26l0,0,0,0.41v0.12l0.27,0,0-.06a0.79,0.79,0,0,1,.21-0.44v0.06l0.36-.06,0-.17h0a0.7,0.7,0,0,1-.09.34l-0.06.15-0.25,0v0.09l0.07,0.6-0.33.06,0,0.13v0.07a3.2,3.2,0,0,1-.09.78l0,0.12,0.14,0v0.21l0.09,0v0.15l0.29-.15,0,0,0.35,0.25,0.1,0.06,0-.11a1.54,1.54,0,0,0,.12-0.45,1.43,1.43,0,0,0,.46,0l0.41-.1L103,87h0c-0.37.52-.43,0.61-0.16,1.11l-0.07,0a1.21,1.21,0,0,0-.51.31h0a0.22,0.22,0,0,0,0-.08l0,0-0.65.11a0.34,0.34,0,0,0-.15-0.06l-0.18,0,0,0.14v0.08a2.82,2.82,0,0,0,.13.4c0,0.09.06,0.17,0.09,0.26l0,0.49v0l0,0.13-0.13,0,0,0.09v0a0.68,0.68,0,0,0-.29.31,0.23,0.23,0,0,0,0,.22h0l-0.14,0,0,0a0.72,0.72,0,0,0-.13.48v0l0,0a0.11,0.11,0,0,1,0,.06,1.18,1.18,0,0,0-.33.16l0,0V91.7l0.16,0a0.5,0.5,0,0,0,.19.12c0,0.08-.07.16-0.11,0.24a2,2,0,0,0-.18.48l0,0.17,0.16-.07a0.59,0.59,0,0,0,.44-0.51l0.38-.15a0.16,0.16,0,0,0,.09-0.05s0.07-.11.17-0.29c0,0.18,0,.37,0,0.55l-0.17.09h0a0.3,0.3,0,0,0-.1.16l-1,.8,0,0v0.05a1.52,1.52,0,0,1,0,.62l0,0.13,0.21,0v0.32l0.11,0a0.65,0.65,0,0,0,.65-0.54l0.2,0-0.11.57,0.14,0a1.29,1.29,0,0,0,1-.65,1.7,1.7,0,0,1,.28.38l0,0.05L103,94V93.91h0.1V93.45l0.48-.15-0.06.24a3.35,3.35,0,0,0-.11.55l-0.1,0v0.11l-0.9.15V94.23l-0.13.05-0.36.15V94.34l-0.6.1-0.08,0v0.14a1.13,1.13,0,0,1-.35.35l0,0v0a1.82,1.82,0,0,1-.66,1.25l0,0v0.34a3.08,3.08,0,0,1-.83.54l-0.05,0v0.49h0.1a2.79,2.79,0,0,1,.58,0V98Zm7.71-7.6a0.24,0.24,0,0,1,.07.16,0.25,0.25,0,0,1-.13.11,1.23,1.23,0,0,1,0-.36ZM104.3,79.91l0,0a0.12,0.12,0,0,1,.06.06,0.19,0.19,0,0,1-.1.09h0V79.91Zm-0.76,8.41a0.53,0.53,0,0,0-.1.24v0.06l0.09,0.06v0l-0.18.13v0c0,0.25-.08.5-0.12,0.75v0l-0.18,0v0.18a1,1,0,0,0-.34,0l-0.23.06,0-.06h0l0,0a0.28,0.28,0,0,1,.16-0.11l0.06,0,0-.19,0-.44,0.15-.1,0,0v0c0-.24,0-0.48,0-0.73v0l0.42-.07V88l0.28,0v0.27Z" transform="translate(-1.36 -2.69)"/><path class="cls-11" d="M99.3,89.46V89.38l0.52-.09V89.07l0,0,0,0s0,0,0,0a3.08,3.08,0,0,1,.51-0.19h0.07l0-.35H100.3l-0.19,0c0-.21,0-0.43,0-0.64V87.62l-0.29.05a1.86,1.86,0,0,0,.24-0.52l0-.09L100,87a0.87,0.87,0,0,1-.23-0.1,1,1,0,0,0-.29-0.12H99.46l0,0a3.45,3.45,0,0,1-.5.46l0-.51-0.11,0c0-.18-0.08-0.22-0.3-0.25H98.47l0,0.44-0.18.07V86.92l-0.12,0a2,2,0,0,0-.75.23l0,0,0,0.38-0.25,0,0,0-0.1.27-0.07.2,0.39-.07v0.11h0.05l0,0.08h-0.1a0.71,0.71,0,0,0-.38.44l-0.14,0V88.8l0,0.21v0.1H96.64v0.05a1,1,0,0,0-.49-0.11,0.55,0.55,0,0,0-.31.23l-0.08-.07,0-.27L95.43,89l0,0.42-0.09,0v0.07l0,0.32V90l0.09,0v0.1l0.3,0,0,0.12H95.57l0,0.21-0.44.08v0.1l-0.18,0,0,0.26H95v0l-0.11,0V91l-0.27,0-0.06.6h0.11a0.85,0.85,0,0,1,.33,0l0,0.21,0.15-.08,0.19-.1,0,0.1,0,0.07,0.23,0v-0.1l0.24,0,0,0,0,0v0.09l-0.27.15,0,0.51-0.09,0,0,0.26-0.06.07-0.1.13L95,93l0,0.4,0.26,0-0.14.12a1.63,1.63,0,0,1-.27.2l0,0,0,0.38,0.18,0v0a2.77,2.77,0,0,1-.54,0H94.28v0.12l-0.1,0v0.08a0.54,0.54,0,0,0,.08.4,0.24,0.24,0,0,0,.16.06l-0.08.09,0,0,0,0.27-0.09,0,0,0.32,0.13-.06a0.73,0.73,0,0,0,.4-0.28l0.24,0a1.09,1.09,0,0,1-.26.19l0,0,0,0.54,0.14-.08a2.82,2.82,0,0,0,.46-0.35,3.59,3.59,0,0,1,.35-0.27v0.23l0.5,0.2,0-.07a2.13,2.13,0,0,1,.75-0.75l0,0V94.43h0.52l0,0,0.09-.19,0.21,0V94.09a1.57,1.57,0,0,1,.1-0.48l0.49-.08V93.21l0.09,0v0a0.62,0.62,0,0,0,.27.1h0.11V93.15a0.42,0.42,0,0,0-.14-0.42l0.27,0h0a0.28,0.28,0,0,0,.08-0.09l0,0,0,0V92.36l0-.55,0.09,0,0-.61-0.13,0a1.25,1.25,0,0,1,0-.41V90.69l-0.16,0,0,0,0.16,0,0-.29H99A7.74,7.74,0,0,0,99,89.61l0.23-.12Z" transform="translate(-1.36 -2.69)"/><path class="cls-11" d="M140.65,53.79l0,0-0.15,0L140,53.56l0,0-0.13.05h0a1.44,1.44,0,0,0-.58-0.1l-0.49-.07c-0.25,0-.28,0-0.31-0.07l0,0-0.17,0-0.13,0,0,0-0.33,0c-0.08,0-.09,0-0.1,0l0,0-0.36.06h0l0.21,0,0,0a0.79,0.79,0,0,1,.07-0.17l0,0V53.05a5.12,5.12,0,0,0-.85,0l-0.38.06,0,0.06h-0.05l0,0-0.41.07-0.06-.09-0.08.07a0.82,0.82,0,0,0-.21.22l-0.36.15-0.26-.18,0.2,0-0.07-.11a1.19,1.19,0,0,1,.65-0.36l0.19,0-0.14-.12a0.63,0.63,0,0,0-.42-0.26l-0.44,0L134.66,52l0,0-0.15,0,0,0-0.1.11-0.58-.34-0.05.65h0a2,2,0,0,0-.47-0.3c0.13-.15.15-0.22,0.09-0.31l0,0-0.11,0-0.13-.2h0a2.33,2.33,0,0,0-.64,0l-0.13,0,0.16,0.26h-0.05l0,0-0.12,0,0.08,0.51-0.13-.11a0.45,0.45,0,0,0-.37-0.21l-0.13,0,0.09,0.16h-0.06v0.08a1,1,0,0,1,0,.22h-0.07l0,0.53H131.6v0.06l0,0.07h0a1.63,1.63,0,0,1,.08-0.3V53a0.67,0.67,0,0,0-.17-0.32l0-.08h-0.06c-0.17,0-.18,0-0.19,0l0-.06H131l0.13-.11h0.35l0-.08h0.06l-0.13-.22-0.14,0,0-.13,0,0-0.31-.12-0.14,0,0,0.21-0.15,0,0.06,0.11,0.11,0.21,0,0.06h0.06l0.05,0.1-0.12,0,0.06,0.11h0l-0.67-.3,0.3,0.72v0l0,0h-0.05a0.54,0.54,0,0,0-.5-0.27l-0.14,0L129.91,53,130,53.11a1.68,1.68,0,0,0-.06.3l-0.21.2h0l0,0a0.31,0.31,0,0,0-.07.21l-0.47-.1a0.34,0.34,0,0,1-.1-0.15l0,0h-0.06l0.11,0-0.11-.28-0.42.07,0.07,0.19h-0.1a1.66,1.66,0,0,1-.54.21l-0.17,0,0.11,0.12,0.2,0.23v0l0.06,0a0.19,0.19,0,0,0-.18,0l-0.14,0v0h-0.07l-0.11,0,0,0.13-0.07.2-0.05-.17h-0.17a0.19,0.19,0,0,0-.14.08v0l-0.15,0,0.09,0.28L127,55c-0.16-.31-0.2-0.35-0.29-0.33H126.6v-0.6h-0.23l-0.09,0-0.08,0h-0.1l0,0.09a0.39,0.39,0,0,1,0,.11l0,0v0a0.75,0.75,0,0,0,0,.14s0,0,0,.06V54.6h0l-0.27.09-0.08,0,0,0.16h-0.07l0,0.1a0.87,0.87,0,0,0,.15.32l0,0.05,0.06,0a0.52,0.52,0,0,0,.28-0.12l0,0v0l0.13,0v0l0,0a3.19,3.19,0,0,1,.28.43l-0.22-.13,0-.07-0.34.06,0.07,0.12,0.11,0.18-0.1,0,0-.06-0.24,0,0.05,0.51-0.14,0a0.16,0.16,0,0,1,.05-0.1l0,0,0-.1,0-.14a0.68,0.68,0,0,0-.16-0.38l0-.18-0.14.13,0,0.07a0.2,0.2,0,0,1-.07.08l0,0a0.3,0.3,0,0,0-.15.09,0.32,0.32,0,0,0-.06.18l-0.14.07-0.05,0v0.43L125,56.8l0.11-.05a0.35,0.35,0,0,0,.25-0.29h0.13v0l0.18,0V56.4h0.05a0.68,0.68,0,0,1,0,.09l-0.06,0,0.07,0.31,0,0.44a1.05,1.05,0,0,0-.23.18l-0.18,0v0.06l-0.31.05,0,0c-0.06.17-.09,0.17-0.1,0.17h-0.09l0.07,0.38,0.09,0,0.44-.12,0,0.57-0.28-.31-0.7,0,0.1,0.14a0.66,0.66,0,0,1,.09.14v0h-0.07L124.55,59l0,0a1.06,1.06,0,0,0,.48.29v0l-0.68.12L124.55,60l-0.35.26,0,0a2.54,2.54,0,0,0-.12.25,0.27,0.27,0,0,0-.22,0l-0.42.07,0,0.29h-0.1l0,0a0.45,0.45,0,0,1-.32.18h0l0,0a0.67,0.67,0,0,0-.12.44l0.06,0.46,0.1,0-0.1.3a0.16,0.16,0,0,0,0,0l0-.36-0.23,0V62.2c0,0.08,0,.15-0.06.23l0,0.14,0.36-.06a1.52,1.52,0,0,1-.6.29h-0.08l0,0.24-0.49.18,0.07,0.53a2,2,0,0,1-.78.34l-0.12,0,0,0.09,0,0.22a0.69,0.69,0,0,0-.37.34,0.45,0.45,0,0,0-.3.06l-0.11,0,0,0.35a3.07,3.07,0,0,0-.59.8,0.86,0.86,0,0,1-.43.21h-0.08l0,0.34,0.15,0a0.2,0.2,0,0,0,0,.19,0.13,0.13,0,0,0,.12,0l0.56-.19V66.53l0.12,0,0,0a1.66,1.66,0,0,0,.33-0.39l0.11-.08a0.39,0.39,0,0,0-.1.21,0.45,0.45,0,0,0-.15.18,2.66,2.66,0,0,1-1.16.67l-0.16-.38V66.51l-0.21,0,0,0a1.68,1.68,0,0,1-.73.38l0.1-.11,0.12,0V66.56h-0.08V66.49l-0.27,0v0.08a0.49,0.49,0,0,0-.48.46l0,0.14,0.14,0a1.54,1.54,0,0,0,.35-0.14l0.08,0.43-0.43.26V67.8a1.07,1.07,0,0,0,.08.27l-0.27-.12,0,0.05a0.55,0.55,0,0,0-.12.35,3.1,3.1,0,0,0-.89,0,0.84,0.84,0,0,0-.21,0l-0.13,0L116,68.53a0.51,0.51,0,0,0,.32.33V69h0.09v0a1.4,1.4,0,0,0-.33.5l-0.5-.06,0,0a0.51,0.51,0,0,0-.32.39h-0.09v0.27l0.59-.1v0l0,0,0,0-0.35.21a0.43,0.43,0,0,0-.35-0.12l-0.08,0v0.34l-0.24,0V70.35l-0.57.25-0.31,0h-0.08v0.62l0.15,0a3.91,3.91,0,0,1,.55,0l-0.58.15-0.49.12-0.07,0v0.42l0.06,0.64L114,72.3a1.6,1.6,0,0,0,.4.14l-0.61.11v0.08l-0.18,0v0.09h-0.05a0.2,0.2,0,0,0-.21.21v0.09h0.53v0.11h0a0.37,0.37,0,0,1-.28.22l-0.11,0,0,0.11,0.06,0.14-0.26,0v0.18a2.61,2.61,0,0,0,.51.1l-0.1,0L114,74.1c0.4,0.17.4,0.24,0.39,0.29v0.1l-0.26,0H114l0,0.14v0a0.23,0.23,0,0,0,0,.1l0.05,0.05v0.15l0.2,0,0.08,0V74.77h0.09V74.51l0.06,0,0.63-.5L115,74.5l-0.2,0V75.1a0.73,0.73,0,0,0-.26.21l-0.44.14a0.31,0.31,0,0,0-.2.18,0.59,0.59,0,0,0-.19.44v0.07l0.07,0c0.39,0.09.39,0.15,0.39,0.2v0.11l0.27,0V76.33h0.09V76l0.1,0V75.93l0.34-.06h0l-0.07,0,0.1,0.52h-0.06l-0.13.5a0.59,0.59,0,0,1-.36.24h-0.1l0,0.09a3,3,0,0,0,.51,1.08l0,0,0.6,0a0.5,0.5,0,0,0,.37-0.2l-0.07.47,1.12-.19,0,0a0.6,0.6,0,0,1,.31-0.31h0.08V78l0.33-.06,0.42-.4v0l0.24-.05,0,0a0.45,0.45,0,0,1,.32-0.22h0l0,0a0.57,0.57,0,0,1,.3-0.31h0l0,0a1.69,1.69,0,0,0,.17-0.29l0.59-.1V76.33a1,1,0,0,0,.34-0.23l0.18,0,0,0a0.31,0.31,0,0,1,.21-0.19h0l0,0a0.32,0.32,0,0,1,.21-0.2h0.08V75.54a0.22,0.22,0,0,1,.23.21l-0.1,0,0.08,0.83,0.1,0v0.09l0.33-.06a6.27,6.27,0,0,1,.3,1.37l0,0a0.61,0.61,0,0,0,.56.36,6,6,0,0,0,.65.79c0.16,0.17.32,0.35,0.47,0.55l0.21,0.2-0.25,0,0.06,0.51,0.08,0.06a1.34,1.34,0,0,0-.17.91h0l0.2,0.5a0.41,0.41,0,0,0,.09.29h0l0,0.13,0.31-.05v0.1l0.28,0v-0.1a2.24,2.24,0,0,0,1.37-.52l0,0-0.1-.62,0-.06h0l0,0a0.5,0.5,0,0,1,.4-0.42h0.09l-0.06-.4,0.43-.14v0.08l0.15,0a9.53,9.53,0,0,0,1-.23l0,0a1.46,1.46,0,0,0,.29-0.28l0,0.15,0.12-.09a1.72,1.72,0,0,0,.59-0.84,1.5,1.5,0,0,0,0-.42l0-.2-0.45.59,0,0.05V78.54c0-.08,0-0.11,0-0.11h0.09l-0.12-.66h0.07V77.68a1.73,1.73,0,0,1,.08-0.34h0l0,0.19,0.11,0,0,0.09,0.48-.08-0.05-.28,0.22,0h0.05l0,0a0.34,0.34,0,0,1,0-.08h0a1.06,1.06,0,0,0,.57.11h0.11l0-.11,0.13,0-0.06-.11a0.64,0.64,0,0,1-.13-0.33,0.68,0.68,0,0,1,.08-0.24,0.94,0.94,0,0,0,.09-0.24l0-.08-0.08,0A1.17,1.17,0,0,0,129.4,76h0l0,0a0.23,0.23,0,0,1-.15.16L129,76h0a0.24,0.24,0,0,1,.14-0.1l0.08,0-0.24-.5-0.07,0a0.68,0.68,0,0,0-.42.18l0,0,0,0.11-0.11,0a4.38,4.38,0,0,0-.08-0.44c0.18-.09.24-0.15,0.22-0.25l0-.09-0.17,0-0.43-.07v0a5.65,5.65,0,0,0,.69-0.14l0,0a1,1,0,0,1,.6-0.27h0.07l0.1,0.17,0.2,0L129.9,74a1,1,0,0,0,.41-0.22l0.14,0-0.06-.27,0.09,0,0-.09,0.34-.06-0.09-.12a0.7,0.7,0,0,1-.14-0.22l0-.09L130.1,73a3,3,0,0,0,.64-0.64l0,0,0-.05a2.19,2.19,0,0,1-.29-0.7V71.53l-0.5-.09-0.08-.37-0.38.06v0L129,70.69l-0.06.06a1,1,0,0,0-.18.22H128.4l0-.1-0.1,0a2.19,2.19,0,0,1-.07-0.25h0l0-.1c-0.09-.27-0.23-0.62-0.35-0.89a1.2,1.2,0,0,0,0-.36l0-.09h-0.09l0-.18a0.45,0.45,0,0,1,.16-0.08l0.11,0-0.23-.55h0.1l0-.16,0.1,0-0.16-.64,0,0a1.37,1.37,0,0,1-.19-0.28h0.2a0.15,0.15,0,0,0,.1-0.06v0l0.41-.31v0a0.48,0.48,0,0,0-.06-0.39l0,0v0l0.41-.17h0a0.4,0.4,0,0,0,.17-0.23l0.1,0-0.06-.26-0.11,0h0l0.19-.4h0.19a0.17,0.17,0,0,0,.11-0.06h0a1.15,1.15,0,0,0,.27-0.17l0.17,0,0.34-.43,0.14,0v0l0.21,0,0,0a0.21,0.21,0,0,1,.14-0.15h0.05l0-.05a2.68,2.68,0,0,1,.5-0.86l0,0,0-.06a1.08,1.08,0,0,0-.29-0.38l-0.14-.27,0.05-.08-0.14-.47,0.15-.25h0.08V61.84a2.2,2.2,0,0,1,0-.31l0,0a1.07,1.07,0,0,0,.24-0.36l0.23-.22,0.12,0-0.06-.11-0.09-.19,0.32-.22,0,0a0.27,0.27,0,0,1,.18.13l0,0.08,0.15,0h0a2,2,0,0,1,1.38-.26,0.34,0.34,0,0,1,0,.1l0,0h0.05L134,60.53a0.33,0.33,0,0,0,0,.28l0,0,0.28,0.38,0,0a0.78,0.78,0,0,1,0,.14l-0.13,0,0.1,0.12h0l0,0.08-0.45.37v0a1.65,1.65,0,0,1-.27,1.15l0,0,0,0.1h-0.08l0.09,0.28a0.43,0.43,0,0,0-.09.12l-0.13,0,0,0a0.26,0.26,0,0,1-.21.17h0l-0.24.49a0.26,0.26,0,0,1-.14.06l-0.1,0,0.1,0.33-0.43.18v0.05a0.89,0.89,0,0,0,0,.36l-0.42.41,0,0.06a3.91,3.91,0,0,0,.87,1.27,0.6,0.6,0,0,0,.15.18l0,0.37-0.14,0,0.2,0.4h-0.06L133,68.58h-0.09L133,68.86l0.11,0,0.19,0.33,0.32-.14,0.15,0.41,0,0a0.46,0.46,0,0,0,.47.23l0.16,0-0.11-.12a2.34,2.34,0,0,1-.23-0.29l0.67,0.15,0.11,0.36h0.07a0.57,0.57,0,0,1,.38,0l-0.39.11a0.69,0.69,0,0,0-.31.17l-0.16,0,0.06,0.11,0.07,0.14h0l0.12,0.43h0.08l0,0.11,0.1,0a1.29,1.29,0,0,0,.44-0.25l0.13,0-0.1-.34,0.36,0.48,0.25,0,0.08,0.27,0.55-.19,0,0a0.22,0.22,0,0,0,.07-0.1l0.41-.07,0,0c0.53-.88.53-0.88,1-1h0v0a0.51,0.51,0,0,0,0-.33l0.36-.1,0.15,0,0,0h0.07a0.63,0.63,0,0,0,.45-0.19,0.18,0.18,0,0,0,0-.1l0.16-.07,0,0.08,0.08,0a3.79,3.79,0,0,0,.74-0.38l0.19,0.11a6.3,6.3,0,0,0,1.35.63l0,0h0.07l0.11,0h0.08a0.33,0.33,0,0,0,.35.1,0.26,0.26,0,0,1,.23.07l0,0,0,0L143,69.2l0.1-.05,0.11,0.07,0.29,0.11a3.79,3.79,0,0,1-.76.09h-0.13l0,0.11-0.11,0,0,0c-0.12.25-.16,0.26-0.19,0.26l-0.11,0,0,0.07-0.12,0a1.4,1.4,0,0,0-.56.21l-0.26.48-0.49.14c-0.24,0-.25-0.08-0.26-0.11l0-.05h-0.05a1.39,1.39,0,0,0-.5,0l-0.1,0,0,0.07h-0.09L139.9,71l-0.8.14h0l-0.06,0v0l-0.19,0L138.74,71l-0.1.08a0.55,0.55,0,0,0-.3.41l-0.47.08,0-.09-0.22,0,0,0a0.22,0.22,0,0,1-.16.17l-0.1,0,0,0.09-0.36.06h0c-0.29.16-.38,0.22-0.37,0.32l-0.08.52v0a1,1,0,0,1,0,.13h-0.05L136.58,73l-0.1,0,0,0.11a2.67,2.67,0,0,0,.58.85l0,0h0a0.16,0.16,0,0,0,.11-0.09h0l0.09,0.48a1.72,1.72,0,0,1,0,.27h-0.06v0.09a3.46,3.46,0,0,0,.25.81,4.27,4.27,0,0,1,.22.65,1.2,1.2,0,0,1-.56.31,4.66,4.66,0,0,1-.7,0,0.85,0.85,0,0,0-.37-0.33l-0.4-.32h0l0-.52-0.11,0a2.34,2.34,0,0,0-.86.6v0a0.06,0.06,0,0,1,0,0h-0.1l0,0.18-0.1,0,0.06,0.24a0.47,0.47,0,0,0-.13.26h-0.08l-0.06.57,0,0h-0.08l0,0.57,0,0-0.1,0,0.15,0.64a6.21,6.21,0,0,0,.11,1.05l0,0a0.38,0.38,0,0,0,.16.14l0,0.21h0a0.23,0.23,0,0,0,0,.12l0,0.08,0.1,0,0.07,0.3-0.15,0-0.26.49-0.07,0a1.2,1.2,0,0,0,0-.6h0l0.2,0-0.08-.37-0.38.06,0.08,0.33c-0.22.22-.52,0.5-0.76,0.7l0,0,0,0.63,0,0a0.45,0.45,0,0,0,.27,0,6.22,6.22,0,0,0-.45,1l-0.09,0a0.27,0.27,0,0,0,0-.19l0-.12-0.11.05a4.94,4.94,0,0,1-1,.42,0.62,0.62,0,0,1-.25,0l0.05,0a0.73,0.73,0,0,1,.26-0.14l0.09,0,0-.25-0.54-.12a1.09,1.09,0,0,0-.29,0,0.13,0.13,0,0,0-.1.05h0l-0.51.16a0.42,0.42,0,0,0-.2.16l-0.4.07,0,0a0.31,0.31,0,0,1-.22.21l-0.09,0,0,0.09-0.21,0v0.09l-0.48.09-0.25.45-0.26,0v0.08h-0.42a0.18,0.18,0,0,0-.1.1l-0.23,0,0,0.12-1.71.57V84.93l-0.22,0v-0.1l-0.37.06a0.63,0.63,0,0,0-.4-0.14l0-.15-0.2.13v0l-1,0,0-.14-0.11,0a1.74,1.74,0,0,0-.82.66,1.23,1.23,0,0,0-.1.19h-0.11a0.14,0.14,0,0,0-.09.06l-0.35.06v0.1l-0.44.23a0.35,0.35,0,0,1-.24-0.33v-0.1l-0.1,0V85.37l-0.55.26-0.18,0h0a0.52,0.52,0,0,1-.23-0.41v-0.1l-0.1,0,0-.2-0.14,0-0.22-.39V84.5h0.07l0.24-.53v0a0.15,0.15,0,0,0,0-.11,0.13,0.13,0,0,0-.09,0l-0.25-.19,0,0.34-0.3.11,0-.3,0.14,0-0.16-.53,0,0,0.11,0.3,0,0.05h0.06c0.28,0,.28,0,0.37.27l0,0.06,0.68,0,0-.92-0.14,0-0.1-.22-0.06-.06-0.14,0a3.76,3.76,0,0,0-.62.15l0.05-.47,0.19,0V82.29a9,9,0,0,0,.1-1,0.85,0.85,0,0,0,.56.13h0.06l0.15-.68-0.08,0a1.32,1.32,0,0,1-.79-0.8,2.55,2.55,0,0,0-.36-0.56l0.3-.05V79.17l0.37-.36-0.11-.52a4.51,4.51,0,0,0,0-.65l0-.19-0.14.13a0.63,0.63,0,0,1-.33.23H120v0.11l-0.42.16,0,0a0.53,0.53,0,0,0-.11.33l-0.31.58-0.5.14h0l-0.18,0V79.15l-0.28,0v0.14a7.68,7.68,0,0,0-.72.69l0,0,0.28,0.65,0.09-.14a3.85,3.85,0,0,1,.34-0.43v0.13l-0.1,0v0.18h0v0.11l0.11,0a1.25,1.25,0,0,0,.25-0.1,0.91,0.91,0,0,0,.15-0.11h0a0.85,0.85,0,0,1-.59.54,2.64,2.64,0,0,1-.52,0H117.4V81a7.3,7.3,0,0,0,0,1v0l0,0a0.34,0.34,0,0,0,.34.15,0.91,0.91,0,0,0,.15.21,1.89,1.89,0,0,0-.09,1.06v0l0,0a0.8,0.8,0,0,0,.53.28l0.14,0.39a1.12,1.12,0,0,1,0,.13h-0.07V84.4a0.55,0.55,0,0,0,.09.44,0.11,0.11,0,0,0,.06,0l0.15,0.5h0.08l0,0.42-0.1,0v0.09a1.9,1.9,0,0,0,.44.95h-0.36l0,0a0.89,0.89,0,0,0-.12.64l-0.22.32,0-.2H118.3a1.57,1.57,0,0,0-1.4.56l-0.06,0,0,0.05h0a2.48,2.48,0,0,0-1,.18H115.8V88.38l-0.2,0V88.3l-0.11,0a1.64,1.64,0,0,0-.84.54,0.09,0.09,0,0,1-.07,0h0l0,0a2.23,2.23,0,0,1-.87.55h0v0c-0.09.24-.12,0.29-0.11,0.29H113.4V90l-0.09,0v0.06a10.26,10.26,0,0,1-.28,1.06,7.93,7.93,0,0,0-.33,1.41l0-.1v0a0.36,0.36,0,0,0,0-.11,0.18,0.18,0,0,0-.06-0.06V92.13H111.7l0.06,0.17a0.8,0.8,0,0,0,.07.16l0.07,0.1h-0.14a0.49,0.49,0,0,0-.3.18l-0.43.15a0.4,0.4,0,0,0-.18.16l-0.44.07v0.11l-0.36.06-0.37.33a0.66,0.66,0,0,0-.49.3,5,5,0,0,0-.26,1.49v0a0.4,0.4,0,0,0,.13.23v0.18a1.66,1.66,0,0,0-1.55,1.32v0h-0.07v0.11l-0.34.06h0a3.12,3.12,0,0,1-1.25.43,2.14,2.14,0,0,0-.74-0.58l-0.09,0,0,0.1a2.27,2.27,0,0,0-.19.89v0.1l0.1,0v0.22l0.11,0a9.45,9.45,0,0,0,.16.95,0.56,0.56,0,0,1-.46.37V99.52l-0.14.1a0.77,0.77,0,0,1-.37.16h0a2.33,2.33,0,0,0-.8.65,0.32,0.32,0,0,1-.12.07l-0.23-.45-0.6,0h0a0.73,0.73,0,0,0-.4.35,2.28,2.28,0,0,0-1,.29l-0.06,0,0.17,0.56,0,0,0.17,0.12h0v0.15l-0.3.31c8.06,1.91,16.46,3.52,25.07,4.81a1.25,1.25,0,0,1-.3-1,0.38,0.38,0,0,1,0-.15h0.05l0-.05c0.33-1,.32-1.09-0.2-1.46l0-.22,0.12,0v0l0.14,0.06H126a0.14,0.14,0,0,0,.11-0.08l0.2,0,0,0a0.7,0.7,0,0,1,.5-0.3h0l0,0a1,1,0,0,1,.63-0.32h0l0.06,0a2.6,2.6,0,0,1-.33.42l0,0,0.11,0.35,0,0a0.48,0.48,0,0,0,.21.14c0,0.11.07,0.22,0.1,0.33a2.64,2.64,0,0,0,.3.74l0,0h0a0.8,0.8,0,0,0,.23,0,0.15,0.15,0,0,0,.1-0.06l0.14,0-0.05-.35,0.12,0,0-.11,0.34-.06v-0.07c0-.23,0-0.53.05-0.77l0.17-.14c0.42,0.26.42,0.3,0.42,1.46v0.07l0.07,0a1.54,1.54,0,0,1,.65.38,2.61,2.61,0,0,0,.41.3l-0.12.2a0.61,0.61,0,0,0,0,.43v0.07l0.37,0.05a0.08,0.08,0,0,1,0,0l0,0.09,0.3-.05a0.71,0.71,0,0,0,.47.16l0,0.12,0.12,0,0,0.22,0.41,0h0a0.33,0.33,0,0,0,.17-0.07l0,0.1,0.39-.14,0.08,0,0,0c0.3,0.16.3,0.16,1.26,0.77l0,0c2.58,0.32,5.17.62,7.77,0.88q4.71,0.47,9.41.79a1.14,1.14,0,0,0,.11-0.14l1-.16,0-.12,0.22,0,0-.12,0.46-.08,0-.17a0.47,0.47,0,0,0,.15-0.44v0l-0.05,0c-1.31-.43-1.31-0.43-1.52-0.68l0,0h-0.08l-0.08-.35-0.11,0-0.07-.35-0.14,0a1.06,1.06,0,0,0-.42-0.34l0-.23A0.54,0.54,0,0,1,151,106H151v-0.08a6.49,6.49,0,0,0-.07-0.71l0.18-.26a0.58,0.58,0,0,0,.08-0.31h0.07l0.16-.35a0.38,0.38,0,0,1,.26-0.2h0.09l0-.09a7.16,7.16,0,0,0-.33-1.51l0.18,0,0.06-.36a0.3,0.3,0,0,1,.11-0.14l0.12,0-0.06-.11a1.19,1.19,0,0,1-.09-0.51l0.27-.06,0,0a0.58,0.58,0,0,1,.22-0.19l0.12,0-0.19-.37,0-.07h0.07l-0.05-.23,0.14,0-0.21-.35,0.19-.42L152,99.6l0-.16a0.91,0.91,0,0,0,.37.05l0.12,0-0.19-.41a2.22,2.22,0,0,1,.25-0.39,1.35,1.35,0,0,0,.37-0.87c0-.16.08-0.17,0.13-0.18h0.06V97.55c0-.09,0-0.19,0-0.29l0-.15,0.35-.26h0l0.09,0,0.94-.27,0.06,0V96.48l0-.16,0.27,0.24h0l0.27,0v0l-0.71.12-0.1,0,0,0.11-0.11,0,0.07,0.27,0.57,0L155,97.4h0.08a0.7,0.7,0,0,1,.8.29l0,0,0.34-.06V97.59a1.32,1.32,0,0,0,0-.4A2.09,2.09,0,0,0,157,97l0.15,0.24,0,0.07,0.4-.18a2.2,2.2,0,0,1,.32.53h-0.5V97.7l0,0.19-0.61.22v0.05a0.9,0.9,0,0,1-.2.37,1,1,0,0,0-.24.54v0.11l1-.17,0,0.08,0,0a0.8,0.8,0,0,0,.44.05l0.43,0.92h0v0.06a1.23,1.23,0,0,0-.07.64v0.14l0.12-.07a0.45,0.45,0,0,0,.16-0.17,0.28,0.28,0,0,1,.1-0.11,2.51,2.51,0,0,1,.53-0.17l0.28-.08,0.08,0,0-.13,0.52-.3,0.06,0,0-.08,0.39-.07,0-.27,0.6-.34,0-.06h0a0.35,0.35,0,0,0,.23,0h0a0.34,0.34,0,0,0,.24-0.23l0-.06,0.59-.1,0-.11h0.09l0-.24,0.07,0.26,0.58-.34,0.48,0.28a0.33,0.33,0,0,0,.15.05,2.49,2.49,0,0,1,.32.46l0,0.05,0.63,0.13a0.46,0.46,0,0,0,.37.2l0.45,0.24,0.07,0.27,0.13,0a0.93,0.93,0,0,0,.27.29l0,0.13,0.35-.06a1.42,1.42,0,0,0,.36.27l0.06,0.21,0,0a2.16,2.16,0,0,1,.49.33l0,0.08,0.24,0a0.49,0.49,0,0,0,.38.17,0.75,0.75,0,0,0,.57.15,0.52,0.52,0,0,0,.37.17,0.59,0.59,0,0,0,.33.18l0,0.08,0,0a0.42,0.42,0,0,1,.25.26v0l0,0a2.47,2.47,0,0,1,1.13,1.58h-0.07v0.08a1.88,1.88,0,0,1-.26,1,0.37,0.37,0,0,0-.06.15l-0.21,0,0,0.11-0.21,0,0,0.12-0.31.05,0,0.16-0.36.31a8,8,0,0,0-1.1-.22h-0.13l0,0.15-0.15,0,0,0a0.68,0.68,0,0,1-.52.31l-0.1,0,0,0.1a3.82,3.82,0,0,1-1.08-.13h0a3.28,3.28,0,0,0-.52.05,2,2,0,0,0-1.1-.43h0l-0.38.39-0.51-.29a3,3,0,0,1-.35-0.51l0-.11-0.6.27a0.26,0.26,0,0,1-.12,0v0l-0.58-.4h0a4.74,4.74,0,0,1-.77.2l-0.21.08v0h-0.06a2.87,2.87,0,0,1-.42-0.09l0-.08-1.2.21,0,0a4,4,0,0,1-1.07.65h0v0a1.86,1.86,0,0,1-.77.81h0a0.34,0.34,0,0,0-.12.26l-0.17,0,0,0a1,1,0,0,1-1.4.47l0,0,0,0a2.84,2.84,0,0,1-1,.35,5.19,5.19,0,0,0-.69.18l-0.06,0,0,0.52,0.81,0.09h0.13l-0.26.07h0a1,1,0,0,0-.44.31,3.06,3.06,0,0,1-.49.34c6.81,0.45,13.55.67,20.16,0.67q4.16,0,8.25-.12l-0.12-.51,0-.08-0.1,0-0.11-.48H181a2.34,2.34,0,0,1,.16-1,0.82,0.82,0,0,0,0-.56v0l0,0-0.13-.14a1.3,1.3,0,0,0,.06-0.57l0.1,0,0-.09L181,105.8h0l0.22-.62a1,1,0,0,1,.56-0.26l0.1,0-0.08-.29-0.13,0a2.22,2.22,0,0,1-.43-0.33l0-.08-0.18,0,0-.12-0.19,0,0-.07,0,0a0.44,0.44,0,0,1-.25-0.27l-0.38-.46a0.53,0.53,0,0,0-.2-0.23l-0.06-.2-0.48-.41a0.36,0.36,0,0,0-.28-0.12l-0.81-.86a0.23,0.23,0,0,0-.11-0.06l-0.09-.32,0,0a0.43,0.43,0,0,1-.25-0.26v0l-0.47-.41a0.59,0.59,0,0,0-.21-0.23,10.23,10.23,0,0,1-.39-1.3l0-.09-0.19,0-0.07-.23h-0.08a4.08,4.08,0,0,0-.31-1.08l0-.07-0.65.13-0.35-.05v0L175,96.92c0-.22,0-0.23.07-0.23l0.1,0,0-.09-0.27-1.1a0.53,0.53,0,0,0,.09-0.31l0.1,0L175,94.75a7.65,7.65,0,0,0-.22-0.92l0.37-.06-0.05-.15a0.57,0.57,0,0,0,.18-0.21h0l0.08,0.22,0.28,0,0,0.11h0.07l0,0.48L175.9,94a0.48,0.48,0,0,0,.08-0.17l0-.05,0.24,0-0.06-.17a0.36,0.36,0,0,0,.06-0.31l0-.11,0,0L176.07,93h0.18V92.91c0-.12,0-0.2,0-0.25h0.21a0.16,0.16,0,0,0,.12-0.06l0.18,0,0.11-.48,0.71-.12,0-.06c0.09-.31.14-0.32,0.16-0.32h0.06V91.52c0-.18.08-0.19,0.11-0.19H178V91.25a1.39,1.39,0,0,0,0-.62H178l0-.08,0.33,0a1,1,0,0,1,.53.54l0,0.08,0.56-.22v0l0,0.05,0.56,0.06a0.13,0.13,0,0,1,.15.1v0l0,0a1.72,1.72,0,0,1,.42.22v0l0.45,0.27a0.42,0.42,0,0,0,.16.11l0.09,0.24,0.42-.07,0,0.11,0.09,0,0,0,0.21,0.54,0,0a1,1,0,0,1,.35.48l0,0.07,0.11,0c0.23,0.22.53,0.53,0.76,0.78a0.4,0.4,0,0,1,0,.08l-0.09,0,0.2,0.55h0a2.68,2.68,0,0,0-.66.62l0,0a0.61,0.61,0,0,0,.09-0.52l0,0h-0.05l-0.65-.13a6.27,6.27,0,0,0-1.29-.19h-0.12L181,95.1a0.58,0.58,0,0,0-.24.21l-0.11,0-0.1,0,0,0.05-0.43,0a0.16,0.16,0,0,0-.18.06v0l-0.15,0,0.41,0.63a0.65,0.65,0,0,0,.21.26l0,0.13,0.41-.07-0.19.29a2,2,0,0,0-1.13.22l-0.13.08,0.64,0.38a0.31,0.31,0,0,1,.18.12v0l0,0a0.76,0.76,0,0,1,.38.36l0,0.08,0.12,0,0.4,0.4a1,1,0,0,0,.26.29,0.78,0.78,0,0,0,.15.46l0,0.11h0.05a6.19,6.19,0,0,1,1.12.34h0a1.71,1.71,0,0,1,.42,0l0,0.06h0.07c0.33,2.1.33,2.1,0.43,2.26l0,0a0.49,0.49,0,0,1,.21.18l0,0.08,0.27,0,0-.1a1.65,1.65,0,0,1,.1-1l0.19,0a1.78,1.78,0,0,1,.68,0l0.19,0.65v0l0,0,1.1,0.76,0.06,0.49a2.54,2.54,0,0,1-.36.28h0a3.64,3.64,0,0,1-1,.41,0.24,0.24,0,0,0-.06-0.19l0,0c-0.3-.42-0.41-0.43-0.55-0.41l-0.11,0,0,0.1a4.5,4.5,0,0,1,.24,1.33,5.62,5.62,0,0,0,.16.8v0a2.87,2.87,0,0,1,.2.44l0,0.08,0.22,0,0,0c0.16-.36.22-0.37,0.29-0.38h0.09l0,0a6.56,6.56,0,0,0,.55,1.07,0.25,0.25,0,0,0,0,.22l0,0a0.63,0.63,0,0,0,.42.31l0,0.12,0.1,0a6.33,6.33,0,0,1,.33,1h-0.09l0,0.12-0.25,0v0.09a8.75,8.75,0,0,0,.39,1.47,224.85,224.85,0,0,0,30-3.45,83.5,83.5,0,0,0-7-19h0l-0.06-.11,0-.06a84,84,0,0,0-59.65-44h0l-0.91-.16-1-.15-0.25,0h0v0h0v0h-0.07l-0.11,0h-0.08v0l-0.17,0h-0.13L148,42.92V43h0.13a5.78,5.78,0,0,0,.66.1v0h0.07v0l0.11,0h0l0.08,0,0.2,0h0.05l0.16,0a1,1,0,0,0,.23.08h0l0,0a0.1,0.1,0,0,0,.07,0h0l0.1,0h0l0.53,0.12v0.08L151,43.77l0.13,0,0.1,0h0l0.17,0v0l0.31,0.07v0l0.09,0v0c0.24,0.06.49,0.11,0.73,0.15L153,44.26l0.08,0h0a3.22,3.22,0,0,0,.49.16l0.29,0,0.69,0.16,0.17,0H154.5v0.07a0.05,0.05,0,0,0,0,0l0,0.25,0.09,0L155,45.26l-0.26-.07-0.09,0,0,0.1,0,0,0,0a1.82,1.82,0,0,0,.4.23c0.18,0.06.37,0.11,0.56,0.15l0.29,0.07H156V45.59l0.2,0.06h0l0.4,0.13h0l1.28,0.41-0.43,0,0.07,0.15a0.2,0.2,0,0,0,.12.1h0l-0.2,0,0.31,0.11-0.1,0,0.44,0.17,0.11,0,0.07,0-0.49.08L158.19,47a4.9,4.9,0,0,0,1.41.5,1,1,0,0,0,.38.07l0.25,0.08,0.15,0,0.23,0.07-0.11,0h-0.07l-0.22,0-0.28-.06h0l-0.52-.25h-0.06l-0.51-.19a2.34,2.34,0,0,1-.34-0.11h0l-0.58-.23h0l-0.36-.14h0l-0.29-.12a4,4,0,0,0-.58-0.19l-0.59-.2,0,0-0.3-.11-0.22,0-0.54-.16h-0.09l0,0.18,0.08,0h0a21.22,21.22,0,0,1,2.7,1l0.19,0.07a1,1,0,0,0,.24.13h0l-0.13,0,0.37,0.16,0,0,0,0,0.48,0.2a7.19,7.19,0,0,0,1.38.61h0l0.19,0.09h0l0.2,0.09h0c0.67,0.28.67,0.28,1,.43l0.11,0.08h-0.06l0.38,0.18h0L163,49.68l0.14,0,0.76,0.39h0.06l0.09,0,0.39-.06-0.3-.15a0.15,0.15,0,0,0,.07-0.12s0,0,0,0l0.07-.08h0.07l0.07,0h0a2.45,2.45,0,0,1,.55.07,0.71,0.71,0,0,0-.2,0l-0.22,0L164.81,50l-0.13,0,0.17,0.09,0,0.07a17.74,17.74,0,0,0,2.46,1.64h-0.05L167.5,52h0l0.23,0.13a5.5,5.5,0,0,1,1,.69,0.87,0.87,0,0,0,.17.14,5,5,0,0,0,0,.57v0h0l-0.11,0,0.31,0.2h0a2.1,2.1,0,0,1,1.09.46l0.09,0.06a6.45,6.45,0,0,0-1.38-.44h0a0.13,0.13,0,0,0-.06.08h-0.12l-0.09-.06-0.21,0a1,1,0,0,0-.28-0.1l-0.06,0h0a2.4,2.4,0,0,1-.46-0.2l0.06-.11,0.23,0h0c0.16,0,.24-0.05.26-0.13a0.1,0.1,0,0,0,0-.1L168,53.14l0.28,0,0-.11,0-.1,0.16,0-0.49-.27a3.65,3.65,0,0,0-.44-0.36h0l-0.27-.16-0.2-.23h0l-0.08,0-0.29-.17h0l0,0-0.22-.13-0.45-.26-0.25-.2h0L165,50.67l-0.61-.2a2.8,2.8,0,0,1-.4-0.17,5.23,5.23,0,0,1-.53-0.22L163.34,50l-0.27-.12-0.08,0-0.1-.06H163l-0.27-.12-0.44-.21h0L162,49.34h0l-0.35-.19h0.08L161.42,49h0l-0.26-.12-0.5-.23a3.75,3.75,0,0,1-.53-0.2,3.54,3.54,0,0,0-.6-0.22l-0.29-.07-0.59-.25h-0.05l-0.35-.17h0L158,47.6l-0.27-.14-0.41-.21h0l-0.19-.08h0l-0.82-.31-0.55-.23-0.05,0,0,0V46.57l-0.58-.21L155,46.27l-0.21-.08h0a3.25,3.25,0,0,0-1.46-.27,1.32,1.32,0,0,0-.3.09l-0.11,0h-0.07v0.07c0,0.07,0,.09.12,0.12l0.2,0.16H153l0.19,0.07h0l0.29,0.11h0l0.19,0.07h0l0.19,0.08h0L154,46.81h0l0.3,0.12L154.42,47a1.4,1.4,0,0,0,.3.18,3.76,3.76,0,0,0,.67.45h0l0.15,0.09h-0.06l0.15,0.09-0.09,0L155.7,48a2.2,2.2,0,0,0,.53.28h0l0.26,0.12,0.37,0.17,0.17,0,0.29,0.14h0l0.25,0.12h0.06a8.56,8.56,0,0,1,.92.46l-0.17,0,0.22,0.13,1,0.58,0,0,0,0,0.07,0a0.94,0.94,0,0,1,.44.12h0.09l0.07,0,0.1,0,0-.08,0.19,0.12a1,1,0,0,0,.26.23l0.62,0.3,0.14,0L162.08,51l0,0h0.1l0,0,0.47,0.33,0.43,0.28,0,0h0l-0.14-.08-0.2-.08-0.1-.06-0.12,0-0.17-.1a3.57,3.57,0,0,1-.59-0.24l-0.47-.15-0.14-.07,0,0-0.08,0-0.06,0h0a5.81,5.81,0,0,1-1-.24l-0.52-.15-0.05.11a5.19,5.19,0,0,0-.67-0.3,0.38,0.38,0,0,1-.13,0l0,0-0.36.06a2,2,0,0,1-.38-0.17l0,0h0a0.35,0.35,0,0,1-.27-0.06h0l-0.35-.07-0.45.29h-0.28l-0.08,0v0l-0.12,0-0.08,0L156,50.13l-0.19-.1h-0.07a2.8,2.8,0,0,0-.38-0.1,2.09,2.09,0,0,1-.41-0.12h0l-0.09,0a6.82,6.82,0,0,1-1-.31h0l-0.48.08,0.08,0h-0.07l0.29,0.13h0l0.08,0h-0.06l0.23,0.12a5.76,5.76,0,0,0,.91.41h0a0.14,0.14,0,0,0,.07,0h0l0,0,0,0,0.17,0,0.29,0.14h0.08l0.16,0.1,0.3-.05L156,50.54h0a0.27,0.27,0,0,0,.16-0.06l0,0v0a0.13,0.13,0,0,0,0,0h0.07l0.11,0.06h0l0.07,0-0.25,0,0.08,0h-0.08l0.69,0.34L157.23,51l0.42,0.24a1.87,1.87,0,0,0,.32.16l0.27,0.17h0l0.23,0.15-0.43.06,0.42,0.44h0a6.11,6.11,0,0,1-1.34-.69l-0.06,0L157,51.6a1.82,1.82,0,0,1-.27.27l-0.08-.05-0.39.07L156.38,52c-0.16,0-.38,0-0.74.06h0l-0.31.53,0.22,0.18-0.12,0,0,0.06a0.92,0.92,0,0,0-.12.21h-0.31a0.86,0.86,0,0,0,0-.1l0.22,0-0.75-.35a2.11,2.11,0,0,1-.35-0.23l0,0-0.25,0-0.44-.41,0,0.16a0.29,0.29,0,0,0,.07.32l0.09,0.37-0.07-.06-0.06,0a1.33,1.33,0,0,1-.62.37l-0.19,0,0.08,0.07v0a1.57,1.57,0,0,0-.06.3h-0.06l-0.22.46a0.29,0.29,0,0,0-.23.17,0.19,0.19,0,0,0,.07.18H152a0.1,0.1,0,0,0-.09.07v0.07l0,0L152,55l-0.1,0,0.52,0.52,0.29,0.34-0.32.22a0.19,0.19,0,0,0-.06.08l-0.4.07v0.07a0.09,0.09,0,0,1-.06.09l0,0c-0.94-.76-1.15-0.93-1.23-1l0.1,0-0.21-.21a0.4,0.4,0,0,0,.23-0.16l0.38-.18,0.24,0-0.2-.13a1.47,1.47,0,0,0-.31-0.17l-0.13-.12h0l-0.16-.15-0.51-.19a1.16,1.16,0,0,1-.33-0.22l0,0a2.1,2.1,0,0,0-1.5-.3L148,53.35l-0.11,0-0.06-.06-0.25,0-0.54-.12a0.57,0.57,0,0,0-.28-0.07l-0.23,0,0.2,0.13a4.61,4.61,0,0,0,1,.5L147.92,54l0.11,0,0.2,0.19h-0.06l0.12,0.12h-0.05l0.12,0.13,0,0.09c0,0.12.05,0.19,0.06,0.23H148.4l0.06,0.11a2.37,2.37,0,0,0,.41.66l0,0H149l0.53,0.27h0a0.67,0.67,0,0,0,.14.16l0.08,0.46v0l0.08,0.15h0l0.33,0.54a0.36,0.36,0,0,1,.05.25l0,0-0.3-.37h-0.19a1,1,0,0,0-.54-0.13,1.21,1.21,0,0,0-.69-0.18h-0.07V56.8a0.45,0.45,0,0,1,0,.15h0l0,0a2,2,0,0,0-.31.92,0.25,0.25,0,0,1-.07.17l-0.15,0,0.13,0.16h0a1.86,1.86,0,0,0,.67.78,0.38,0.38,0,0,1,.14.09v0l0.48,0.19a5,5,0,0,1,.4.31l-0.23,0,0,0-0.49.08,0-.05h0a2.08,2.08,0,0,1-.32-0.05l0,0-0.28,0L148,59.44l-0.07.11-0.12.17-0.34-.49h0a4.25,4.25,0,0,1-1-.27l-0.16-.06,0.12,0.65-0.26,0,0,0.07-0.11,0,0.13,0.13a0.94,0.94,0,0,0,.48.34,2.76,2.76,0,0,0,.91.41,2.63,2.63,0,0,1,.6.68,0.15,0.15,0,0,0,0,.11l0,0,0,0.07L148,61.5l0.14,0.22h0l-0.09-.14h0a5.27,5.27,0,0,0-1.42,0l-0.24-.38,0,0L145.77,61l0,0-0.08.09a0.66,0.66,0,0,1-.41-0.31l0-.05h0a0.81,0.81,0,0,0-.23-0.26l-0.1-.16H144.8l-0.32-.51,0-.05h-0.08a2.08,2.08,0,0,0-.31-0.3L144,59l-0.48-.3a2.78,2.78,0,0,1-.41-0.22l0-.05-0.49.08,0-.06-0.14,0,0-.07-0.39.07-0.28-.06h0.05l0-.07h0.07L141.51,58l-0.26,0,0,0L141,58l-0.15-.48-0.08,0-0.39.07,0,0h-0.08a2.62,2.62,0,0,0-.75-0.63l0,0,0,0a0.94,0.94,0,0,1,.49.28l0,0.05,0.1,0a1.38,1.38,0,0,1,.25.11l0,0.05,0.24,0,0.43,0,0.5,0.18a0.41,0.41,0,0,1,.26.18l0,0,0.33-.06-0.14-.21a3.22,3.22,0,0,0,1.23.33,2.36,2.36,0,0,0,.6,0l0.47,0.12a0.08,0.08,0,0,1,.05,0l0,0,0.6-.1,0,0.06,0.2,0,0,0.07h0.05l1.19-.13,0.16,0-0.06-.07h0.05V57.7c0-.07,0-0.09,0-0.09l0.15,0,0-.07,0.13,0L147,57.44l0.1,0,0.17-.57-0.11-.14,0.06-.41,0.16,0-0.11-.12-0.76-.8,0,0h-0.08a0.57,0.57,0,0,0-.29-0.09L145.72,55a0.45,0.45,0,0,1-.2-0.13l0,0-0.57,0a0.58,0.58,0,0,1-.22-0.14l0,0h-0.05l-0.11-.12h-0.2l-1-.26a1.71,1.71,0,0,0-.44-0.14l0-.05h0a6.53,6.53,0,0,1-1-.19l-0.22,0,0,0L141,53.79A0.6,0.6,0,0,0,140.65,53.79Zm-14.22,1v0.06a1.2,1.2,0,0,1,0,.13h0v0c0-.09,0-0.18,0-0.29l0.16,0h0.07v0ZM115,72.33h0l0,0a0.22,0.22,0,0,0,0,.07h-0.09V72.37l-0.17,0a0.81,0.81,0,0,0,.25-0.3h0l0.18,0.06v0.06h0.08l0.25,0Zm9.33,2.58a0.65,0.65,0,0,1-.19.17l-0.14.1,0,0V75.3l-0.07.06-0.16.14,0,0v0l-0.3,0,0,0.15a1.54,1.54,0,0,1-.68.28V75.84l0.1,0V75.74a0.9,0.9,0,0,1,0-.64,0.43,0.43,0,0,1,.2-0.12,0.35,0.35,0,0,1,.13,0h0.14a0.4,0.4,0,0,0,.23-0.38l0.14,0-0.15-.44h0.07l0-.27,0.11,0,0,0.25h0.51a1.76,1.76,0,0,1,.17.45Zm1.24,0.26c0,0.1,0,.2,0,0.3l-0.15,0c0-.09,0-0.19.06-0.3a0.85,0.85,0,0,0,0-.09,0.3,0.3,0,0,1,0-.13l0,0V75h0.07ZM128.7,73l0,0.09h0.12A0.28,0.28,0,0,0,129,73a0.17,0.17,0,0,1,.09-0.06h0L129.32,73l-0.72.06L128.53,73h0.17Zm-0.63-18.31,0-.06H128l-0.06-.22,0.14,0.26h0Zm3.44-.85a2.32,2.32,0,0,1,0-.38,2.29,2.29,0,0,1,.06.29Zm0.88-.72L132.32,53l0.13,0Zm0.07-.18-0.1-.11,0,0-0.05-.06-0.05,0-0.05-.1a0.26,0.26,0,0,0,0-.1l0.14,0v0.06a1,1,0,0,0,.12.3ZM112.71,92.59h0ZM117,88.76a0.91,0.91,0,0,1-.07-0.29l0.14,0.27,0,0,0.08,0.06Zm1.69-8.59h0v0a0.48,0.48,0,0,1,0-.09l0,0A0.15,0.15,0,0,0,118.6,80v0l0-.13-0.12.06,0,0h0a0.45,0.45,0,0,0,.15-0.14h0.36l0.22,0.44,0.08,0.17A0.59,0.59,0,0,0,118.72,80.17Zm23.15-6.82a0.93,0.93,0,0,0-.33-0.38l0,0h-0.08a0.5,0.5,0,0,1-.11-0.25,0.44,0.44,0,0,0-.22-0.28h0a0.53,0.53,0,0,1,0-.42l0.33-.06,0.31,0.63,0,0.06h0.08l0.06,0.17h0.06a2.59,2.59,0,0,0,0,.56Zm33.64,33a0.51,0.51,0,0,0,.17-0.07,0.86,0.86,0,0,0,.32.25l-0.07,0a0.18,0.18,0,0,0,0,.07,0.74,0.74,0,0,1-.58-0.29h0.21Zm7.06-9.88-0.33.09,0,0-0.27,0v0l0.43-.06,0-.05a0.25,0.25,0,0,0,0-.16,0.58,0.58,0,0,0,.08-0.29l0.09,0.27-0.08,0Zm0.1-.82c-0.08.18-.11,0.22-0.11,0.22h-0.09a2.64,2.64,0,0,1,.22-0.28Zm22.68,0.12a0.66,0.66,0,0,1,.17-0.11,0.51,0.51,0,0,0,.32-0.34,0.44,0.44,0,0,1,.23,0l0,0.07a0.38,0.38,0,0,1,0,.21v0l-0.17,0,0,0.09,0.07,0.45a0.07,0.07,0,0,1-.07,0,0.23,0.23,0,0,0-.23.13h0a1.5,1.5,0,0,1-.21-0.14,1.69,1.69,0,0,0-.25-0.16A0.32,0.32,0,0,1,205.36,95.72Zm-5.26-6.6L200,88.78a2.23,2.23,0,0,0,0-.23l0.28,0.07,0-.15c0-.15-0.09-0.36-0.12-0.53l0.17-.22v0c-0.05-.32-0.07-0.38.29-0.53l0,0,0,0.06,0.39-.07L201,87.07l0.1,0,0-.06a1,1,0,0,0,.66,0,0.54,0.54,0,0,0,.21.16L202,87.26l0.38-.14v0a0.41,0.41,0,0,0,0-.07l0.21,0.09,0-.09a1.14,1.14,0,0,0,0-.63c0-.07,0-0.12,0-0.16a0.14,0.14,0,0,0,.06-0.06,0.14,0.14,0,0,0,0-.08l0.1,0,0.07,0.17v0.11h-0.07l0.06,0.11L203,86.76h0l0.06,0.11-0.09,0,0,0-0.28-.07L202.79,87h0l0.14,0.27a1.16,1.16,0,0,0-.78,0l0,0,0,0.06a0.53,0.53,0,0,0-.35-0.11l-0.05-.11-0.2,0-0.05-.1-0.39.07L201,87.34l0.24,0.5a1.22,1.22,0,0,0-.05.25H201v0.09a4.25,4.25,0,0,1,0,.6l0,0.12h0v0a1.19,1.19,0,0,0,0,.15l-0.12,0,0,0.1-0.21,0,0.09,0.19a0.63,0.63,0,0,0,0,.34c-0.07.24-.1,0.28-0.09,0.28l-0.11,0,0,0.1a3.18,3.18,0,0,1,.17.76h0L201,91.38l-0.05,0a2.21,2.21,0,0,0-.46-0.76,1.2,1.2,0,0,1-.38-1.33l0.06-.14h-0.08Zm-12.16,3.35,0.23,0.36,0.4-.07,0-.11h0.06l-0.17-.71c0-.31.07-0.32,0.14-0.33h0.08V91.5a1.17,1.17,0,0,0-.06-0.36h0l0.55-.09-0.33-.48,0.4-.17v0a1.31,1.31,0,0,0,.09-0.23,0.54,0.54,0,0,1,.21.08l0.39,0.41h0l1-.06-1.07.18-0.05.66s0,0,0,0l-0.1,0L190,92.1H190l0,0.11a3.38,3.38,0,0,0,1.21,1.65h0a1.22,1.22,0,0,1,.45.22,2.44,2.44,0,0,1-.19.2l-0.14,0,0.36,0.53-0.19,0,0.07,0.19a0.55,0.55,0,0,0,0,.28h0v0.07c0,0.34-.11.8-0.18,1.15a0.69,0.69,0,0,0,0,.15l-0.49.22,0,0-0.09.07v0a1,1,0,0,0-.18-0.51l-0.09-.25h-0.08l0-.11-0.24,0v0.09c0,0.27.06,0.59,0.07,0.88-0.14-.31-0.31-0.67-0.47-1a0.29,0.29,0,0,1-.06-0.11L189.61,96l-0.49.59a0.31,0.31,0,0,1-.4-0.26,0.18,0.18,0,0,0,0-.16l0,0-0.09-.25H188.5a0.46,0.46,0,0,0-.13-0.31A7.89,7.89,0,0,1,187.93,92.47ZM160.11,46.73a1.83,1.83,0,0,1-.3-0.06h-0.07l-0.61-.18-0.07,0h0.07l0.09,0,0.9,0.24h0Zm4,1.57-0.47-.23h0L163.48,48h0l0.67,0.28,0,0h-0.06Zm3.5,2.7-0.89-.48,0.35,0.15,0.49,0.21L167.75,51a1.11,1.11,0,0,0,.13.17ZM169,51.75l0.07,0,0.28,0.1H169.3l0.12,0.07ZM158.45,96.49l0.06,0.2,1.32-.22V96.39c0-.12,0-0.16,0-0.19a0.39,0.39,0,0,0,.2-0.13l0,0,0-.06,0.16,0,0.19-.49h0.08l0.07,0.24,0.09,0a9.94,9.94,0,0,0,2.48-1.81l0.18-.07,0,0.05,1-.3,0,0,0.07-.09,0.16,0,0,0.09-0.34.28a0.45,0.45,0,0,1-.27.12l-0.1,0L163.89,94a2,2,0,0,0-.25.28l0-.06-0.37.06v0.09a0.74,0.74,0,0,0,.15.49h0l0,0.08a7.08,7.08,0,0,0-1,.29l0,0.11-0.15,0,0.22,0.13a1.09,1.09,0,0,0,.75.24,1.61,1.61,0,0,1,.23.24l-0.15,0-0.14.61-0.14,0,0,0.1,0.14,0.48-0.21.1,0-.09-0.6.1,0,0.1,0.1,0.37L162,98l0,0,0-.24-0.12,0,0-.13-0.09,0-0.6.22-0.08,0,0,0.07-0.55,0,0,0.13a0.09,0.09,0,0,1-.05,0l0-.06-0.7.23a1.45,1.45,0,0,1-.31-0.78V97.42h-0.59a0.7,0.7,0,0,0-.19-0.25,0.31,0.31,0,0,0-.23,0h-0.06a0.22,0.22,0,0,1,0-.07v0l0,0L158,96.88l-0.08-.28A1.23,1.23,0,0,0,158.45,96.49Zm-5.73-26,0.07,0a0.18,0.18,0,0,0,.09,0l0,0v0l0.38-.06-0.06-.11L153,69.77l0.13,0.09,0.07,0.05,0.06,0a0.46,0.46,0,0,0,.18.12H154l0.31,0,0,0-0.14.08-0.08.05,0.3,0.43-0.35,0,0.2,0.39a0.81,0.81,0,0,0-.25.11l-0.27-.1L153.64,71l-0.28,0a2,2,0,0,0-.27-0.21l0,0H153l-0.07-.14-0.49-.23,0.24,0Zm-0.4-1.28a2.4,2.4,0,0,1,.25.26l-0.1,0-0.07-.12-0.08,0h0a0.3,0.3,0,0,0,0-.06v0Zm-1.45-2,0-.07H151a1.14,1.14,0,0,1,.22.08l0.11,0,0,0.12-0.33.05,0-.07h0l-0.17,0-0.12,0-0.07,0v0ZM147,65.43l0-.08h-0.08l0-.07,0.13,0h0l0.06,0.08,0.08,0v0ZM147.33,64l0.22,0.3h-0.06l0.31,0.56h0.08L148,65.16h0a1.7,1.7,0,0,1,.9.59l0,0h0.05l0,0.16H149l0,0.09a0.9,0.9,0,0,0,.06.17,0.53,0.53,0,0,1,.06.22,0.36,0.36,0,0,1-.09.12H149l-0.17-.32-0.11,0-0.78-.48-0.24,0a0.32,0.32,0,0,1-.06-0.1,0.41,0.41,0,0,0-.16-0.19,0.5,0.5,0,0,0-.16,0h0l0.16,0-0.21-.4h-0.08l0,0,0.25,0h0a0.21,0.21,0,0,0,.14-0.19v0l0,0,0-.05-0.3-.54,0-.06h-0.08L147.1,64l-0.41.25a0.48,0.48,0,0,0-.18-0.09L146.4,64Zm-2.08-1.72,0,0.06h0l0.28,0.1,0.08,0.15h0a0.52,0.52,0,0,0,.33,0l0,0a0.92,0.92,0,0,1-.28.08l-0.34,0h0a1.47,1.47,0,0,0-.48-0.45l-0.16-.11Zm-2.82,4.15h0a1.5,1.5,0,0,0,.34,0l0.12,0-0.11-.24h0.08l0-.08h0.06L143,66.21l0.26,0a0.56,0.56,0,0,1,.3,0,0.25,0.25,0,0,1,.12.14,0.49,0.49,0,0,0,.17.2h0l0.24,0a0.84,0.84,0,0,0,.56.24l0.2,0.11,0.06,0.14,0,0a3.9,3.9,0,0,1,1,.85h-0.06l-0.24,0-0.17,0,0.08,0.15a1.61,1.61,0,0,0,.21.32l-0.13,0h-0.09a0.94,0.94,0,0,0-.42.13,0.56,0.56,0,0,0-.2.38h-0.41a0.93,0.93,0,0,0-.66-0.67l-0.07-.16h0a0.58,0.58,0,0,1-.48-0.4,0.92,0.92,0,0,0-.73-0.54l-0.15-.16-0.11-.12A1.9,1.9,0,0,0,142.43,66.45Z" transform="translate(-1.36 -2.69)"/><path class="cls-11" d="M185.33,162a2.29,2.29,0,0,0-.46.37l-0.25,0,0,0.1-0.16,0,0,0.13a1.31,1.31,0,0,0-.41.25l-0.25,0,0,0.1-0.53.08a1.36,1.36,0,0,0-.59.22l-0.14,0,0,0a0.94,0.94,0,0,1-.56.28h-0.06l0,0.12-0.47.28,0,0a0.45,0.45,0,0,1-.24.2H181l0,0.11-0.17,0,0,0.1-0.18,0a4.24,4.24,0,0,0-1.87.43,2.42,2.42,0,0,1-.6.29,0.36,0.36,0,0,0-.16-0.15l0-.13-0.26,0h0l-0.26-.58v0a0.44,0.44,0,0,1-.17-0.4v0l-0.41-.39a1.85,1.85,0,0,0,.15-0.26l0.16,0,0,0c0.19-.34.25-0.41,0.25-0.41h0.07v-0.07a1.11,1.11,0,0,0,0-.56c0-.12,0-0.24,0-0.36v-0.07l-0.07,0-0.18-.08v0l0,0a9.2,9.2,0,0,1-.79-1,0.55,0.55,0,0,0-.11-0.38l0,0a5.55,5.55,0,0,1-.53-0.71,3.35,3.35,0,0,0-1-1.11h-0.15v-0.09l-0.09,0,0-.36-0.56-.43a0.34,0.34,0,0,0-.25-0.16h0l-0.43-.18,0-.6a9.77,9.77,0,0,1-.08-1.59v-0.11l-0.08,0a0.68,0.68,0,0,0,0-.49v-0.28l-0.1,0v-0.32H173v-0.22l-0.1,0v-0.55l-0.15,0a0.59,0.59,0,0,0-.26-0.28c-0.15-.12-0.29-0.26-0.43-0.39a3.9,3.9,0,0,0-1-.75l-0.05-.18c-9.54-.11-19.28-0.65-29-1.62a329.9,329.9,0,0,1-43.2-7.19,2.59,2.59,0,0,1-.44,1.55v0l0.06,0.24c-0.19.59-.3,0.89-1.88,3.2v0a2.29,2.29,0,0,0-.07.31H95.83l-0.11.7c0,0.15-.07.18-0.07,0.18l-0.1,0,0.15,0.53a0.66,0.66,0,0,0-.06.47l-0.38.43,0.07,0.24L95,151.2l0.07,0.24a1.46,1.46,0,0,0,.05.84l-0.06.57a0.69,0.69,0,0,0-.06.31l-0.1,0L95,153.52H94.92L95,153.76l-0.09,0L95,154.11l-0.1,0L95,154.54l-0.11.57a0.18,0.18,0,0,1-.14.11H94.73v0.06a0.88,0.88,0,0,1,0,.18l-0.09,0,0.07,0.22H94.58v0.09c0.06,0.35.09,0.5,0.11,0.59H94.61l0.14,0.67a1.12,1.12,0,0,0,0,.67l-0.08.61a0.63,0.63,0,0,1-.11.39H94.53v0.06a1.62,1.62,0,0,1-.09.3l-0.11,0,0.33,0.64H94.58L94.66,160l-0.1,0,0.3,0.63a0.31,0.31,0,0,0,.25.25l0.37,0.5,0,0a1.14,1.14,0,0,1,.43.41l0,0.07H96l0,0.57,0,0a0.34,0.34,0,0,0,.18.15l0.29,0.47a2.61,2.61,0,0,0,.23,1.06l0,0.07,0.11,0a1.32,1.32,0,0,0,.32.37l0.14,0.33h0.08a11.3,11.3,0,0,0,1,2.25c0.09,0.19.13,0.3,0.15,0.35h0l0.14,0.3H98.59l0,0.11,0.14,0.3H98.7l0.09,0.2H98.71L99,169.19a1,1,0,0,0,.25.41L99.46,170h0l0.06,0.68c-0.07.15-.1,0.18-0.09,0.18l-0.1,0,0.18,0.54a0.28,0.28,0,0,1-.11.08l-0.23,0,0.19,0.13a5.14,5.14,0,0,1,1,1,7.76,7.76,0,0,0,.68.74l0,0.09-0.12,0,0.43,0.6,0,0a1.7,1.7,0,0,1,.25.17,0.36,0.36,0,0,0,0,.34v0h0a6,6,0,0,1,.93.72l0,0a0.85,0.85,0,0,0,.44.06l0.1,0.19,0.33-.06,0.29,0.41a0.38,0.38,0,0,0,.23.31l0.51,0.19,0.12,0.21,0.27,0,0.5,0.41h0a0.67,0.67,0,0,0,.2.35l0.11,0.2,0.1,0,0.2,0.22,0,0a2.18,2.18,0,0,1,.8.81l0,0.06,0.16,0,0.23,0.39,0,0,0.59,0.1,0.26,0.45v0l-0.12,0,0.13,0.13a0.8,0.8,0,0,0,.35.26,3.08,3.08,0,0,1,.4.29l-0.08,0-0.13,0,0.14,0.24,0.58,0.09,0.26,0.44-0.15,0,0.17,0.19,0,0,0.07,0.08,0.08,0h0l0.07,0.11,0.27,0,0-.06a3.22,3.22,0,0,1,.51.43l0,0h0a0.54,0.54,0,0,0,.26,0,1.08,1.08,0,0,0,.65.08l0.49,0.3a0.92,0.92,0,0,1,.26.25v0h0a0.84,0.84,0,0,1,.4.26l0,0.05,0.11,0a0.65,0.65,0,0,0,.42.11,28.23,28.23,0,0,1,3.13,1.63h0l0.36-.06,0,0.05,0.65,0.29,0,0a2,2,0,0,0,1.44-1.49l1.6-.27,0,0.07h0a2,2,0,0,1,.35.06l0,0.06,0.22,0a3,3,0,0,0,1.18,0l0.12,0-0.06-.12A1.32,1.32,0,0,0,123,183l0.22,0,0-.08,0.25,0,0-.08,0.44-.07,0,0c0.11-.25.17-0.26,0.24-0.27l0.12,0,0-.08,0.17,0,0-.08,0.94-.16,0-.08,0.26,0,0,0a0.69,0.69,0,0,1,.48-0.25l0.14,0-0.38-.55,0.09,0a0.79,0.79,0,0,1,.2.19l0,0.07,0.37-.06a0.32,0.32,0,0,0,0,.11l0,0.11,0.09-.07a2.18,2.18,0,0,1,.33-0.23l0.11,0L127,181a0.13,0.13,0,0,0,.11-0.05l0.25,0,0,0a1.73,1.73,0,0,1,.78-0.74h0l0,0a0.27,0.27,0,0,1,.23-0.19l0.11,0,0-.09,0.09,0,0.1,0.26,1.31-.22c0.3,0.16.73,0.37,1.08,0.52a0.38,0.38,0,0,1,.31.27l0,0.07,0.2,0a1.6,1.6,0,0,1,.31.92v0.11l0.13,0,0.09,0.25,0.09,0,0,0.14,0.56,0.26,0.07,0.21,0.72-.2h0a0.35,0.35,0,0,0,.21-0.24,0.78,0.78,0,0,0,.48-0.17,0.36,0.36,0,0,0,.32-0.26,0.78,0.78,0,0,1,.33-0.2l0,0.08h0.08l0.09,0.25,0.36-.06-0.08-.25,0.62-.05h0l0.08,0.54,0.72,0.11,0,0,0.1-.1v0a1,1,0,0,0,.23.45l0.09,0.32,0,0a0.29,0.29,0,0,1,.2.17l0,0.08,0.1,0a2.14,2.14,0,0,1,.09.23h0l0.1,0.33h-0.09l0.2,0.66,0.12,0.63v0H138v0.07a2.15,2.15,0,0,0,.48,1.67l-0.47.08,0.11,0.33,0.11,0a0.63,0.63,0,0,1,.08.13h0l-0.11,0,0,0.1a4,4,0,0,1,.23,1.13l-0.35.06,0.16,0.47h0.08l0,0.07,0.28,0,0.46,0.27a0.32,0.32,0,0,0,.18.22l-0.45.08,0.7,0.48,0.06,0.19,0.2,0,0.48,0.3a1.17,1.17,0,0,0,.49.22l0.36,0.36a0.31,0.31,0,0,0,.1.2l0,0.13,0.57,0.25a1.4,1.4,0,0,0,.45.27l0.06,0.22,0.16,0,0.31,0.52,0.12,0,0,0.14,0.15,0,0,0.11a0.38,0.38,0,0,0,0,.34h0l0,0.09,0,0a0.84,0.84,0,0,0,.46.38l0.34,0-0.36.06,0.12,0.25a0.27,0.27,0,0,0,.1.09l0,0.15H144l0.05,0.19,0.09,0a0.47,0.47,0,0,0,.29.33l0,0.16h0.08l0.21,0.53,0.14,0,0,0.08,0,0.08H145l0,0.2h0a0.2,0.2,0,0,0,.11.14l0.06,0.09,0.09,0.07-0.12.11,0,0.07c0.06,0.1.07,0.11,0,.21l0,0,0.15,0.36h0l0.11,0.41h0.06l0.06,0.23h0a0.34,0.34,0,0,0,.24.39,0.56,0.56,0,0,1,0,.13V198l0.13,0c0,0.06,0,.11.05,0.17l0,0.08h0.06l0.1,0.38h0.05l0.1,0.53h-0.06l0.07,0.26h0v0.07a1.42,1.42,0,0,1,0,.2l-0.15,0,0,0.09-0.09.07,0.08,0.27,0,0-0.08.18-0.15,0,0,0.09,0.09,0.4-0.13,0,0.05,0.11,0.19,0.41a0.32,0.32,0,0,0,0,.38h0V202h-0.08v0.08c0,0.07,0,.17,0,0.23h-0.07l0,0.1a0.94,0.94,0,0,0,.17.29,0.52,0.52,0,0,1,.16.37v0l0.15,0.35h-0.05l0.06,0.11,0.26,0.48,0,0h0a0.94,0.94,0,0,1,.36.19,1.18,1.18,0,0,0,.37.2,0.63,0.63,0,0,1,.06.19h0a0.17,0.17,0,0,0,.06.09l0.05,0.13h0l0.14,0.25h0l0.06,0,0,0.07H148a0.55,0.55,0,0,0,.29.2l0.07,0.06,0,0.08a0.21,0.21,0,0,0,.11.17l0.11,0.11,0.1,0.1,0,0.09a0.27,0.27,0,0,0,.07.15,0.58,0.58,0,0,0,0,.13h0l0.17,0.34v0.07l0,0,0,0,0.07,0.09,0,0.08a0.76,0.76,0,0,1,.06.22v0l0,0,0,0,0,0.07,0.05,0.14,0,0,0,0,0.08,0.13,0,0,0,0a0.37,0.37,0,0,0,.1.07l0.07,0,0,0.07,0,0a0.43,0.43,0,0,0,0,.08,0.11,0.11,0,0,0,0,.11h0l0,0.06,0.23,0,0.12,0c0.2,0,.3-0.07.65-0.18l0.15-.06,0.14,0h0c0.64-.24.64-0.24,0.76-0.3l0.07,0,0.1-.05,0.08,0,0.06,0a5.79,5.79,0,0,0,.63-0.34h0l0.24-.16h0a1,1,0,0,0,.21-0.17l0.08-.07,0.28-.16,0.29-.11,0.11-.05,0.08,0h0l0,0h0.08l0.14-.06,0.14-.08,0.05,0,0.06,0a4.25,4.25,0,0,0,.4-0.25l0,0h0l0.18-.15h0l0.15-.13h0l0.31-.26,0.25-.21h0l0.14-.13h0v0l0.29-.28h0l0.07-.07h0l0.17-.18h0l0.07-.07h0L157,204l0,0v-0.05a1.4,1.4,0,0,1,.78-0.84,0.69,0.69,0,0,0,.12-0.11c0.12-.08.24-0.17,0.34-0.25a3.32,3.32,0,0,1,.37-0.27l0,0,0.27-.34h0L159,202l0.25,0,0,0,0.17-.08,0.24,0,0.08-.11a3.21,3.21,0,0,0,.33-0.18,2.13,2.13,0,0,1,.46-0.23l0.08-.05h0.08l0,0,0.11,0,0-.07a2.17,2.17,0,0,0,.45-0.34,0.25,0.25,0,0,1,.11,0h0l0.19-.16h0l0.28-.32a2.4,2.4,0,0,0,.45-0.33l0.1-.09,0,0,0.14-.22,0,0a1.75,1.75,0,0,0,.46-0.61,2.86,2.86,0,0,1,.22-0.35l0.06-.07h0l0.08-.11h0l0,0,0.33-.5h0l0.11-.07,0,0a0.2,0.2,0,0,0,0-.09l0.16-.24h-0.06l0.21-.38h0l0.28-.44h0l0.3-.5,0.1-.17h0l0.15-.19-0.11,0,0.16-.33,0.07-.16h0l0-.06,0.06-.06h0l0,0,0.24-.45,0.09-.16-0.15,0a0.41,0.41,0,0,0-.12-0.46l0.07-.19v0a0.16,0.16,0,0,0,0-.05l0.25-.53,0.07-.16H166l0.18-.38,0.07-.16h-0.06a3.3,3.3,0,0,1,.32-0.48,1.91,1.91,0,0,0,.48-1v0a0.32,0.32,0,0,0-.06-0.09v-0.11l-0.11-.07a1,1,0,0,0,0-.26l0,0,0,0,0.14-.49,0-.09a0.6,0.6,0,0,0,.12-0.16h0.07l0.11-.3h0.05l0,0a3.87,3.87,0,0,1,.24-0.42h0l0.31-.54a5.1,5.1,0,0,0,.4-0.57h0.07l0.15-.61a1.66,1.66,0,0,0,.19-0.39l0.12,0,0,0a7,7,0,0,1,.81-1l0.27,0,0.34-.49a1.11,1.11,0,0,0,.27-0.37h0.07l0-.1,0.49-.29v0a3.62,3.62,0,0,1,.21-0.41h0l0.12-.36a1.53,1.53,0,0,0,.5-0.72,1,1,0,0,0,.31-0.37l0.31-.47a2.15,2.15,0,0,0,.48-0.59h0l0,0a0.41,0.41,0,0,1,.21-0.18h0l0,0a10.82,10.82,0,0,1,.77-0.89,0.16,0.16,0,0,1,.08-0.05h0l0,0a3,3,0,0,0,.44-0.55h0l0,0a0.82,0.82,0,0,1,.31-0.28h0l0,0a0.4,0.4,0,0,1,.21-0.18h0l0.47-.39a0.4,0.4,0,0,0,.2-0.17,0.71,0.71,0,0,0,.22-0.29l1-1a2,2,0,0,0,.43-0.6,0.78,0.78,0,0,0,.34-0.24l0.47-.43v0l0.16-.53,0.44-.37a0.39,0.39,0,0,0,.21-0.19l0.36-.57a0.89,0.89,0,0,0,.23-0.29H180l0.07-.23,0.18-.2,0.07-.21a7.43,7.43,0,0,0,1.21-2.12l0-.07h0.05l0.24-.64,0-.06H182l0.08-.29h0.07l0,0a7.23,7.23,0,0,1,.58-1.13l0.24-.54a1.5,1.5,0,0,0,.41-0.61,4.55,4.55,0,0,0,1.09-2.21l0-.08h0.06l0-.06,0.1-.45,0.09,0,0-.19h0.07v-0.06l0.12-.55h0.08v-0.06c0.1-.46.2-0.92,0.29-1.39l0.1,0,0-.85Zm-43.88,4.33a0.29,0.29,0,0,1-.27-0.13,0.33,0.33,0,0,0-.33-0.09,1.26,1.26,0,0,0-.25.08l-0.18.11a0.48,0.48,0,0,1-.29.13,0.76,0.76,0,0,1-.22-0.09,0.21,0.21,0,0,1,0-.07,0.46,0.46,0,0,0-.05-0.1l0,0H139.7l0-.24,0,0,0,0,0.31,0,0,0.12,0.36-.06,0.14,0.17h0a0.46,0.46,0,0,0,.32-0.11,0.49,0.49,0,0,1,.35-0.13l0,0.1h0.07l0.28,0,0,0.25-0.11,0v0.07Zm16.19,28.22h0l0,0-0.06,0-0.09.09a0.56,0.56,0,0,0-.07.12h0l0,0a0.3,0.3,0,0,1,.19-0.27l0.15-.08Zm5.5-13.14,0.07-.11,0-.07,0.15,0v0.08h0.08l0,0.23a0.31,0.31,0,0,1-.14,0,0.42,0.42,0,0,0-.17,0h0Zm-1.22,0H162l0,0a1,1,0,0,0,.18-0.31l0,0.24a2.36,2.36,0,0,0-.32.3Zm-0.39.46a1.23,1.23,0,0,1,.11-0.16l0.14,0a3.66,3.66,0,0,0-.3.44h0l0,0,0,0v0Zm-2,3.11,0.24-.12,0-.22h0.06l0.1-.26,0.22,0v0.09a4.54,4.54,0,0,0-.5.68h0a0.23,0.23,0,0,0-.09-0.09v0Zm-0.28,1.21v0h0.15l0,0.1,0,0.07h0l0,0.23h0l-0.07.15-0.07.16-0.28.09A1.27,1.27,0,0,1,159.23,186.18Zm0.4,6.32-0.24-.23a0.27,0.27,0,0,0-.16-0.12l0-.09,0,0h0a3,3,0,0,1,0-.38v0a0.22,0.22,0,0,0-.05-0.07l0-.28-0.12,0,0-.2h0l0.15-.44a0.87,0.87,0,0,0,0-.42l0-.29h-0.07l0-.15H159.1l0.12-.46v0a3,3,0,0,1,0-.34h0l0.12-.66c0.36,0.46.38,0.63,0,2.08-0.12.54-.14,0.66-0.16,0.77l0,0.24,0.35,0.07h0v0.05l0.11,0,0,0.19,0.13,0,0,0.08h0a0.41,0.41,0,0,0,.16.06l0,0.08h0a3.36,3.36,0,0,0-.22.66Zm0.66,1.19h0l0,0.05-0.1,0,0-.14-0.15,0a0.51,0.51,0,0,0-.3.13c0-.05,0-0.12.07-0.22v-0.05a0.15,0.15,0,0,0,0-.06l0-.19h-0.06l0.08-.34h-0.09v-0.23l0.13,0a0.82,0.82,0,0,1,0,.17v0a0.26,0.26,0,0,0,.07.09v0.08l0,0a0.22,0.22,0,0,0,.09.08l-0.07.27,0.2,0a0.57,0.57,0,0,1,.06.15h0Zm0.52,3.51,0,0.08,0.08,0-0.09.2h0l-0.07.14h0l0,0a0.22,0.22,0,0,0,0,.14v0l-0.06.12-0.07.15,0,0,0,0c0.29-.55.34-0.63,0.26-0.7a1.88,1.88,0,0,1,.25-0.45l0.05-.08Zm0.87-1.95-0.08.16,0.1,0v0h0l0,0.13h-0.06l0,0-0.28.8h0l0,0-0.17.34-0.1,0-0.06,0,0.05-.08H161l0.13-.33,0.1-.06,0,0v0l0.15-.37,0.06-.15h-0.05c0.1-.26.2-0.52,0.3-0.79l0.06-.15h-0.07l0-.2v0l0,0.08,0.08,0,0.11,0.08ZM165,183.89a0.74,0.74,0,0,1-.23.49,0.68,0.68,0,0,0-.26.51,0.91,0.91,0,0,1-.22.61l-0.29.17,0,0,0,0.07H163.5l-0.1,0,0,0.11c0,0.06,0,.13,0,0.19v0.08h0.48v0H164v-0.1a0.13,0.13,0,0,1,0,0,0.29,0.29,0,0,0,0-.09l0,0h0l0.15,0h0l0,0,0.07,0.28,0.27,0-0.05.12a1.49,1.49,0,0,0-.53.1l0,0v0a1,1,0,0,1-.07.15l0,0.07-0.32-.07-0.52-.11-0.12,0,0,0.28-0.45.22v0.06a0.35,0.35,0,0,0,0,.21l-0.1,0v-0.09l0,0-0.11-.07,0.12-.2-0.13,0-0.09,0,0.07-.14,0,0,0,0a0.17,0.17,0,0,0-.11-0.07,0.11,0.11,0,0,1,0-.09h0.08l0-.23h0.06l0,0a0.72,0.72,0,0,0,0-.21,0.61,0.61,0,0,1,0-.17,0.41,0.41,0,0,1,.15-0.17l0,0v-0.05a0.69,0.69,0,0,0-.16-0.28,0.51,0.51,0,0,1-.12-0.21v0a1.17,1.17,0,0,0,.3-0.56,0.43,0.43,0,0,0-.08-0.33,0.65,0.65,0,0,1,.08-0.23l0.1,0,0-.28,0.38-.29,0,0v0h0.43l0-.06a0.06,0.06,0,0,1,.06,0h0l0,0.08,0,0.07,0.42-.07,0-.05,0.13-.38h0.07v0l0,0,0,0.17,0.23,0,0,0.14-0.1,0v0.08a0.3,0.3,0,0,0,0,.17l0,0.17,0.25,0a0.32,0.32,0,0,0,.08.23l0,0.13h0.1a0.31,0.31,0,0,0,.28-0.13Zm3-4.76c-0.09,0-.09-0.06-0.08-0.19a0.64,0.64,0,0,0,0-.39,1.07,1.07,0,0,0-.28-0.27l-0.1-.08,0.05-.34-0.15,0,0.13-.45,0.09,0,0.08-.55,0-.24,0.1,0,0,0-0.06.41,0,0.13h0.08l0,0.18h0.06l-0.16.6,0,0.14,0.13,0,0.06,0.41v0l0,0,0.16,0.1Zm2.22-13.42,0,0v0a1.13,1.13,0,0,1-.21-0.09l-0.14-.07,0-.38,0.63-.18A1.11,1.11,0,0,1,170.25,165.71Z" transform="translate(-1.36 -2.69)"/><path class="cls-11" d="M206.38,150.13l0,0.13h0.05l-0.15.65,0,0.13h0.05l-0.11.45h0.05l-0.11.45h0l-0.06.23h0.06l-0.05.29a0.69,0.69,0,0,0,0,.27L206,153h0.05l-0.06.22h0.05l-0.06.22h0l-0.09.33h0l-0.09.33H206l-0.09.33h0l-0.12.42,0,0.14h0.06l-0.21.84,0,0.13h0l-0.26.84,0,0.14h0l-0.11.33h0l-0.07.22h0.06l-0.09.33a0.93,0.93,0,0,0,0,.31l-0.06.17v0a2.33,2.33,0,0,1-.06.78l0,0.14h0l0,0.07,0,0.42a0.28,0.28,0,0,0,0,.14,5.65,5.65,0,0,0-.3,1.31,1,1,0,0,1-.06.37l-0.06.15h0.06l-0.08.23-0.17.21h0l-0.07.17c0,0.24-.1.57-0.13,0.81v0.11l0,0.07v0.21l-0.15.35h0l-0.09.21h0l0,0.06v0a0.48,0.48,0,0,1,0,.25l-0.07.15h0l0,0.08v0c0,0.19.12,0.26,0.25,0.24h0l0.06-.13,0.32-.35a5.91,5.91,0,0,0,.33-0.62l0.28-.28a2.23,2.23,0,0,0,.3-0.47h0l0.1-.24,0.18-.24,0.08-.2,0.28-.35,0.21-.38,0.19,0,0,0a7.51,7.51,0,0,0,.35-0.76l0.06-.15h0l0.08-.21h0l0.36-.92,0-.1a34.14,34.14,0,0,0,1.65-4.17c0.25-.74.38-1.12,0.64-1.95h0l0.07-.22h0.05l0.05-.45c0.07-.27.14-0.51,0.21-0.75l0-.16,0.21-.35a1.6,1.6,0,0,0,.1-0.2,5.44,5.44,0,0,0,1.09-1.17l0,0c0.15-.37.21-0.54,0.25-0.67q-2.62.35-5.29,0.65Z" transform="translate(-1.36 -2.69)"/><path class="cls-11" d="M175.79,152.17a2.44,2.44,0,0,0,.46,1,0.71,0.71,0,0,0,.18.18v0.3l0,0a0.53,0.53,0,0,1,.23.43v0l0.41,0.44a6,6,0,0,1,.11,1.86h-0.09v0.22a1.71,1.71,0,0,1,.11.88c-0.15.3-.16,0.36-0.12,0.41h0l0,0.61h0a0.22,0.22,0,0,0,.08.12l0,0.25h0.08l-0.11.48,0,0a0.45,0.45,0,0,1,.12.31v0a2.81,2.81,0,0,1,0,1.19l0,0.13,0.12,0,0,0.6h0.08l1.26,0.09h0l0,0a0.79,0.79,0,0,1,.49-0.27h0.07v-0.1l0.23,0,0.34-.62a0.64,0.64,0,0,1,.4-0.22h0.07v-0.12l0.51-.16h0.07v0.07l0.53-.09,0-.13,0.41-.34a0.44,0.44,0,0,1,.16,0h0l0,0a1.86,1.86,0,0,0,.42-0.58l0.41-.14a0.08,0.08,0,0,0,.1.06h0.05l0-.05,0-.06,0.48-.08,0.3-.53a2.75,2.75,0,0,0,.41-0.43l0.15,0,0,0a0.58,0.58,0,0,1,.39-0.26h0.07v-0.12l0.53-.31V157l0.24,0v-0.11l0.16,0,0-.11,0.21,0,0,0a3.6,3.6,0,0,0,.39-0.47l0.13,0,0,0a7.35,7.35,0,0,0,.89-1,0.38,0.38,0,0,1,.27-0.2h0.06v-0.11l0.11,0,0-.09a1,1,0,0,0-.1-0.32h0.07v-0.07l0.05-.41a1.35,1.35,0,0,1,.45-0.36h0.07v-0.11l0.28,0,0.49-.46a0.81,0.81,0,0,0,.52-0.38,1.19,1.19,0,0,0,.42-0.28l0.46-.08,0,0a0.39,0.39,0,0,1,.2-0.22h0.07l0-.16a1.2,1.2,0,0,0,.23-0.57l0,0q-7.82.44-15.92,0.47A3.5,3.5,0,0,1,175.79,152.17Z" transform="translate(-1.36 -2.69)"/><path class="cls-11" d="M100.58,85.72l-0.26,0,0,0a1.74,1.74,0,0,0-.14.55v0.12l0.37-.06Z" transform="translate(-1.36 -2.69)"/><path class="cls-11" d="M121.5,83.69l-0.26,0v0.06l-0.21,1,0,0.18,0.17-.08,0,0,0.1,0a0.23,0.23,0,0,0,.07-0.07l0.15,0,0-.3,0.11,0Z" transform="translate(-1.36 -2.69)"/><path class="cls-11" d="M126.65,82.66a0.68,0.68,0,0,1,.24.17l0,0,0.05,0a1.26,1.26,0,0,0,.4-0.17l0.09-.05,0-.07a0.73,0.73,0,0,0-.31-0.45,1.69,1.69,0,0,0-.71-0.16l-0.13,0,0,0.19a1,1,0,0,0,.14.42A0.42,0.42,0,0,0,126.65,82.66Z" transform="translate(-1.36 -2.69)"/><path class="cls-11" d="M134.45,74.71l0.12,0A0.52,0.52,0,0,0,135,75l0.08,0v0l-0.23,0L135,75.48l0.25,0V75.37l0-.23V75h0l0,0a0.48,0.48,0,0,0,0-.12,0.13,0.13,0,0,1,0-.07h0a1.64,1.64,0,0,1,.55-0.15H136V74.57a1.51,1.51,0,0,1,.11-0.41,1.44,1.44,0,0,0,.12-0.5V73.48h-0.1l-1,.07H135l0,0.1-0.19,0,0,0.13a0.47,0.47,0,0,1-.21.14,0.27,0.27,0,0,1-.21-0.09l0,0-0.23,0Z" transform="translate(-1.36 -2.69)"/><path class="cls-11" d="M130.67,76.41l0,0-0.11.37-0.13.43-0.24,0,0,0.1a1.78,1.78,0,0,0,.22.59,1.21,1.21,0,0,0,.18.2,0.46,0.46,0,0,0,.14.08l0.08,0v0a0.25,0.25,0,0,0,0,.09,0.18,0.18,0,0,0,.08.06h0l0.12,0.07,0-.14a0.92,0.92,0,0,0,0-.12,0.32,0.32,0,0,1,0-.15,0.46,0.46,0,0,1,.14-0.13l0.1-.08,0,0,0-.18,0.19-.13-0.18-.42h0V77.08a1.59,1.59,0,0,0,.06-0.75l0.22-.11,0.06,0-0.07-.34-0.46.08,0,0.36h0a0.53,0.53,0,0,0-.32,0h0v0A0.24,0.24,0,0,1,130.67,76.41Z" transform="translate(-1.36 -2.69)"/><path class="cls-11" d="M123.75,84v0a0.29,0.29,0,0,1,.14-0.27l0,0,0-.26-0.21.06-0.72.21-0.07,0v0.1l-0.34.14-0.06,0V84a0.78,0.78,0,0,1-.31,0,1.33,1.33,0,0,0-.46,0h-0.15l0.07,0.13,0.09,0.17h-0.09l0,0.1a0.91,0.91,0,0,0,.13.31,0.84,0.84,0,0,0,.17.17L122.1,85l0,0,0.06,0,0.41-.17,0.06,0V84.68a0.44,0.44,0,0,1,.2,0,0.23,0.23,0,0,0,.14,0l0.09,0V84.65l0-.17A2,2,0,0,1,123.7,84Z" transform="translate(-1.36 -2.69)"/><path class="cls-11" d="M114.57,88.47l0.18-.06,0.54-.19,0.06,0,0-.4-0.69.26v0.09l-0.1,0Z" transform="translate(-1.36 -2.69)"/><path class="cls-11" d="M121.07,82.35c0.09,0.37.15,0.46,0.47,0.49l0.07,0.62v0.1l0.57-.1,0.08-.21h0.06v0.1l0.11,0,0,0.4,0.49-.08V83.54l0.11,0,0-.31,0.46-.33,0.13-.09V82.71c-0.09-.35-0.15-0.45-0.42-0.48a0.63,0.63,0,0,1,.19-0.2l0,0v0a3,3,0,0,0-.24-1.08l0-.07-0.17,0-0.62.19-0.07,0v0.09l-0.1,0,0.06,0.51,0,0a0.23,0.23,0,0,0,.11.06v0l-0.05.25h-0.07l-0.15-.39-0.59.21-0.06,0,0,0.27-0.42.07Z" transform="translate(-1.36 -2.69)"/><path class="cls-11" d="M167.36,190a0.34,0.34,0,0,0-.09-0.23l-0.1-.1-0.09.23H167l-0.1.27h0l-0.08.12,0.06,0.05,0,0v0.14l0.26,0,0-.1a0.38,0.38,0,0,0,.1-0.13l0-.07,0,0A0.24,0.24,0,0,1,167.36,190Z" transform="translate(-1.36 -2.69)"/></g><g id="Bottom_Shape" data-name="Bottom Shape"><path id="Bottom_Shape-2" data-name="Bottom Shape" class="cls-12" d="M208.89,173.85A87.16,87.16,0,0,1,50.3,126.37l-2.13-1C36,119.53,25.64,113.05,17.46,106.08a121.27,121.27,0,0,0,230.23,68.33q2-4.44,3.68-9A180.46,180.46,0,0,1,229,171C222.6,172.22,215.88,173.17,208.89,173.85Z" transform="translate(-1.36 -2.69)"/></g><g id="Shade" class="cls-13"><g id="Shade_Upper_Bottom" data-name="Shade Upper Bottom"><path class="cls-14" d="M226.36,103.71a91.31,91.31,0,0,0-88.95-70.95A91.33,91.33,0,0,0,57.18,80.63L56.43,82,55,81.29a87.63,87.63,0,0,1-19.28-13l-0.93-.87,0.63-1.11A117.17,117.17,0,0,1,247.22,83.1a118.93,118.93,0,0,1,3.71,11.81l0.32,1.23-1.11.6a99.15,99.15,0,0,1-21.79,8.18l-1.61.42Z" transform="translate(-1.36 -2.69)"/></g><g id="Shade_Bottom" data-name="Shade Bottom"><path class="cls-15" d="M137.36,241.23A117.42,117.42,0,0,1,27.62,164.9a118.3,118.3,0,0,1-7.19-48.18l0.18-2.89L23,115.5a159.92,159.92,0,0,0,22.5,13.1L46.33,129,46.39,130a91.23,91.23,0,0,0,164.34,48.34l0.42-.57,0.7-.08C218,177,224,176.11,229.73,175c3.9-.73,7.74-1.56,11.41-2.46l3.33-.82L243,174.85A117.49,117.49,0,0,1,137.36,241.23Z" transform="translate(-1.36 -2.69)"/></g></g><g id="Shade_Swoosh" data-name="Shade Swoosh"><path id="Shade_Swoosh-2" data-name="Shade Swoosh" class="cls-16" d="M149.34,129.56c-33.73-2.38-64.46-9.87-88.15-20.37-12.38-5.49-22.84-11.8-30.79-18.64C19.22,80.94,13,70.29,13.31,59.43c0.28-9.27,5.31-17.71,14.05-25C11.67,43,2.16,54.15,1.41,67.07,0.74,78.49,7,89.88,18.47,100.34c8.17,7.43,19,14.39,31.86,20.54,24.62,11.77,56.75,20.57,92.18,24.09,29.36,2.92,56.89,1.79,80.09-2.53a158.13,158.13,0,0,0,35.89-10.76,119.67,119.67,0,0,0-.17-17.51,151.45,151.45,0,0,1-33,10.82C203.39,129.72,177.29,131.53,149.34,129.56Z" transform="translate(-1.36 -2.69)"/></g></g><text class="cls-17" transform="translate(288.71 234.77)">Tu envio al mejor precio</text></g></g></svg>