<?xml version="1.0" encoding="utf-8"?>
<!-- Generator: Adobe Illustrator 19.2.1, SVG Export Plug-In . SVG Version: 6.00 Build 0)  -->
<svg version="1.1" id="Layer" xmlns="http://www.w3.org/2000/svg" xmlns:xlink="http://www.w3.org/1999/xlink" x="0px" y="0px"
	 viewBox="0 0 144 171.4" style="enable-background:new 0 0 144 171.4;" xml:space="preserve">
<style type="text/css">
	.st0{fill:none;}
	.st1{fill:#FEBE10;}
	.st2{fill:#371400;}
</style>
<g>
	<rect x="-59.4" y="-59.4" class="st0" width="262.8" height="290.2"/>
	<path class="st1" d="M72,171.4c-4.5-1.9-40.9-17.8-52.6-27.5C6.7,133.5,0,118.6,0,100.8V16C20,5.4,44.2,0,72,0c27.8,0,52,5.4,72,16
		v84.8c0,17.8-6.7,32.8-19.4,43.1C113.1,153.4,76.2,169.6,72,171.4z M111.7,162c1.1,0,1.5,0.7,1.5,1.3c0,0.6-0.4,1-1,1.2
		c0.1,0.2,1.3,1.9,1.3,1.9h-1c0,0-1.1-1.8-1.2-1.8c0,0-0.1,0-0.1,0c0,0.2,0,1.8,0,1.8h-0.8V162H111.7z M111.3,162.6
		c0,0.2,0,1.1,0,1.3c0,0,0.1,0,0.1,0c0.9,0,1-0.3,1-0.7c0-0.3-0.1-0.6-0.8-0.6C111.6,162.6,111.4,162.6,111.3,162.6z M111.8,161.2
		c-1.6,0-3,1.3-3,3c0,1.6,1.3,3,3,3c1.7,0,3-1.3,3-3C114.7,162.5,113.4,161.2,111.8,161.2z M115.4,164.2c0,2-1.6,3.6-3.6,3.6
		c-2,0-3.6-1.6-3.6-3.6c0-2,1.6-3.6,3.6-3.6C113.8,160.5,115.4,162.2,115.4,164.2z"/>
	<path class="st2" d="M6.6,100.8c0,15.8,5.8,29,16.9,38c9.8,8,40,21.6,48.5,25.4c8.4-3.7,38.5-17.2,48.4-25.4
		c11.2-9.2,17-22.1,17-38v-83C95.5,13.9,45.9,16.3,6.6,52.3V100.8z M13,95.7V56.3h12.5v39.9c0,3.6,0.9,8.8,6.6,8.8
		c2.5,0,4.6-0.6,5.9-1.5V56.3h12.5v54.4c-4.8,3.3-11.2,5-18.9,5C19.3,115.7,13,109,13,95.7z M69.5,141.2H57V59.5
		c4.5-2.9,10.1-4.5,16.9-4.5c15,0,23.2,11.3,23.2,29.6c0,18.3-8,30.8-21.9,30.8c-2.6,0-4.4-0.3-5.6-0.7V141.2z M69.5,66.1
		c1-0.5,2.7-0.9,4.4-0.9c7.3,0,10.3,5.8,10.3,19.8c0,13.7-3.4,20.3-10.7,20.3c-1.7,0-3.2-0.4-4.1-0.8V66.1z M99.9,71.4
		c-0.1-10.1,8.6-16.1,16.8-16.3c6.9-0.2,11.5,2.4,13.7,4.1V70c-2.6-2.7-6.8-5.1-11.2-5.1c-3.5,0-7.2,1.5-7.4,6
		c-0.1,4.6,3.6,6.4,8.2,9.1c10.5,6.2,12.5,11.7,12.3,19c-0.2,8-5.8,16.8-18.1,16.8c-5,0-9.8-1.5-13.8-3.9v-11.5
		c3.2,2.8,8,5.1,12,5.1c4.6,0,7.6-2.6,7.5-7c-0.1-3.9-2.3-6.1-7.8-9.3C101.8,83,99.9,78.1,99.9,71.4z"/>
</g>
</svg>
