<svg xmlns="http://www.w3.org/2000/svg" xmlns:xlink="http://www.w3.org/1999/xlink" viewBox="0 0 906.52 242.63"><defs><style>.cls-11{fill:#7fbcd2}</style><linearGradient id="New_Gradient_Swatch_2" x1="333.07" y1="43.64" x2="333.07" y2="287.5" gradientUnits="userSpaceOnUse"><stop offset="0" stop-color="#0083a9"/><stop offset="1" stop-color="#000070"/></linearGradient><linearGradient id="New_Gradient_Swatch_2-2" x1="419.67" y1="43.64" x2="419.67" y2="287.5" xlink:href="#New_Gradient_Swatch_2"/><linearGradient id="New_Gradient_Swatch_2-3" x1="496.97" y1="43.64" x2="496.97" y2="287.5" xlink:href="#New_Gradient_Swatch_2"/><linearGradient id="New_Gradient_Swatch_2-4" x1="555.65" y1="43.64" x2="555.65" y2="287.5" xlink:href="#New_Gradient_Swatch_2"/><linearGradient id="New_Gradient_Swatch_2-5" x1="1024.72" y1="43.64" x2="1024.72" y2="287.51" gradientTransform="matrix(1 0 -.47 1 -426.29 0)" xlink:href="#New_Gradient_Swatch_2"/><linearGradient id="New_Gradient_Swatch_2-6" x1="610.43" y1="43.64" x2="610.43" y2="287.5" xlink:href="#New_Gradient_Swatch_2"/><linearGradient id="New_Gradient_Swatch_1" x1="787.34" y1="-47.26" x2="787.34" y2="294.96" gradientUnits="userSpaceOnUse"><stop offset="0" stop-color="#ffbe00"/><stop offset="1" stop-color="#ff3200"/></linearGradient><linearGradient id="New_Gradient_Swatch_1-2" x1="770.74" y1="-47.27" x2="770.74" y2="294.96" xlink:href="#New_Gradient_Swatch_1"/><linearGradient id="New_Gradient_Swatch_2-7" x1="97.39" y1="-19.68" x2="198.99" y2="320.92" xlink:href="#New_Gradient_Swatch_2"/><linearGradient id="New_Gradient_Swatch_1-3" x1="84.56" y1="-17.97" x2="198.18" y2="377.41" xlink:href="#New_Gradient_Swatch_1"/><linearGradient id="New_Gradient_Swatch_3" x1="117.5" y1="-54.72" x2="137.64" y2="52.97" gradientUnits="userSpaceOnUse"><stop offset="0" stop-color="#fff"/><stop offset="1" stop-color="#fff" stop-opacity="0"/></linearGradient><linearGradient id="New_Gradient_Swatch_3-2" x1="132.34" y1="274.42" x2="132.34" y2="206.75" xlink:href="#New_Gradient_Swatch_3"/><linearGradient id="New_Gradient_Swatch_3-3" x1="233.7" y1="90.53" x2="-53.9" y2="90.53" xlink:href="#New_Gradient_Swatch_3"/></defs><g style="isolation:isolate"><g id="Envia_Ya_" data-name="Envia Ya!"><g id="Envia_Ya_2" data-name="Envia Ya!"><g id="Envia"><path d="M292.07 183V82a11.76 11.76 0 0 1 11.81-11.81h70.2v19.28H315v24.28h44v7.54a11.76 11.76 0 0 1-11.81 11.81H315V162h59v21h-82z" transform="translate(-1.36 -2.69)" fill="url(#New_Gradient_Swatch_2)"/><path d="M457.72 183h-11.48a10.68 10.68 0 0 1-11.15-11.15V127.2q0-7.87-4.76-11.48a17.22 17.22 0 0 0-10.66-3.61 16.54 16.54 0 0 0-10.5 3.61q-4.6 3.61-4.59 11.48V183h-23v-51.21q0-22.31 11.64-29.85A50.91 50.91 0 0 1 419 93.73a49.38 49.38 0 0 1 26.57 7.55q12.13 7.55 12.14 30.51V183z" transform="translate(-1.36 -2.69)" fill="url(#New_Gradient_Swatch_2-2)"/><path d="M508.45 183h-23.29l-30.51-87.3h24.27l17.39 61.3 15.42-53.47q2.62-7.87 10.5-7.87h17.06z" transform="translate(-1.36 -2.69)" fill="url(#New_Gradient_Swatch_2-3)"/><path d="M544.16 95.7H556a11.2 11.2 0 0 1 11.15 11.15V183h-23V95.7z" transform="translate(-1.36 -2.69)" fill="url(#New_Gradient_Swatch_2-4)"/><path d="M583.48 62.11l-15.57 20.95a7.14 7.14 0 0 1-5.21 3.22h-15.62c-1.61 0-2.37-1.13-1.62-2.74l.22-.48 15.56-20.95a7.43 7.43 0 0 1 5.37-3.22h15.62c1.61 0 2.21 1.13 1.46 2.74z" transform="translate(-1.36 -2.69)" fill="url(#New_Gradient_Swatch_2-5)"/><path d="M631.26 179.35a40.43 40.43 0 0 1-14.6 4.43 131.5 131.5 0 0 1-13.61.82 34.38 34.38 0 0 1-20.67-6.4q-8.86-6.4-8.86-21.16 0-13.78 8-19.68t20.5-7.87A19.21 19.21 0 0 0 606 129c1.53-.33 3.28-.6 5.25-.82q14.43-2 14.43-8.53 0-4.92-5.09-6.4a33.75 33.75 0 0 0-9.35-1.48 23.94 23.94 0 0 0-8.2 1.31 8.94 8.94 0 0 0-5.24 4.92h-22a25.25 25.25 0 0 1 9.2-16.72q8.85-7.54 25.26-7.55 18.37 0 27.55 6.23 9.51 6.57 9.51 18.37v29.85q0 13.12-4.75 20.5a29.09 29.09 0 0 1-11.31 10.67zM626 139a61.82 61.82 0 0 1-12.79 4.26l-7.54 1.64q-5.9 1.64-8.53 4.26a13.37 13.37 0 0 0-2.3 7.22 10.64 10.64 0 0 0 3 7.87q3 2.63 8.53 2.63 9.18 0 14.43-5.25t5.2-14.42V139z" transform="translate(-1.36 -2.69)" fill="url(#New_Gradient_Swatch_2-6)"/></g><g id="Ya"><path d="M782.69 139.38q-5.77 1.61-8.33 4.17a13 13 0 0 0-2.25 7.05 10.41 10.41 0 0 0 2.88 7.69q2.89 2.57 8.34 2.56 9 0 14.1-5.13t5.13-14.1v-8a60.65 60.65 0 0 1-12.5 4.17z" transform="translate(-1.36 -2.69)" fill="url(#New_Gradient_Swatch_1)"/><path d="M906.86 186.45L883.3 81c-4.55-17.46-22.92-33.56-40.82-35.79L659.91 22.84c-17.9-2.23-29.41 10.38-25.57 28L677 186.14c3.84 17.62 21.74 32 39.78 32h165.55c18.04.05 29.08-14.24 24.53-31.69zm-180-9.88h-22.77v-41L664 66.29h27.89l23.4 47.44 18.91-41q3.2-6.41 10.58-6.41h18.27l-36.22 69.24v41zm96.55-34q0 12.82-4.65 20A28.43 28.43 0 0 1 807.7 173a39.5 39.5 0 0 1-14.26 4.33 128.35 128.35 0 0 1-13.3.8 33.58 33.58 0 0 1-20.19-6.25q-8.66-6.25-8.66-20.68 0-13.46 7.85-19.23t20-7.69a18.83 18.83 0 0 0 3.85-.48 51.68 51.68 0 0 1 5.13-.8q14.1-1.92 14.11-8.34 0-4.81-5-6.25a33 33 0 0 0-9.14-1.44 23.45 23.45 0 0 0-8 1.28 8.76 8.76 0 0 0-5.13 4.81h-21.44a24.7 24.7 0 0 1 9-16.35q8.65-7.37 24.68-7.37 17.94 0 26.93 6.09 9.29 6.41 9.3 18v29.17zm32.25 34h-22.12v-22.12h13.79q8.34 0 8.34 8.33v13.79zm-3.53-31.09h-15.07l-3.85-79.18h11.22A11.49 11.49 0 0 1 856 77.83z" transform="translate(-1.36 -2.69)" fill="url(#New_Gradient_Swatch_1-2)"/></g></g><g id="Logo"><g id="Upper_Shape" data-name="Upper Shape"><path id="Upper_Shape-2" data-name="Upper Shape" d="M255.89 98.1A123 123 0 0 0 251 81.68 121.24 121.24 0 0 0 29.83 68.13q.59.65 1.22 1.31c6.1 6.29 15.53 12.53 27.27 18a87.16 87.16 0 0 1 165.16 22.8c-22.39 4.95-51 6.43-81.91 3.36-33.21-3.3-63.13-11.25-85.22-21.58C44 86.28 34.13 79.77 27.47 72.91 21 66.21 17.57 59.19 18 52.2c.44-7.56 5.31-14.29 13.62-19.89C13.38 41.08 2.23 53 1.41 67.07.74 78.49 7 89.88 18.47 100.34c8.17 7.43 19 14.39 31.86 20.54 24.62 11.77 56.75 20.57 92.18 24.09 29.36 2.92 56.89 1.79 80.09-2.53a158.13 158.13 0 0 0 35.89-10.76 120.16 120.16 0 0 0-2.6-33.58z" transform="translate(-1.36 -2.69)" fill="url(#New_Gradient_Swatch_2-7)"/></g><g id="Globe"><path class="cls-11" d="M91.72 98.46a1.44 1.44 0 0 0-.29.55v.15h.16a.9.9 0 0 0 .61-.93v-.18h-.25a1.72 1.72 0 0 1-.23.41z" transform="translate(-1.36 -2.69)"/><path class="cls-11" d="M94.63 99.07v-.14h.12v-.1l-.08-.32v-.08h-.11v-.28a2.32 2.32 0 0 1 .68-.2v.06a.33.33 0 0 0 .36-.23h.65v-.07a3 3 0 0 0 .31-.84v-.12h-.09v-.03c.3-.16.3-.26.31-.76v-.08h-.07a1 1 0 0 0-.41 0h-.16V96H96a1 1 0 0 1-.9.55h-.06v.08h-.28v.13a1.89 1.89 0 0 1-.55.1h-.32a1.1 1.1 0 0 0-.48.19v.06l-.41.27v.41h.14a1.07 1.07 0 0 1-.11.17 1 1 0 0 1-.38.27v.55l-.65.29a2.18 2.18 0 0 0-1.15.91.74.74 0 0 1-.39.36h-.07v.07l.05.15-.13.1-.23.3v.17h.01a1.1 1.1 0 0 0-.33.88v.12l.48-.08h.07V102a.38.38 0 0 0 .33-.09v-.09l1-.17.08-.19.37-.06.08-.2h.18l.18-.33h.11v-.06a.35.35 0 0 0-.07-.37l.07-.23h.39v-.27l.32-.15h.06v-.08a1 1 0 0 0-.05-.37.66.66 0 0 0 .32-.17v-.1h.28v-.12l.47.05zm11.79-18.4h-.22v.67l.45-.08V81l-.08-.06a.26.26 0 0 0-.15-.27zm-36.69-3.16a.14.14 0 0 0 .09.08h.07l.11-.1h.1l.09-.13v-.08a.65.65 0 0 0 .06-.12l.07-.22.07-.1v-.15h-.05v-.07a.9.9 0 0 0 .11-.4.7.7 0 0 0 .17-.36v-.21l-.16.23-.23.33a.33.33 0 0 0 0 .21c-.26.41-.42.65-.28.82a.44.44 0 0 0-.22.27zm62.82-35.32h8.23v-.14L140 42h-7.51v.18h.08zM133 42zm23.93 4l-.18-.09a1.82 1.82 0 0 0-.41-.09H156V46a2.79 2.79 0 0 1 .57.28l.43.14h.22l.09-.09-.06-.06a.84.84 0 0 0-.22-.14v-.04zm-5.29-.32h.12l.13.06a1.41 1.41 0 0 0 .66.2v-.1l.33-.05-.33-.12-.92-.32h-.06l-.31-.05a.12.12 0 0 0-.09.1.12.12 0 0 0 .09.12 2.82 2.82 0 0 0 .38.16zm3.12.32l-.57-.22a.77.77 0 0 0-.25 0v.18l.3.04h.14zM186 106.39a.33.33 0 0 0-.08-.07v-.17h-.24v.43a1.47 1.47 0 0 0 0 .27v.15l.12-.07a.68.68 0 0 0 .16-.11l.09-.11.07-.09v-.11a.55.55 0 0 0-.12-.12zm3.68-15.1l-.1-.25-.32-.04h-.17l.18.45zm-53.41 90.91l-.41.07v.06l-.06.31h-.13l.08.25h.64l-.08-.62zM126 42.79h.23v-.18h-.4v.18h.17zm1.94-.21v.18h1.26v.06h-1.08v.29h.86v-.09h.32v.12a.92.92 0 0 1 .37 0h.42l.43.06v-.27h.08v.14h.62l.31.08h.33V43l-.49-.06h.1v-.09h.81v-.12h.23v.05a3.92 3.92 0 0 0 .94.09.14.14 0 0 0 .08 0l.1-.12h-.29s-.71-.06-.8-.05a1.2 1.2 0 0 0-.54-.2v-.09h-1.91v.18h.14a1 1 0 0 0 .4 0h.37v.06h-.73v.11h-.97.55l.18-.05-.12-.1h-1.99zm2.46.29zM88.89 64l.3-.14a1.32 1.32 0 0 0 .36-.31.3.3 0 0 0 .34 0v.05a3.09 3.09 0 0 1 .54-.27.88.88 0 0 0 .18-.18 4.2 4.2 0 0 0 1-.49l.39-.15.17-.25a1.37 1.37 0 0 0 .56-.26h.06l.07-.11.24-.21h.22l.43-.19c.22-.09.45-.19.66-.3a.66.66 0 0 0 .31-.14l.28-.31a.17.17 0 0 0 0-.09 1.26 1.26 0 0 1 .39-.22l.1-.11.07-.1a3 3 0 0 1 .44-.27 1.5 1.5 0 0 0 .69-.62l.07-.15.39-.09a2.68 2.68 0 0 0 .3-.34l.15-.18h-.14l.15-.12.63-.7h-.15c.07-.13.14-.27.2-.39a.21.21 0 0 0 0-.22l.24-.14-.06-.1a.46.46 0 0 0 .05-.18h.09l-.08.16.47-.12.06-.08.12-.1.08-.08v-.06a.77.77 0 0 0-.06-.13l.1-.07a3.87 3.87 0 0 0 .37-.24l.19-.17h-.18a.91.91 0 0 0 .22-.13h.1v-.07l.08-.11.12-.1.13-.1.11-.1-.13-.05h-.05l.17-.14.24-.21-.34.06.07-.06-.06-.07h-.06.15l-.06.06h.26a.19.19 0 0 0 .18 0l.26-.09.06-.05h.13a.65.65 0 0 1 .19-.12l.06-.06h.34v.05l-.13.2h.24l-.1.22h.07a.17.17 0 0 0 0 .08l-.09.14-.12.18.28-.36a.68.68 0 0 0-.1.21v.05c-.38.41-.42.47-.39.62l-.27.34h.09l-.06.12h.29a.59.59 0 0 0 .31 0 .92.92 0 0 0 .37-.21v.29l-.2.28h.11v.12l.65-.11.22-.21h.06l.1-.15a4.32 4.32 0 0 1 1.17-.93.27.27 0 0 0 .11-.06 1.1 1.1 0 0 0 .23-.37l.09-.18v-.15l.15-.21.14-.18.45-.48.18-.2h-.16a5.25 5.25 0 0 0 .51-.63l.12-.18.12-.14c.18-.16.31-.3.47-.46l.07-.08-.09-.06h-.07l.16-.17h-.23l.1-.1h-.07l.05-.06h-.25l.05-.05h-.11l.05-.05h-.33v-.06l-.12-.07-.1.09a8.39 8.39 0 0 1-1.07.56 1.45 1.45 0 0 0-.55.24h-.11v-.07h-.07a.34.34 0 0 0-.09-.11l.12-.08.15-.1h.06l.19.15.23-.22-.11-.15-.12.21.24-.2h-.18l.07-.12h-.12l.16-.06a.14.14 0 0 0 .12 0l-.07.12.44-.08a1.11 1.11 0 0 1 .3-.19h.12l.06-.06.29-.26.23-.21h-.19l.23-.2a.53.53 0 0 1 .1-.16.54.54 0 0 0 .12-.22l.2-.16.11-.1a.12.12 0 0 0 0-.05l.17-.12a1 1 0 0 0 .29-.16l-.16.15v.06l-.07.06-.24.21a1.43 1.43 0 0 0 0 .17v.16l.16-.14.11-.1h.2a.38.38 0 0 0 .36-.13v.07a.16.16 0 0 0 .12 0 1 1 0 0 0 1.03-.28h.07l.16-.15a2.23 2.23 0 0 0 .3-.2h.16l.06-.05a.42.42 0 0 0 .15-.13l.05-.07.21-.18h-.11.06-.13l.08-.08h.05-.18l.07-.06.12-.14.14-.13h-.1l.08-.08h-.11v-.06l.06-.06.21-.2h-.09l.08-.1v-.08l.05-.09L110 48a.58.58 0 0 0-.21 0l.18-.12h-.18l.47-.25.55-.26.17-.1.23-.13.27-.14.55-.27h.06a12.15 12.15 0 0 0 1.19-.47l.4-.19.26-.13h-.15.34l.29-.12.25-.1.33-.13.36-.15.15-.05.61-.17.23-.1.25-.08.23-.09h.28l.3-.13v-.17l.45-.12h.13l.87-.25.16-.05h.23l.82-.19.28-.06.31-.06.43-.08v-.09.09H121v-.18h-.19l-1.53.3-.3.06-.38.08h-.13l-.27.06h-.15l-.33.08-.41.09-.33.08-.55.13-.78.19-.52.13-1 .26-.72.2-.41-.22-1.91.56-1 .33H110l-.27.09-.33.11h-.22l-.34.11h-.07l-.25.08-.71.25h-.1l-.43.16-.58.21-.21.08-1.15.44-.44.17h-.13l-.89.36-.27.11-.66.28-.45.19-1.19.53-.2.09-.51.24-.12.05-.11.05h-.07l-.4.41h-.06l-.52.25-.32.16-.22.11-.61.3-.25.18-.35.18-.35.18-.1.05-.58.3L96 52l-.29.16.06.12-.32.19-.58.34-.3.19-.17.11-.17.11-.23.22-.17.09-.25.17a1.4 1.4 0 0 0-.25.18l-.22.12-.16.08-.11.06-.2.13-.18.11-.28.15-.29.18-.17.12-.37.25-.24.17-.11.2-.41.29-.45.26-.24.16a.35.35 0 0 0-.12.12l-.21.15-.14.09-.41.3-.41.3a2 2 0 0 0-.44.24l-.49.35-.32.29-.36.3c-.77.57-.78.58-.89.68l-.17.14.06.21a3 3 0 0 0-.41.33l-.24.21.39-.07.18-.15v.05l-.15.19-.07.11h-.09l-.45.37a1 1 0 0 1-.11.16h-.1a.57.57 0 0 1 .05-.09l.19-.17H85a.61.61 0 0 0-.39.07l-.18.13-.43.3-.2.18-.25.22h.14l-.23.21a22.72 22.72 0 0 0-2.34 2l-.1.1.16.06-.09.09h-.21l-.34.36h.16a.67.67 0 0 0 .3.01l.08-.08h.11l.08-.08c.15-.12.35-.27.51-.38l.22-.16-.06.06v.06l-.26.24-.15.14h-.14l-.39.42a1 1 0 0 0-.14.16l-.2.21a.34.34 0 0 0-.09.12l-.16.18-.24.24h-.07l.44-.45h-.37v.29h-.12a2.84 2.84 0 0 0-.37.33l-.17.12a2.14 2.14 0 0 0-.33.27l-.39.31a1.65 1.65 0 0 0-.2.18l-.13.25a1.8 1.8 0 0 0-.81.58c-.27.26-.41.41-.52.54l.05.06-.07.08-.28.21a.71.71 0 0 0-.16.19l-.2.23-.12.14a.48.48 0 0 0-.05.16v.05L76 69l-.17.17a.48.48 0 0 1-.16.13l-.2.25-.36.45a2.16 2.16 0 0 0-.31.31.36.36 0 0 0-.08.26l-.11.09-.48.59.25-.07-.2.25v.06a.88.88 0 0 1-.18.11h-.1l-.07.09a6.75 6.75 0 0 1-1 1l-.13.17-.42.53-.28.27-.07.09-.08-.09-.12.08h-.07l-.27.37-.14.18-.25.47v.07a.74.74 0 0 0-.07.21v.29l.2-.23.22-.25h.11l.07-.07h.1a2.68 2.68 0 0 1 .27-.27l.2-.2-.42.59a.78.78 0 0 1-.15.3.8.8 0 0 0-.19.47v.06h.06l-.12.18h.02l-.2.29-.1.19h.25c-.1.17-.18.34-.27.5a7 7 0 0 1-.41.72l.13.12.16-.13a.41.41 0 0 0-.09.2h.06l-.18.2a2 2 0 0 0-.18.25l.08.07a.3.3 0 0 0 0 .08l-.57.73.27-.11a.81.81 0 0 0-.2.22l-.1.17h.15l-.26.4.05.05s.05.06 0 .09h-.06l-.23.39-.1.17.37-.06.13-.2h.06l.17-.2a.17.17 0 0 0 .19 0h.06l-.17.29.3-.05-.14.22-.11.17h.3a2.39 2.39 0 0 0 .23-.21l.11-.06a2.83 2.83 0 0 0-.39.45 2.16 2.16 0 0 0-.22.3l.14.11.13-.13v.06l-.05.1.13.1-.05.1h.16v.12a.19.19 0 0 0-.08-.11h-.1l-.05.08a1.79 1.79 0 0 0-.25.49l-.06.15.36-.06.05-.1.13-.26.45-.39a1.09 1.09 0 0 1 0-.18h.23v-.09a.87.87 0 0 1 0-.32 5.39 5.39 0 0 1 .47-.53.2.2 0 0 1 0-.17l.08-.16h.08l.05-.1a6.66 6.66 0 0 1 1-1.3l.31-.54.4-.53.13-.16.18-.3h-.09a6.87 6.87 0 0 1 .48-.59 6.36 6.36 0 0 0 .52-.64l.12-.18h-.11l.16-.21a.21.21 0 0 0 .22.08 6.56 6.56 0 0 1 .72-1.11.53.53 0 0 1 0-.06l.18.18.06-.1.41-.67.14-.19.48-.57.08-.1-.24-.09h.08a1.19 1.19 0 0 0 .78-.64.69.69 0 0 0 .1-.2 7 7 0 0 1 .78-1 8.52 8.52 0 0 0 .9-1.11l.29-.05a.51.51 0 0 0 .23-.16h.31a.28.28 0 0 0 .13-.08H81l.24-.22v.05a1.38 1.38 0 0 1-.13.32l-.11.13h.29l.45-.43.44-.51V69a.16.16 0 0 0 0 .15.12.12 0 0 0 .12 0l.3-.36.21-.19a.54.54 0 0 0 .19-.21h.13l.08-.1a2.72 2.72 0 0 0 .45-.43.65.65 0 0 0 .14-.17 2.45 2.45 0 0 1 .37-.31 3.05 3.05 0 0 0 .3-.24 1 1 0 0 0 .23-.18 3.56 3.56 0 0 0 1-.78 3.22 3.22 0 0 0 .29-.31 10 10 0 0 0 1.35-1.17.22.22 0 0 0 0-.19l.14-.21.07-.1a.75.75 0 0 1 .05.21l-.15.19.56-.1.06-.08a.27.27 0 0 0 .2-.11 1.82 1.82 0 0 0 .47-.3zm17.72-14.12l.1-.05.11-.07.3-.22a1.08 1.08 0 0 1 .23 0l-.11.11-.24.05-.19.17a.9.9 0 0 0-.29.19l-.02-.06zm-2.16 1.69v.07h-.05zM104 52l-.1.14v-.06zm-.15.26h-.1l-.06.05zm-3.57 2.21zm0-.05zm-1.73 1.93zm0 .24h.07zm.17-.9l.05-.06-.06-.06v-.06a.5.5 0 0 0 .15-.06l.11-.07.03-.01v.06h.16a.44.44 0 0 0-.19.18l-.05.08a3.38 3.38 0 0 0-.38.39l-.06.07h.05l-.07.07a.75.75 0 0 0-.19-.15 1.12 1.12 0 0 0 .43-.33zm-2.87 1.59l.06.07.27-.1.07-.06h.1l-.09.09h-.1l-.06.07-.41.07zM94.75 59zm-.13-.51zm.1.71v-.07h.16a1.13 1.13 0 0 0 .46-.13 2.25 2.25 0 0 0 .48-.54l.18-.23h-.23l.08-.05.36-.06.24-.29a.23.23 0 0 0 0-.19v-.06h.29c-.43.9-.45 1-.38 1.32l-.2.25.26-.07a.89.89 0 0 0 .29-.1h.08l-.14.18-.33.09h-.27l.06-.07h-.24l.13-.13h-.33a.58.58 0 0 0-.34.05h-.1a.63.63 0 0 1-.25.15l-.05.06h-.14l-.05.06h-.23a1.55 1.55 0 0 0 .21-.12zm-24 22.57zm1.78-8.21l-.25.34.33-.43zm9.53-5.15l.08-.11-.05-.07.08.05.15-.13zm1.11-6.24l-.14.2c-.27.24-.29.26-.79.73.14-.14.35-.37 1-1.13l.05.08h.09zm3-2.62zm.42-.47l-.18.12h-.24l.12-.06.16-.13h.1v.08zm39.98-16.31h1.35v-.23h-1.46v.18h.08zm.27 1.94l.16-.07h.06l.13-.05.16-.07-.24-.15h-.14a.45.45 0 0 0-.29 0 .18.18 0 0 0-.11.06h-.19l.32.22zm-5.81.02a.16.16 0 0 0-.08 0 1.09 1.09 0 0 0-.12.33v.15h-.13v.53h.06v.11h.32V46h.27v.51h.11v.07a1.27 1.27 0 0 0 0 .18 1.09 1.09 0 0 1 0 .15v.1h.51v.13h.2l.16-.06a.73.73 0 0 0 .22.31v.09h.19v-.1h.06l.11-.06v-.01a.56.56 0 0 0-.1-.25l.36-.06v-.05a.7.7 0 0 1 .06-.12.61.61 0 0 0 .09-.25.29.29 0 0 0 .2-.11.38.38 0 0 0 0-.3l.1-.05h.06l-.19-.28v-.19l.16.07a1.44 1.44 0 0 0 .31.07v.16h.14a.12.12 0 0 0 .08-.05l-.07.06.24.04.11.15h.08v.06a.59.59 0 0 0 0 .23v.09h.08l.24-.11a1.34 1.34 0 0 1 .22-.1l.11.19.08-.05.22-.05h.32v-.06l.12-.06.35-.06-.06-.09-.2-.25h-.07a.27.27 0 0 0-.18.05h-.17l-.08-.06h-.1a.2.2 0 0 1-.17-.1h-.39v.08h-.08v-.07h.09l-.07-.09a.48.48 0 0 0-.26-.19h-.41a.33.33 0 0 0-.29-.18h-.52a.32.32 0 0 0-.34-.3v-.12.07h.23a.34.34 0 0 0 .17.18h.2l.22-.06h.69a5.86 5.86 0 0 0 .63-.08.19.19 0 0 0 .14-.1h.17l-.17-.13a.53.53 0 0 0 .15-.09h.06v-.07h.1l-.16-.16v-.4a.31.31 0 0 0-.08-.09h-.19a.41.41 0 0 1-.36-.06l-.12.06-.16-.1v.13l-.12-.06h-.31l-.04-.02h-.17l-.3.07h.1-.22v-.05h-.32l-.08.05-.01.1h-.49l.07.13a.22.22 0 0 0 .17.15l.1.14v-.05h-.08l-.11-.08v-.06h-.08a.18.18 0 0 0-.11.06l-.09-.14h-.18v.07a.3.3 0 0 1-.19.23h-.06v.14l-.07-.11v-.09h-.09a.53.53 0 0 0-.14 0v.12H121v.06zm-.26.54zm.06.41a.17.17 0 0 1 0-.09v-.06h.07v.11zm.06.1zm0 0zm2.88-.32zm-1.14.67h-.07zm-1.22-.35l.29-.05v-.11h.06v.19l.32-.06v.08h-.34v.06a.15.15 0 0 0-.1.08v-.07h-.25zm4.94-.87h.11l.45-.06-.26-.12h-.15l-.09-.06h-.06l-.19.13zm15.8-1.29h.08l.15.05a.25.25 0 0 0 .11.07h-.23l.26.26h-.73v.07a.15.15 0 0 0 .1.08l.22.05-.32.05.38.14v.09h.07a.29.29 0 0 0 .11.07v.06a.17.17 0 0 0-.13 0h-.09v.34l.26.13h.12a.43.43 0 0 0 .11.09v.09l.07.05h-.14l.3.12h.12v.07l.27.5v.05a.29.29 0 0 0 .08.1h-.1l.12.07h-.22l.22.13a1 1 0 0 0 .66.17h.12-.1l.26.12.28.13.19.05h.1l.18.18a.26.26 0 0 0-.1.06l-.08.07.08.08h-.11l.85.38h-.11l.23.13.24.22h-.2l.32.12.36.14h-.43l.21.14a15.15 15.15 0 0 0 1.37.83h.08l.44-.07-.2-.13.05.03a.27.27 0 0 0 .11-.13c.08 0 .13 0 .21.11a.59.59 0 0 0 .2.16 1.29 1.29 0 0 0 .68.15l.16.11h-.24l.24.13.3.16h.22-.18l.45.29h.17a.36.36 0 0 0 .38.02h.09a1.14 1.14 0 0 0 .3.12h.44l.06-.17-.2-.13h.22a.35.35 0 0 0 .33-.15h.12l.11.05.32-.05-.18-.11h.06l.06-.17v-.09h.25-.08l-.3-.17h-.19l-.09-.05h-.61l-.41-.19h-.17l-.64-.18-.31-.18h-.07a9.82 9.82 0 0 1-1.18-.56h-.18a2.46 2.46 0 0 0-.35-.18l-.29-.14h.15l-.27-.12A3.39 3.39 0 0 1 147 47v-.06h-.06a1.45 1.45 0 0 0-.62-.14v-.21a1.16 1.16 0 0 0-.31-.17l.17-.09-.31-.12h.17l-.3-.21h-.17l-.1-.1h.18l-.3-.12-.27-.14a2.48 2.48 0 0 0-.37-.17h.07l-.13-.06v-.18l.2-.07-.15-.1-.19-.1-.11-.08h.18l-.38-.15h.28l-.1-.14h.06v-.17l-.14-.05v-.46h-.08l-.25-.08h-.08a.61.61 0 0 0-.23-.08h-.19l-.48-.1h-.4a1.81 1.81 0 0 0-.59 0h-.22l.18.13a.37.37 0 0 0 .16-.16zm9.78 5.83h.17l-.22-.09zm-28.58 8.31h-.09v.09a1 1 0 0 1-.45.5h-.06v.23h.07v.11l.12-.07a1.63 1.63 0 0 0 .33-.26 1.73 1.73 0 0 1 .21-.18 1.05 1.05 0 0 1 0-.11v.27l.12-.08.14-.1v.22l.39-.07v-.2a.3.3 0 0 0 .17 0h.06v-.05l.14-.26h.13l.14-.18a.43.43 0 0 0 0-.13.19.19 0 0 1 0-.09v-.05a.32.32 0 0 0-.19-.27v-.12l-.44.18v.17V57h-.07l-.05-.32h-.29v.06c0 .15-.05.29-.08.44v.13l.07-.31v-.11h-.11a.52.52 0 0 0-.33.25h-.11v.23h.54v.05a.28.28 0 0 1-.08.23v.1c-.1.09-.15.07-.28.01zm5.68-4.6a.42.42 0 0 0 .41.34h.07l.06-.08v.08l.12.06v-.03a1.22 1.22 0 0 1 0-.13 1.54 1.54 0 0 0 0-.22.77.77 0 0 0 0-.26h-.08.08l-.06-.08h-.18a.33.33 0 0 1-.11.05h-.32l.01.11h-.06zm.76-.48c.19 0 .21-.1.21-.15a.12.12 0 0 0-.11-.1l-.09-.16-.33.06.28.37h.05zm-5.02 3.86a.38.38 0 0 0 0-.12v-.05a.37.37 0 0 0 0-.14v-.15h-.22v.2h-.06v.38h.25v-.05zm-11.19 18.09a.17.17 0 0 0 .08.06h.24v-.3l-.48.09zm21.45-1.3v.08h.08a.41.41 0 0 0 .34-.43h.17l-.1-.12a.65.65 0 0 1-.09-.19.82.82 0 0 0-.12-.24h-.08v-.09h-.23v.2a.5.5 0 0 1 0 .11h-.08a.43.43 0 0 0-.23.23l-.13.18.37-.06a1 1 0 0 1 .1.33zm-8.28-19.24v.05l.36-.06v-.11a.55.55 0 0 0-.14-.2.57.57 0 0 0-.15-.09h-.3v.11a.55.55 0 0 0 .14.21.55.55 0 0 1 .09.09zm.47-.17v.16h.21V54a.7.7 0 0 0 0-.33v-.07h-.27v.08a.16.16 0 0 0 0 .05v.09zm2.17 16.8l.21.13a.19.19 0 0 0 .08 0h.27l-.06-.29h-.27zM114 74.76l-.36.06v.73h.3v-.28a.23.23 0 0 0-.09-.08h.25v-.43zm19.68-13.17l.37-.06-.05-.13a.32.32 0 0 0-.05-.08l-.09-.05-.22-.13.07.21h-.08zm-3.01 9.49a.47.47 0 0 0-.07.29v.09h.34a2.45 2.45 0 0 0 .37 0l.06.25.11-.11.24-.22v-.17a.43.43 0 0 0-.29-.4v-.13h-.28v-.07h-.58l.12.22a.29.29 0 0 0 .2.18h-.06a.17.17 0 0 0-.16.07zM128 53.33h.06l.06.15.1-.07.15-.1.21-.14h.3v-.11a.52.52 0 0 0 .07-.42h-.09.08v-.1h-.15a.33.33 0 0 0-.24.13.32.32 0 0 0 0 .2l-.5.08-.05.05h-.12z" transform="translate(-1.36 -2.69)"/><path class="cls-11" d="M89.8 71.16h.09l.18-.08a.37.37 0 0 0 .3.07v.07h.06l-.37.32L90 72l.21-.09.14-.06h.15c.34 0 .55 0 .7-.07a.88.88 0 0 0 .45-.19l.21.1.12-.14.28-.35h.04v-.04a.22.22 0 0 0 0-.24 1.59 1.59 0 0 1 .09-.26h.3l-.05.3.61-.22.1-.25v.2l.13-.06a1.6 1.6 0 0 0 .44-.33v-.07h.12l.16-.23h.27v-.08h.13v-.08h.26v-.09h.11l.14-.18h.2v-.08h.19a.44.44 0 0 0 .09-.3h.1l.1-.25h.26v-.09h.06l.09-.23v.12l.32-.05v-.08h.07l.24-.61h.05l.12-.23-.16-.06.14-.11a1.42 1.42 0 0 0 .1-.21v-.09a.36.36 0 0 1 0-.12.58.58 0 0 0 0-.14V67H97a.22.22 0 0 0-.17 0v-.08a.18.18 0 0 0-.12 0l-.3.08.14-.21.14-.22.06-.1h-.11a.57.57 0 0 1 .23-.31v-.07L97 66l.07-.07.12-.12a.49.49 0 0 0 .08-.13l.08-.18-.19.06a.83.83 0 0 0-.3.13v.08l-.46.23v-.12l.05-.11-.09-.07.08-.33-.21.07-.41.13a1.42 1.42 0 0 1-.43.68h-.11v-.17h-.13a1.46 1.46 0 0 0-.42.23 1.39 1.39 0 0 1-.33.19v.05h-.13a.32.32 0 0 0 0-.15h-.19v.09-.07l.11-.17h-.21a8.25 8.25 0 0 0-1 .61h-.09v.06a.55.55 0 0 1-.16.36 1.56 1.56 0 0 1 .17-.5l.1-.22-.22.09h-.1a.38.38 0 0 0-.27.14 3.29 3.29 0 0 0-.34.62l-.07.28h-.12c-.22 0-.23 0-.6.6h-.06l.08-.14a2.44 2.44 0 0 0 .28-.54v-.11l.14-.21.11-.17h-.12l.13-.24h-.12v-.29l.17-.28h-.14a.15.15 0 0 0 0-.11.18.18 0 0 0-.16 0v.09-.09h-.12a.76.76 0 0 0-.52.41l-.18.24.28-.1.13-.06a.78.78 0 0 1 .18-.07v.07h.2l-.14.06h-.13l-.28.36v-.1l-.01-.24-.21.11a.82.82 0 0 0-.35.32l-.06.09h-.08a.22.22 0 0 0-.14.11l-.1.17h.05v.08h.16l-.27.26a3 3 0 0 0-.59.46l-.06.08h-.23l-.06.1h-.08l.02.2a.53.53 0 0 0 .44.08l.3-.32a2.52 2.52 0 0 0 .57-.34v.07h.15a.2.2 0 0 0-.11.08h-.16a2.13 2.13 0 0 0-.17.43v.07h-.27a.34.34 0 0 0-.08.1 2.06 2.06 0 0 1-.77.42.29.29 0 0 0-.07.08h-.13a1.58 1.58 0 0 0-.13.35v.14l.36.09v-.08h.11a2.39 2.39 0 0 0 .37 0 .4.4 0 0 0 0 .17.21.21 0 0 1 0 .08l-.08.16h.21l-.11.22h.11l-.26.25h-.16l-.05.07a.61.61 0 0 0-.51.4.26.26 0 0 0 .16.26.39.39 0 0 0 .27 0h.12l.07-.08h.12v-.09l.35-.06zm4-4.36c0 .08 0 .17-.08.24zm-3 .31h.09l.15.08-.04.16h-.29c.05-.01.08-.08.14-.25zm58.47-15.32l.41.38h.06a1.86 1.86 0 0 0 .36.23 1.64 1.64 0 0 0 .27.09l.2.06h.26v-.06a.22.22 0 0 0-.12-.17v-.08a1.38 1.38 0 0 0-.1-.21l-.1-.12a2.59 2.59 0 0 0-.5-.33h-.2a1.77 1.77 0 0 0-.41 0 .13.13 0 0 0-.09.06l-.05.07h.06a.32.32 0 0 0 0 .1z" transform="translate(-1.36 -2.69)"/><path class="cls-11" d="M115.38 65.61l.08-.01-.01-.35-.34.06v.27l.08-.02v.08l.19-.03z"/><path class="cls-11" d="M122.61 58.59l-.05-.06a.38.38 0 0 1 0-.1v-.07h-.28v.11a.2.2 0 0 1 0 .06l-.07.06-.21.11v.07l.08.11.43-.07v-.02h.15l-.1-.12zM98.47 82.22c0 .16 0 .33-.07.5v.12h.28v-.13l.18-.13.06-.46-.44.08v.07zm1.38 4.02v-.09a.72.72 0 0 1 0-.11.2.2 0 0 0-.08-.08l-.14-.15v.52zm-.47-5.48h-.05v.06a2.42 2.42 0 0 1-.08.61l-.62.11v.09a.59.59 0 0 1 0 .1.16.16 0 0 0 0 .06V82l.29-.13.21-.1v-.12l.14-.07a.72.72 0 0 0 .41-.45l.35-.06v-.06a5.84 5.84 0 0 1 .25-.82 1.19 1.19 0 0 1 .19-.32.2.2 0 0 0 .05-.07l.08-.54h-.17a.14.14 0 0 0-.1 0h-.08l-.24.14a1.87 1.87 0 0 1-.25.15l-.05.35-.08.06-.16-.19V80a.36.36 0 0 0 .1.4.29.29 0 0 1-.19.36zm.19 4.08a.18.18 0 0 0-.07-.09l-.14-.15-.05.52h.29V85a.51.51 0 0 1 0-.1z" transform="translate(-1.36 -2.69)"/><path class="cls-11" d="M100.1 97.89a1 1 0 0 0 .4-.55 1 1 0 0 1 .23-.39l.17.05v-.12c.08-.29.08-.3 1-.55v.15a.2.2 0 0 0 .21.1c.48-.67.55-.77.58-.84l.64-.2v.09h.2v.09h.79v-.34l.42-.17v.36l.13-.06h.1a.21.21 0 0 0 .07-.08h.14v-.38l-.4.07V95a2.11 2.11 0 0 1 .33 0 1.73 1.73 0 0 0 .45 0 .29.29 0 0 0 .07-.11h.21v-.1l.51-.08v-.13h.16a.74.74 0 0 1 .67.24.26.26 0 0 0 .22.07h.06l.07-.28a.92.92 0 0 1 .37-.12h.08v-.21a1.35 1.35 0 0 1 .55-.38h.05v-.08a1.22 1.22 0 0 1 .07-.37v-.06a.34.34 0 0 0-.35-.08l-.58.13v-.1a.18.18 0 0 0-.06-.12v-.11a.75.75 0 0 1 .29-.09h.06v-.06a1.64 1.64 0 0 1 .16-.4h.83v-.44a1.83 1.83 0 0 0 .56-1.5v-.28a.59.59 0 0 1-.19-.26 4 4 0 0 0-1-.13.48.48 0 0 0-.33.25h-.18v-.11a1.36 1.36 0 0 0 0-.73 7.8 7.8 0 0 0-.82-.81H107a2 2 0 0 0 .6.31h.09v-.5a4.42 4.42 0 0 1-1.12-.89v-.08h-.06v-.33h-.15l-.12-.18a.62.62 0 0 0-.34 0 1.74 1.74 0 0 1-.18-.22 1.88 1.88 0 0 0-.21-.25 3.93 3.93 0 0 0-.07-.77v-.09h-.22a.88.88 0 0 0 0-.25v-.08h-.12a.56.56 0 0 1-.11-.22.45.45 0 0 0-.27 0c-.06-.24-.09-.37-.13-.5v-.09h-.09l-.52.17.17-.28.32-.05v-.22h.16v-.41h-.21v-.1a.69.69 0 0 0-.08-.22h.26v-.37h.39v-.06a3.47 3.47 0 0 0 .19-.39h.11v-.3h.24a.86.86 0 0 1 .18-.21v-.27h.09v-.32a.83.83 0 0 0 .32-.86v-.14h-.09v-.11l-.14.06a1.85 1.85 0 0 0-.46.32 2.25 2.25 0 0 1-.32.24.33.33 0 0 0 0-.19l-.17-.08.13-.11c0-.22 0-.44.06-.66a2.55 2.55 0 0 1 .17-.29 2.33 2.33 0 0 0 .2-.56v-.14h-.26a1 1 0 0 0-.9.62h-.11v.06a.24.24 0 0 0 0 .27l-.16.18a.23.23 0 0 0-.06.07.64.64 0 0 1 0 .11l-.05.15h.15l-.07.22h-.08a14.21 14.21 0 0 0-1.35.64 1.15 1.15 0 0 0 0-.16h.06V81a1.69 1.69 0 0 1 .63-.86 1.24 1.24 0 0 0 .55-1.56.75.75 0 0 0-.38 0h-.11a.27.27 0 0 0-.15-.08 3.63 3.63 0 0 1-.49.38h-.1V79a.36.36 0 0 0-.34-.07H102a5.13 5.13 0 0 0-.37 1.06h-.17v.05c-.14.41-.17.51 0 .62a.64.64 0 0 1-.29.19.66.66 0 0 0-.42.35l-.06.15h.16a.22.22 0 0 1 0 .13l-.26.11a.54.54 0 0 0-.08.25V82h.09c.12 0 .13 0 .14.17v.1h.06a.6.6 0 0 1-.25.25v.1h-.36v-.42l.18-.8v-.13l-.29.05v.29h-.24v.12h-.09v.07a2 2 0 0 0 .11.83 1.87 1.87 0 0 1 .08.41v.1h.15v.3h.35v-.11l.13-.53v-.16a.61.61 0 0 0 .06.2h.08a.11.11 0 0 1 0 .07c-.19.14-.21.2-.36 1v.1h.1a.62.62 0 0 0 .35-.11.55.55 0 0 1 .21-.08c0 .26-.13.33-.46.44h-.1v.09a.42.42 0 0 1 .07.25h-.07v.16a.38.38 0 0 0 0-.17.3.3 0 0 0-.15-.12h-.09l.07-.06-.05-.07h.09a1.08 1.08 0 0 0 0-.31.75.75 0 0 0-.1-.18.62.62 0 0 1-.07-.11v-.07l-.41.07v.59h-.17v.25h.18v.08h.08a1.16 1.16 0 0 0 .24-.1l.09-.07v.14a.37.37 0 0 1-.17.33v.23h-.09v.1h.26v-.05a.37.37 0 0 1 .15-.26v.53h.27v-.06a.79.79 0 0 1 .21-.44v.06l.36-.06v-.17a.7.7 0 0 1-.09.34l-.06.15h-.25v.09l.07.6-.33.06v.2a3.2 3.2 0 0 1-.09.78v.12h.14v.21h.09v.15l.29-.15.35.25.1.06v-.11a1.54 1.54 0 0 0 .12-.45 1.43 1.43 0 0 0 .46 0l.41-.1.64-.04c-.37.52-.43.61-.16 1.11h-.07a1.21 1.21 0 0 0-.51.31.22.22 0 0 0 0-.08l-.65.11a.34.34 0 0 0-.15-.06h-.18v.22a2.82 2.82 0 0 0 .13.4c0 .09.06.17.09.26v.62h-.13v.09a.68.68 0 0 0-.29.31.23.23 0 0 0 0 .22h-.14a.72.72 0 0 0-.13.48.11.11 0 0 1 0 .06 1.18 1.18 0 0 0-.33.16v.49h.16a.5.5 0 0 0 .19.12c0 .08-.07.16-.11.24a2 2 0 0 0-.18.48v.17l.16-.07a.59.59 0 0 0 .44-.51l.38-.15a.16.16 0 0 0 .09-.05s.07-.11.17-.29v.55l-.17.09a.3.3 0 0 0-.1.16l-1 .8v.05a1.52 1.52 0 0 1 0 .62v.13h.21v.32h.11a.65.65 0 0 0 .65-.54h.2l-.11.57h.14a1.29 1.29 0 0 0 1-.65 1.7 1.7 0 0 1 .28.38v.05L103 94v-.09h.1v-.46l.48-.15-.06.24a3.35 3.35 0 0 0-.11.55h-.1v.11l-.9.15v-.12l-.13.05-.36.15v-.09l-.6.1h-.08v.14a1.13 1.13 0 0 1-.35.35 1.82 1.82 0 0 1-.66 1.25v.34a3.08 3.08 0 0 1-.83.54h-.05v.49h.1a2.79 2.79 0 0 1 .58 0V98zm7.71-7.6a.24.24 0 0 1 .07.16.25.25 0 0 1-.13.11 1.23 1.23 0 0 1 0-.36zm-3.51-10.38a.12.12 0 0 1 .06.06.19.19 0 0 1-.1.09v-.15zm-.76 8.41a.53.53 0 0 0-.1.24v.06l.09.06-.18.13c0 .25-.08.5-.12.75h-.18v.18a1 1 0 0 0-.34 0l-.23.06v-.06a.28.28 0 0 1 .16-.11h.06V89l.15-.1v-.73l.42-.07V88h.28v.27z" transform="translate(-1.36 -2.69)"/><path class="cls-11" d="M99.3 89.46v-.08l.52-.09v-.22a3.08 3.08 0 0 1 .51-.19h.07v-.35h-.29v-.91l-.29.05a1.86 1.86 0 0 0 .24-.52v-.09L100 87a.87.87 0 0 1-.23-.1 1 1 0 0 0-.29-.12h-.02a3.45 3.45 0 0 1-.5.46v-.51h-.11c0-.18-.08-.22-.3-.25h-.08v.44l-.18.07v-.07h-.12a2 2 0 0 0-.75.23v.38h-.25l-.1.27-.07.2.39-.07v.11h.05v.08h-.1a.71.71 0 0 0-.38.44h-.14v.55h-.18v.05a1 1 0 0 0-.49-.11.55.55 0 0 0-.31.23l-.08-.07v-.27l-.33.06v.42h-.09V90h.09v.1h.3v.12h-.16v.21l-.44.08v.1h-.18v.26H95h-.11V91h-.27l-.06.6h.11a.85.85 0 0 1 .33 0v.21l.15-.08.19-.1v.17h.23v-.1h.24v.09l-.27.15v.51h-.09v.26l-.06.07-.1.13L95 93v.4h.26l-.14.12a1.63 1.63 0 0 1-.27.2v.38h.18a2.77 2.77 0 0 1-.54 0h-.21v.12h-.1v.08a.54.54 0 0 0 .08.4.24.24 0 0 0 .16.06l-.08.09v.27h-.09v.32l.13-.06a.73.73 0 0 0 .4-.28h.24a1.09 1.09 0 0 1-.26.19v.54l.14-.08a2.82 2.82 0 0 0 .46-.35 3.59 3.59 0 0 1 .35-.27v.23l.5.2v-.07a2.13 2.13 0 0 1 .75-.75v-.31h.52l.09-.19h.21v-.15a1.57 1.57 0 0 1 .1-.48l.49-.08v-.32h.09a.62.62 0 0 0 .27.1h.11v-.16a.42.42 0 0 0-.14-.42h.27a.28.28 0 0 0 .08-.09v-.83h.09v-.61h-.13a1.25 1.25 0 0 1 0-.41v-.1h-.16.16v-.29H99a7.74 7.74 0 0 0 0-.79l.23-.12zm41.35-35.67h-.15l-.5-.23-.13.05a1.44 1.44 0 0 0-.58-.1l-.49-.07c-.25 0-.28 0-.31-.07h-.73l-.36.06h.21a.79.79 0 0 1 .07-.17v-.21a5.12 5.12 0 0 0-.85 0l-.38.06v.06h-.05l-.41.07-.06-.09-.08.07a.82.82 0 0 0-.21.22l-.36.15-.26-.18h.2l-.07-.11a1.19 1.19 0 0 1 .65-.36h.19l-.14-.12a.63.63 0 0 0-.42-.26h-.44l-.33-.56h-.15l-.1.11-.58-.34-.05.65a2 2 0 0 0-.47-.3c.13-.15.15-.22.09-.31h-.11l-.13-.2a2.33 2.33 0 0 0-.64 0h-.13l.16.26h-.17l.08.51-.13-.11a.45.45 0 0 0-.37-.21h-.13l.09.16h-.06v.08a1 1 0 0 1 0 .22h-.07v.53h-.19v.13a1.63 1.63 0 0 1 .08-.3V53a.67.67 0 0 0-.17-.32v-.08h-.25v-.06H131l.13-.11h.35v-.08h.06l-.13-.22h-.14V52l-.31-.12h-.14v.21h-.15l.06.11.11.21v.06h.06l.05.1h-.12l.06.11-.67-.3.3.72h-.05a.54.54 0 0 0-.5-.27h-.14l.08.17.09.11a1.68 1.68 0 0 0-.06.3l-.21.2a.31.31 0 0 0-.07.21l-.47-.1a.34.34 0 0 1-.1-.15h-.06.11l-.11-.28-.42.07.07.19h-.1a1.66 1.66 0 0 1-.54.21h-.17l.11.12.2.23h.06a.19.19 0 0 0-.18 0h-.32v.13l-.07.2-.05-.17h-.17a.19.19 0 0 0-.14.08h-.15l.09.28-.25.37c-.16-.31-.2-.35-.29-.33h-.11v-.6h-.5v.09a.39.39 0 0 1 0 .11.75.75 0 0 0 0 .14v.19l-.27.09h-.08v.16h-.07v.1a.87.87 0 0 0 .15.32v.05h.06a.52.52 0 0 0 .28-.12h.13a3.19 3.19 0 0 1 .28.43l-.22-.13v-.07l-.34.06.07.12.11.18h-.1v-.06h-.24l.05.51h-.14a.16.16 0 0 1 .05-.1v-.24a.68.68 0 0 0-.16-.38v-.18l-.14.13v.07a.2.2 0 0 1-.07.08.3.3 0 0 0-.15.09.32.32 0 0 0-.06.18l-.14.07h-.05v.43l-.05.41.11-.05a.35.35 0 0 0 .25-.29h.31v-.06h.05a.68.68 0 0 1 0 .09h-.06l.07.31v.44a1.05 1.05 0 0 0-.23.18h-.18v.06l-.31.05c-.06.17-.09.17-.1.17h-.09l.07.38h.09l.44-.12v.57l-.28-.31h-.7l.1.14a.66.66 0 0 1 .09.14h-.07l-.01.5a1.06 1.06 0 0 0 .48.29l-.68.12.2.59-.35.26a2.54 2.54 0 0 0-.12.25.27.27 0 0 0-.22 0l-.42.07v.29h-.1a.45.45 0 0 1-.32.18.67.67 0 0 0-.12.44l.06.46h.1l-.1.3v-.36h-.23v.31c0 .08 0 .15-.06.23v.14l.36-.06a1.52 1.52 0 0 1-.6.29h-.08v.24l-.49.18.07.53a2 2 0 0 1-.78.34h-.12v.31a.69.69 0 0 0-.37.34.45.45 0 0 0-.3.06h-.11v.35a3.07 3.07 0 0 0-.59.8.86.86 0 0 1-.43.21h-.08v.34h.15a.2.2 0 0 0 0 .19.13.13 0 0 0 .12 0l.56-.19v.03h.12a1.66 1.66 0 0 0 .33-.39l.11-.08a.39.39 0 0 0-.1.21.45.45 0 0 0-.15.18 2.66 2.66 0 0 1-1.16.67l-.16-.38v-.23h-.21a1.68 1.68 0 0 1-.73.38l.1-.11h.12v-.22h-.08v-.07h-.27v.08a.49.49 0 0 0-.48.46v.14h.14a1.54 1.54 0 0 0 .35-.14l.08.43-.43.26v.08a1.07 1.07 0 0 0 .08.27l-.27-.12V68a.55.55 0 0 0-.12.35 3.1 3.1 0 0 0-.89 0 .84.84 0 0 0-.21 0h-.13l-.02.18a.51.51 0 0 0 .32.33V69h.09a1.4 1.4 0 0 0-.33.5l-.5-.06a.51.51 0 0 0-.32.39h-.09v.27l.59-.1-.35.21a.43.43 0 0 0-.35-.12h-.08v.34h-.24v-.08l-.57.25h-.39v.62h.15a3.91 3.91 0 0 1 .55 0l-.58.15-.49.12h-.07v.42l.06.64.6-.25a1.6 1.6 0 0 0 .4.14l-.61.11v.08h-.18v.09h-.05a.2.2 0 0 0-.21.21v.09h.53v.11a.37.37 0 0 1-.28.22h-.11v.11l.06.14h-.26v.18a2.61 2.61 0 0 0 .51.1h-.1l.3.22c.4.17.4.24.39.29v.1H114v.14a.23.23 0 0 0 0 .1l.05.05v.15h.28v-.16h.09v-.26h.06l.63-.5-.11.49h-.2v.6a.73.73 0 0 0-.26.21l-.44.14a.31.31 0 0 0-.2.18.59.59 0 0 0-.19.44v.07h.07c.39.09.39.15.39.2v.11h.27v-.12h.09V76h.1v-.07l.34-.06h-.07l.1.52h-.06l-.13.5a.59.59 0 0 1-.36.24h-.1v.09a3 3 0 0 0 .51 1.08h.6a.5.5 0 0 0 .37-.2l-.07.47 1.12-.19a.6.6 0 0 1 .31-.31h.08V78l.33-.06.42-.4.24-.05a.45.45 0 0 1 .32-.22.57.57 0 0 1 .3-.31 1.69 1.69 0 0 0 .17-.29l.59-.1v-.24a1 1 0 0 0 .34-.23h.18a.31.31 0 0 1 .21-.19.32.32 0 0 1 .21-.2h.08v-.17a.22.22 0 0 1 .23.21h-.1l.08.83h.1v.09l.33-.06a6.27 6.27 0 0 1 .3 1.37.61.61 0 0 0 .56.36 6 6 0 0 0 .65.79c.16.17.32.35.47.55l.21.2h-.25l.06.51.08.06a1.34 1.34 0 0 0-.17.91l.2.5a.41.41 0 0 0 .09.29v.13l.31-.05v.1h.28v-.1a2.24 2.24 0 0 0 1.37-.52l-.1-.62v-.06a.5.5 0 0 1 .4-.42h.09l-.06-.4.43-.14v.08h.15a9.53 9.53 0 0 0 1-.23 1.46 1.46 0 0 0 .29-.28v.15l.12-.09a1.72 1.72 0 0 0 .59-.84 1.5 1.5 0 0 0 0-.42v-.2l-.45.59v.05-.45h.09l-.12-.66h.07v-.09a1.73 1.73 0 0 1 .08-.34v.19h.11v.09l.48-.08-.05-.28h.27a.34.34 0 0 1 0-.08 1.06 1.06 0 0 0 .57.11h.11v-.11h.13l-.06-.11a.64.64 0 0 1-.13-.33.68.68 0 0 1 .08-.24.94.94 0 0 0 .09-.24v-.08h-.08a1.17 1.17 0 0 0-.16-.18.23.23 0 0 1-.15.16L129 76a.24.24 0 0 1 .14-.1h.08l-.24-.5h-.07a.68.68 0 0 0-.42.18v.11h-.11a4.38 4.38 0 0 0-.08-.44c.18-.09.24-.15.22-.25v-.09h-.17l-.43-.07a5.65 5.65 0 0 0 .69-.14 1 1 0 0 1 .6-.27h.07l.1.17h.2l.32-.6a1 1 0 0 0 .41-.22h.14l-.06-.27h.09v-.09l.34-.06-.09-.12a.7.7 0 0 1-.14-.22v-.09l-.49.07a3 3 0 0 0 .64-.64v-.05a2.19 2.19 0 0 1-.29-.7v-.08l-.5-.09-.08-.37-.38.06-.49-.44-.06.06a1 1 0 0 0-.18.22h-.36v-.1h-.1a2.19 2.19 0 0 1-.07-.25v-.1c-.09-.27-.23-.62-.35-.89a1.2 1.2 0 0 0 0-.36v-.09h-.09V69a.45.45 0 0 1 .16-.08h.11l-.23-.55h.1v-.16h.1l-.16-.64a1.37 1.37 0 0 1-.19-.28h.2a.15.15 0 0 0 .1-.06l.41-.31a.48.48 0 0 0-.06-.39l.41-.17a.4.4 0 0 0 .17-.23h.1l-.06-.26h-.11l.19-.4h.19a.17.17 0 0 0 .11-.06 1.15 1.15 0 0 0 .27-.17h.17l.34-.43h.35a.21.21 0 0 1 .14-.15h.05v-.05a2.68 2.68 0 0 1 .5-.86v-.06a1.08 1.08 0 0 0-.29-.38l-.14-.27.05-.08-.14-.47.15-.25h.08v-.4a2.2 2.2 0 0 1 0-.31 1.07 1.07 0 0 0 .24-.36l.23-.22h.12l-.06-.11-.09-.19.32-.22a.27.27 0 0 1 .18.13v.08h.15a2 2 0 0 1 1.38-.26.34.34 0 0 1 0 .1h.05l.62.05a.33.33 0 0 0 0 .28l.28.38a.78.78 0 0 1 0 .14h-.13l.1.12v.08l-.45.37a1.65 1.65 0 0 1-.27 1.15v.1h-.08l.09.28a.43.43 0 0 0-.09.12h-.13a.26.26 0 0 1-.21.17l-.24.49a.26.26 0 0 1-.14.06h-.1l.1.33-.43.18v.05a.89.89 0 0 0 0 .36l-.42.41v.06a3.91 3.91 0 0 0 .87 1.27.6.6 0 0 0 .15.18v.37h-.14l.2.4h-.06l.1.7h-.09l.09.28h.11l.19.33.32-.14.15.41a.46.46 0 0 0 .47.23h.16l-.11-.12a2.34 2.34 0 0 1-.23-.29l.67.15.11.36h.07a.57.57 0 0 1 .38 0l-.39.11a.69.69 0 0 0-.31.17h-.16l.06.11.07.14.12.43h.08v.11h.1a1.29 1.29 0 0 0 .44-.25h.13l-.1-.34.36.48h.25l.08.27.55-.19a.22.22 0 0 0 .07-.1l.41-.07c.53-.88.53-.88 1-1a.51.51 0 0 0 0-.33l.36-.1h.22a.63.63 0 0 0 .45-.19.18.18 0 0 0 0-.1l.16-.07v.08h.08a3.79 3.79 0 0 0 .74-.38l.19.11a6.3 6.3 0 0 0 1.35.63h.26a.33.33 0 0 0 .35.1.26.26 0 0 1 .23.07l.56-.28.1-.05.11.07.29.11a3.79 3.79 0 0 1-.76.09h-.13v.11h-.11c-.12.25-.16.26-.19.26h-.11v.07h-.12a1.4 1.4 0 0 0-.56.21l-.26.48-.49.14c-.24 0-.25-.08-.26-.11v-.05h-.05a1.39 1.39 0 0 0-.5 0h-.1v.07h-.09l.13.4-.8.14h-.25l-.11-.14-.1.08a.55.55 0 0 0-.3.41l-.47.08v-.09h-.22a.22.22 0 0 1-.16.17h-.1v.09l-.36.06c-.29.16-.38.22-.37.32l-.08.52a1 1 0 0 1 0 .13h-.05l.05.23h-.1v.11a2.67 2.67 0 0 0 .58.85.16.16 0 0 0 .11-.09l.09.48a1.72 1.72 0 0 1 0 .27h-.06v.09a3.46 3.46 0 0 0 .25.81 4.27 4.27 0 0 1 .22.65 1.2 1.2 0 0 1-.56.31 4.66 4.66 0 0 1-.7 0 .85.85 0 0 0-.37-.33l-.4-.32v-.52h-.11a2.34 2.34 0 0 0-.86.6h-.1v.18h-.1l.06.24a.47.47 0 0 0-.13.26h-.08l-.06.57h-.08v.57h-.1l.15.64a6.21 6.21 0 0 0 .11 1.05.38.38 0 0 0 .16.14v.21a.23.23 0 0 0 0 .12v.08h.1l.07.3h-.15l-.26.49h-.07a1.2 1.2 0 0 0 0-.6h.2l-.08-.37-.38.06.08.33c-.22.22-.52.5-.76.7v.63a.45.45 0 0 0 .27 0 6.22 6.22 0 0 0-.45 1h-.09a.27.27 0 0 0 0-.19v-.12l-.11.05a4.94 4.94 0 0 1-1 .42.62.62 0 0 1-.25 0h.05a.73.73 0 0 1 .26-.14h.09v-.25l-.54-.12a1.09 1.09 0 0 0-.29 0 .13.13 0 0 0-.1.05l-.51.16a.42.42 0 0 0-.2.16l-.4.07a.31.31 0 0 1-.22.21h-.09v.09h-.21v.09l-.48.09-.25.45h-.26v.08h-.42a.18.18 0 0 0-.1.1h-.23v.12l-1.71.57v.53h-.22v-.1l-.37.06a.63.63 0 0 0-.4-.14v-.15l-.2.13h-1v-.14h-.11a1.74 1.74 0 0 0-.82.66 1.23 1.23 0 0 0-.1.19h-.11a.14.14 0 0 0-.09.06l-.35.06v.1l-.44.23a.35.35 0 0 1-.24-.33v-.1h-.1v-.09l-.55.26h-.18a.52.52 0 0 1-.23-.41v-.1h-.1v-.2h-.14l-.22-.39v-.03h.07l.24-.53a.15.15 0 0 0 0-.11.13.13 0 0 0-.09 0l-.25-.19v.34l-.3.11v-.3h.14l-.16-.53.11.3v.05h.06c.28 0 .28 0 .37.27v.06h.68v-.92h-.14l-.1-.22-.06-.06h-.14a3.76 3.76 0 0 0-.62.15l.05-.47h.19v-.16a9 9 0 0 0 .1-1 .85.85 0 0 0 .56.13h.06l.15-.68h-.08a1.32 1.32 0 0 1-.79-.8 2.55 2.55 0 0 0-.36-.56l.3-.05v-.16l.37-.36-.11-.52a4.51 4.51 0 0 0 0-.65v-.19l-.14.13a.63.63 0 0 1-.33.23h.18v.11l-.42.16a.53.53 0 0 0-.11.33l-.31.58-.5.14h-.18v.02h-.28v.14a7.68 7.68 0 0 0-.72.69l.28.65.09-.14a3.85 3.85 0 0 1 .34-.43v.13h-.1v.29h.11a1.25 1.25 0 0 0 .25-.1.91.91 0 0 0 .15-.11.85.85 0 0 1-.59.54 2.64 2.64 0 0 1-.52 0h-.09V81a7.3 7.3 0 0 0 0 1 .34.34 0 0 0 .34.15.91.91 0 0 0 .15.21 1.89 1.89 0 0 0-.09 1.06.8.8 0 0 0 .53.28l.14.39a1.12 1.12 0 0 1 0 .13h-.07v.18a.55.55 0 0 0 .09.44.11.11 0 0 0 .06 0l.15.5h.08v.42h-.1v.09a1.9 1.9 0 0 0 .44.95h-.36a.89.89 0 0 0-.12.64l-.22.32v-.2h-.12a1.57 1.57 0 0 0-1.4.56h-.06v.05a2.48 2.48 0 0 0-1 .18h-.04v.03h-.2v-.08h-.11a1.64 1.64 0 0 0-.84.54.09.09 0 0 1-.07 0 2.23 2.23 0 0 1-.87.55c-.09.24-.12.29-.11.29h-.2V90h-.09v.06a10.26 10.26 0 0 1-.28 1.06 7.93 7.93 0 0 0-.33 1.41v-.1a.36.36 0 0 0 0-.11.18.18 0 0 0-.06-.06v-.13h-.94l.06.17a.8.8 0 0 0 .07.16l.07.1h-.14a.49.49 0 0 0-.3.18l-.43.15a.4.4 0 0 0-.18.16l-.44.07v.11l-.36.06-.37.33a.66.66 0 0 0-.49.3 5 5 0 0 0-.26 1.49.4.4 0 0 0 .13.23v.18a1.66 1.66 0 0 0-1.55 1.32h-.07v.11l-.34.06a3.12 3.12 0 0 1-1.25.43 2.14 2.14 0 0 0-.74-.58h-.09v.1a2.27 2.27 0 0 0-.19.89v.1h.1v.22h.11a9.45 9.45 0 0 0 .16.95.56.56 0 0 1-.46.37v-.27l-.14.1a.77.77 0 0 1-.37.16 2.33 2.33 0 0 0-.8.65.32.32 0 0 1-.12.07l-.23-.45h-.6a.73.73 0 0 0-.4.35 2.28 2.28 0 0 0-1 .29h-.06l.17.56.17.12v.15l-.3.31c8.06 1.91 16.46 3.52 25.07 4.81a1.25 1.25 0 0 1-.3-1 .38.38 0 0 1 0-.15h.05v-.05c.33-1 .32-1.09-.2-1.46v-.22h.12l.14.06h.06a.14.14 0 0 0 .11-.08h.2a.7.7 0 0 1 .5-.3 1 1 0 0 1 .63-.32h.06a2.6 2.6 0 0 1-.33.42l.11.35a.48.48 0 0 0 .21.14c0 .11.07.22.1.33a2.64 2.64 0 0 0 .3.74.8.8 0 0 0 .23 0 .15.15 0 0 0 .1-.06h.14l-.05-.35h.12v-.11l.34-.06v-.07c0-.23 0-.53.05-.77l.17-.14c.42.26.42.3.42 1.46v.07h.07a1.54 1.54 0 0 1 .65.38 2.61 2.61 0 0 0 .41.3l-.12.2a.61.61 0 0 0 0 .43v.07l.37.05v.09l.3-.05a.71.71 0 0 0 .47.16v.12h.12v.22h.41a.33.33 0 0 0 .17-.07v.1l.39-.14h.08c.3.16.3.16 1.26.77 2.58.32 5.17.62 7.77.88q4.71.47 9.41.79a1.14 1.14 0 0 0 .11-.14l1-.16v-.12h.22v-.12l.46-.08v-.17a.47.47 0 0 0 .15-.44h-.05c-1.31-.43-1.31-.43-1.52-.68h-.08l-.08-.35h-.11l-.07-.35h-.14a1.06 1.06 0 0 0-.42-.34v-.23a.54.54 0 0 1 .36-.19v-.08a6.49 6.49 0 0 0-.07-.71l.18-.26a.58.58 0 0 0 .08-.31h.07l.16-.35a.38.38 0 0 1 .26-.2h.09V104a7.16 7.16 0 0 0-.33-1.51h.18l.06-.36a.3.3 0 0 1 .11-.14h.12l-.06-.11a1.19 1.19 0 0 1-.09-.51l.27-.06a.58.58 0 0 1 .22-.19h.12l-.19-.37v-.07h.07l-.05-.23h.14l-.21-.35.19-.42-.32-.08v-.16a.91.91 0 0 0 .37.05h.12l-.19-.41a2.22 2.22 0 0 1 .25-.39 1.35 1.35 0 0 0 .37-.87c0-.16.08-.17.13-.18h.06v-.53l.35-.26h.09l.94-.27h.06v-.26l.27.24h.27l-.71.12h-.1v.11h-.11l.07.27h.57l.19.34h.08a.7.7 0 0 1 .8.29l.34-.06v-.04a1.32 1.32 0 0 0 0-.4A2.09 2.09 0 0 0 157 97l.15.24v.07l.4-.18a2.2 2.2 0 0 1 .32.53h-.5v.23l-.61.22v.05a.9.9 0 0 1-.2.37 1 1 0 0 0-.24.54v.11l1-.17v.08a.8.8 0 0 0 .44.05l.43.92v.06a1.23 1.23 0 0 0-.07.64v.14l.12-.07a.45.45 0 0 0 .16-.17.28.28 0 0 1 .1-.11 2.51 2.51 0 0 1 .53-.17l.28-.08h.08v-.13l.52-.3h.06v-.08l.39-.07v-.27l.6-.34v-.06a.35.35 0 0 0 .23 0 .34.34 0 0 0 .24-.23v-.06l.59-.1v-.11h.09v-.24l.07.26.58-.34.48.28a.33.33 0 0 0 .15.05 2.49 2.49 0 0 1 .32.46v.05l.63.13a.46.46 0 0 0 .37.2l.45.24.07.27h.13a.93.93 0 0 0 .27.29v.13l.35-.06a1.42 1.42 0 0 0 .36.27l.06.21a2.16 2.16 0 0 1 .49.33v.08h.24a.49.49 0 0 0 .38.17.75.75 0 0 0 .57.15.52.52 0 0 0 .37.17.59.59 0 0 0 .33.18v.08a.42.42 0 0 1 .25.26 2.47 2.47 0 0 1 1.13 1.58h-.07v.08a1.88 1.88 0 0 1-.26 1 .37.37 0 0 0-.06.15h-.21v.11h-.21v.12l-.31.05v.16l-.36.31a8 8 0 0 0-1.1-.22h-.13v.15h-.15a.68.68 0 0 1-.52.31h-.1v.1a3.82 3.82 0 0 1-1.08-.13 3.28 3.28 0 0 0-.52.05 2 2 0 0 0-1.1-.43l-.38.39-.51-.29a3 3 0 0 1-.35-.51v-.11l-.6.27a.26.26 0 0 1-.12 0l-.58-.4a4.74 4.74 0 0 1-.77.2l-.21.08h-.06a2.87 2.87 0 0 1-.42-.09v-.08l-1.2.21a4 4 0 0 1-1.07.65 1.86 1.86 0 0 1-.77.81.34.34 0 0 0-.12.26h-.17a1 1 0 0 1-1.4.47 2.84 2.84 0 0 1-1 .35 5.19 5.19 0 0 0-.69.18h-.06v.52l.81.09h.13l-.26.07a1 1 0 0 0-.44.31 3.06 3.06 0 0 1-.49.34c6.81.45 13.55.67 20.16.67q4.16 0 8.25-.12l-.12-.51v-.08h-.1l-.11-.48H181a2.34 2.34 0 0 1 .16-1 .82.82 0 0 0 0-.56l-.13-.14a1.3 1.3 0 0 0 .06-.57h.1v-.09l-.19-.6.22-.62a1 1 0 0 1 .56-.26h.1l-.08-.29h-.13a2.22 2.22 0 0 1-.43-.33v-.08h-.18v-.12h-.19v-.07a.44.44 0 0 1-.25-.27l-.38-.46a.53.53 0 0 0-.2-.23l-.06-.2-.48-.41a.36.36 0 0 0-.28-.12l-.81-.86a.23.23 0 0 0-.11-.06l-.09-.32a.43.43 0 0 1-.25-.26l-.47-.41a.59.59 0 0 0-.21-.23 10.23 10.23 0 0 1-.39-1.3v-.09h-.19l-.07-.23h-.08a4.08 4.08 0 0 0-.31-1.08v-.07l-.65.13-.35-.05-.24-.59c0-.22 0-.23.07-.23h.1v-.09l-.27-1.1a.53.53 0 0 0 .09-.31h.1l-.09-.44a7.65 7.65 0 0 0-.22-.92l.37-.06-.05-.15a.57.57 0 0 0 .18-.21l.08.22h.28v.11h.07v.48l.19-.22a.48.48 0 0 0 .08-.17v-.05h.24l-.06-.17a.36.36 0 0 0 .06-.31v-.11l-.15-.19h.18v-.34h.21a.16.16 0 0 0 .12-.06h.18l.11-.48.71-.12v-.06c.09-.31.14-.32.16-.32h.06v-.1c0-.18.08-.19.11-.19h.09v-.08a1.39 1.39 0 0 0 0-.62v-.08h.33a1 1 0 0 1 .53.54v.08l.56-.22V91l.56.06a.13.13 0 0 1 .15.1 1.72 1.72 0 0 1 .42.22l.45.27a.42.42 0 0 0 .16.11l.09.24.42-.07v.11h.09l.21.54a1 1 0 0 1 .35.48v.07h.11c.23.22.53.53.76.78a.4.4 0 0 1 0 .08h-.09l.2.55a2.68 2.68 0 0 0-.66.62.61.61 0 0 0 .09-.52h-.05l-.65-.13a6.27 6.27 0 0 0-1.29-.19h-.12l.38.78a.58.58 0 0 0-.24.21h-.21v.05h-.43a.16.16 0 0 0-.18.06h-.15l.41.63a.65.65 0 0 0 .21.26v.13l.41-.07-.19.29a2 2 0 0 0-1.13.22l-.13.08.64.38a.31.31 0 0 1 .18.12.76.76 0 0 1 .38.36v.08h.12l.4.4a1 1 0 0 0 .26.29.78.78 0 0 0 .15.46v.11h.05a6.19 6.19 0 0 1 1.12.34 1.71 1.71 0 0 1 .42 0v.06h.07c.33 2.1.33 2.1.43 2.26a.49.49 0 0 1 .21.18v.08h.27v-.1a1.65 1.65 0 0 1 .1-1h.19a1.78 1.78 0 0 1 .68 0l.19.65 1.1.76.06.49a2.54 2.54 0 0 1-.36.28 3.64 3.64 0 0 1-1 .41.24.24 0 0 0-.06-.19c-.3-.42-.41-.43-.55-.41h-.11v.1a4.5 4.5 0 0 1 .24 1.33 5.62 5.62 0 0 0 .16.8 2.87 2.87 0 0 1 .2.44v.08h.22c.16-.36.22-.37.29-.38h.09a6.56 6.56 0 0 0 .55 1.07.25.25 0 0 0 0 .22.63.63 0 0 0 .42.31v.12h.1a6.33 6.33 0 0 1 .33 1h-.09v.12h-.25v.09a8.75 8.75 0 0 0 .39 1.47 224.85 224.85 0 0 0 30-3.45 83.5 83.5 0 0 0-7-19l-.06-.11v-.06a84 84 0 0 0-59.65-44l-.91-.16-1-.15h-.81l.47.11V43h.13a5.78 5.78 0 0 0 .66.1h.67a1 1 0 0 0 .23.08.1.1 0 0 0 .07 0h.1l.53.12v.08l.61.39h.4l.31.07h.09c.24.06.49.11.73.15l.47.27h.08a3.22 3.22 0 0 0 .49.16h.29l.69.16h.17-.22v.32h.09l.41.36-.26-.07h-.09v.1a1.82 1.82 0 0 0 .4.23c.18.06.37.11.56.15l.29.07h.1v-.15l.2.06.4.13 1.28.41h-.43l.07.15a.2.2 0 0 0 .12.1h-.2l.31.11h-.1l.44.17h.18l-.49.08.41.2a4.9 4.9 0 0 0 1.41.5 1 1 0 0 0 .38.07l.25.08h.15l.23.07h-.4l-.28-.06-.52-.25h-.06l-.51-.19a2.34 2.34 0 0 1-.34-.11l-.58-.23-.36-.14-.29-.12a4 4 0 0 0-.58-.19l-.59-.2-.3-.11h-.22l-.54-.16h-.09v.18h.08a21.22 21.22 0 0 1 2.7 1l.19.07a1 1 0 0 0 .24.13h-.13l.37.16.48.2a7.19 7.19 0 0 0 1.38.61l.19.09.2.09c.67.28.67.28 1 .43l.11.08h-.06l.38.18.92.5h.14l.76.39h.15l.39-.06-.3-.15a.15.15 0 0 0 .07-.12l.07-.08h.14a2.45 2.45 0 0 1 .55.07.71.71 0 0 0-.2 0h-.22l.26.27h-.13l.17.09v.07a17.74 17.74 0 0 0 2.46 1.64h-.05l.24.2.23.13a5.5 5.5 0 0 1 1 .69.87.87 0 0 0 .17.14 5 5 0 0 0 0 .57h-.11l.31.2a2.1 2.1 0 0 1 1.09.46l.09.06a6.45 6.45 0 0 0-1.38-.44.13.13 0 0 0-.06.08h-.12l-.09-.06h-.21a1 1 0 0 0-.28-.1h-.06a2.4 2.4 0 0 1-.46-.2l.06-.11h.23c.16 0 .24-.05.26-.13a.1.1 0 0 0 0-.1l-.17-.05h.28v-.21h.16l-.49-.27a3.65 3.65 0 0 0-.44-.36l-.27-.16-.2-.23h-.08l-.29-.17-.22-.13-.45-.26-.25-.2-.75-.48-.61-.2a2.8 2.8 0 0 1-.4-.17 5.23 5.23 0 0 1-.53-.22l-.12-.08-.27-.12h-.08l-.1-.06h.11l-.27-.12-.44-.21-.29-.15-.35-.19h.08l-.31-.15-.26-.12-.5-.23a3.75 3.75 0 0 1-.53-.2 3.54 3.54 0 0 0-.6-.22l-.29-.07-.59-.25h-.05l-.35-.17-.25-.14-.27-.14-.41-.21-.19-.08-.82-.31-.55-.23h-.05v-.06l-.58-.21-.13-.09-.21-.08a3.25 3.25 0 0 0-1.46-.27 1.32 1.32 0 0 0-.3.09h-.18v.07c0 .07 0 .09.12.12l.2.16H153l.19.07.29.11.19.07.19.08.14.12.3.12.12.07a1.4 1.4 0 0 0 .3.18 3.76 3.76 0 0 0 .67.45l.15.09h-.06l.15.09h-.09l.16.19a2.2 2.2 0 0 0 .53.28l.26.12.37.17h.17l.29.14.25.12h.06a8.56 8.56 0 0 1 .92.46h-.17l.22.13 1 .58h.07a.94.94 0 0 1 .44.12h.26v-.08l.19.12a1 1 0 0 0 .26.23l.62.3h.14l.5.31h.1l.47.33.43.28-.14-.08-.2-.08-.1-.06h-.12l-.17-.1a3.57 3.57 0 0 1-.59-.24l-.47-.15-.14-.07h-.14a5.81 5.81 0 0 1-1-.24l-.52-.15-.05.11a5.19 5.19 0 0 0-.67-.3.38.38 0 0 1-.13 0l-.36.06a2 2 0 0 1-.38-.17.35.35 0 0 1-.27-.06l-.35-.07-.45.29h-.56l-.27-.17-.19-.1h-.07a2.8 2.8 0 0 0-.38-.1 2.09 2.09 0 0 1-.41-.12h-.09a6.82 6.82 0 0 1-1-.31l-.48.08h.08-.07l.29.13h.08-.06l.23.12a5.76 5.76 0 0 0 .91.41.14.14 0 0 0 .07 0h.17l.29.14h.08l.16.1.3-.05.09.11a.27.27 0 0 0 .16-.06h.07l.11.06h.07-.25.08-.08l.69.34.38.12.42.24a1.87 1.87 0 0 0 .32.16l.27.17.23.15-.43.06.42.44a6.11 6.11 0 0 1-1.34-.69h-.06l-.06.07a1.82 1.82 0 0 1-.27.27l-.08-.05-.39.07.12.11c-.16 0-.38 0-.74.06l-.31.53.22.18h-.12v.06a.92.92 0 0 0-.12.21H155a.86.86 0 0 0 0-.1h.22l-.75-.35a2.11 2.11 0 0 1-.35-.23h-.25l-.44-.41v.16a.29.29 0 0 0 .07.32l.09.37-.07-.06h-.06a1.33 1.33 0 0 1-.62.37h-.19l.08.07a1.57 1.57 0 0 0-.06.3h-.06l-.22.46a.29.29 0 0 0-.23.17.19.19 0 0 0 .07.18H152a.1.1 0 0 0-.09.07v.07l.09.57h-.1l.52.52.29.34-.32.22a.19.19 0 0 0-.06.08l-.4.07v.07a.09.09 0 0 1-.06.09c-.94-.76-1.15-.93-1.23-1h.1l-.21-.21a.4.4 0 0 0 .23-.16l.38-.18h.24l-.2-.13a1.47 1.47 0 0 0-.31-.17l-.13-.12-.16-.15-.51-.19a1.16 1.16 0 0 1-.33-.22 2.1 2.1 0 0 0-1.5-.3l-.24-.21h-.11l-.06-.06h-.25l-.54-.12a.57.57 0 0 0-.28-.07h-.23l.2.13a4.61 4.61 0 0 0 1 .5l.19.27h.11l.2.19h-.06l.12.12h-.05l.12.13v.09c0 .12.05.19.06.23h-.02l.06.11a2.37 2.37 0 0 0 .41.66h.13l.53.27a.67.67 0 0 0 .14.16l.08.46.08.15.33.54a.36.36 0 0 1 .05.25l-.3-.37h-.19a1 1 0 0 0-.54-.13 1.21 1.21 0 0 0-.69-.18h-.07v.12a.45.45 0 0 1 0 .15 2 2 0 0 0-.31.92.25.25 0 0 1-.07.17h-.15l.13.16a1.86 1.86 0 0 0 .67.78.38.38 0 0 1 .14.09l.48.19a5 5 0 0 1 .4.31h-.23l-.49.08v-.05a2.08 2.08 0 0 1-.32-.05h-.28l-.39-.11-.07.11-.12.17-.34-.49a4.25 4.25 0 0 1-1-.27l-.16-.06.12.65h-.26v.07h-.11l.13.13a.94.94 0 0 0 .48.34 2.76 2.76 0 0 0 .91.41 2.63 2.63 0 0 1 .6.68.15.15 0 0 0 0 .11v.07l-.18.14.14.22-.09-.14a5.27 5.27 0 0 0-1.42 0l-.24-.38-.62-.2-.08.09a.66.66 0 0 1-.41-.31v-.05a.81.81 0 0 0-.23-.26l-.1-.16h-.15l-.32-.51v-.05h-.08a2.08 2.08 0 0 0-.31-.3L144 59l-.48-.3a2.78 2.78 0 0 1-.41-.22v-.05l-.49.08v-.06h-.14v-.07l-.39.07-.28-.06h.05v-.07h.07l-.42-.32H141l-.15-.48h-.08l-.39.07h-.08a2.62 2.62 0 0 0-.75-.63.94.94 0 0 1 .49.28v.05h.1a1.38 1.38 0 0 1 .25.11v.05h.67l.5.18a.41.41 0 0 1 .26.18l.33-.06-.14-.21a3.22 3.22 0 0 0 1.23.33 2.36 2.36 0 0 0 .6 0l.47.12a.08.08 0 0 1 .05 0l.6-.1v.06h.2v.07h.05l1.19-.13h.16l-.06-.07h.05v-.21h.15v-.07h.13l.17-.1h.1l.17-.57-.11-.14.06-.41h.16l-.11-.12-.76-.8h-.08a.57.57 0 0 0-.29-.09l-.42-.31a.45.45 0 0 1-.2-.13h-.57a.58.58 0 0 1-.22-.14h-.05l-.11-.12h-.2l-1-.26a1.71 1.71 0 0 0-.44-.14v-.05a6.53 6.53 0 0 1-1-.19h-.22l-.71-.18a.6.6 0 0 0-.35 0zm-14.22 1v.06a1.2 1.2 0 0 1 0 .13v-.29h.23zM115 72.33a.22.22 0 0 0 0 .07h-.09v-.03h-.17a.81.81 0 0 0 .25-.3l.18.06v.06h.33zm9.33 2.58a.65.65 0 0 1-.19.17l-.14.1v.12l-.07.06-.16.14h-.3v.15a1.54 1.54 0 0 1-.68.28v-.09h.1v-.1a.9.9 0 0 1 0-.64.43.43 0 0 1 .2-.12.35.35 0 0 1 .13 0h.14a.4.4 0 0 0 .23-.38h.14l-.15-.44h.07v-.27h.11v.25h.51a1.76 1.76 0 0 1 .17.45zm1.24.26v.3h-.15c0-.09 0-.19.06-.3a.85.85 0 0 0 0-.09.3.3 0 0 1 0-.13V75h.07zM128.7 73v.09h.12A.28.28 0 0 0 129 73a.17.17 0 0 1 .09-.06l.23.06-.72.06-.07-.06h.17zm-.63-18.31v-.06H128l-.06-.22.14.26zm3.44-.85a2.32 2.32 0 0 1 0-.38 2.29 2.29 0 0 1 .06.29zm.88-.72l-.07-.12h.13zm.07-.18l-.1-.11-.05-.06h-.05l-.05-.1a.26.26 0 0 0 0-.1h.14v.06a1 1 0 0 0 .12.3zm-19.75 39.65zm4.29-3.83a.91.91 0 0 1-.07-.29l.14.27.08.06zm1.69-8.59a.48.48 0 0 1 0-.09.15.15 0 0 0-.09-.08v-.13l-.12.06a.45.45 0 0 0 .15-.14h.36l.22.44.08.17a.59.59 0 0 0-.57-.23zm23.15-6.82a.93.93 0 0 0-.33-.38h-.08a.5.5 0 0 1-.11-.25.44.44 0 0 0-.22-.28.53.53 0 0 1 0-.42l.33-.06.31.63v.06h.08l.06.17h.06a2.59 2.59 0 0 0 0 .56zm33.64 33a.51.51 0 0 0 .17-.07.86.86 0 0 0 .32.25h-.07a.18.18 0 0 0 0 .07.74.74 0 0 1-.58-.29h.21zm7.06-9.88l-.33.09h-.27l.43-.06v-.05a.25.25 0 0 0 0-.16.58.58 0 0 0 .08-.29l.09.27h-.08zm.1-.82c-.08.18-.11.22-.11.22h-.09a2.64 2.64 0 0 1 .22-.28zm22.68.12a.66.66 0 0 1 .17-.11.51.51 0 0 0 .32-.34.44.44 0 0 1 .23 0v.07a.38.38 0 0 1 0 .21h-.17v.09l.07.45a.07.07 0 0 1-.07 0 .23.23 0 0 0-.23.13 1.5 1.5 0 0 1-.21-.14 1.69 1.69 0 0 0-.25-.16.32.32 0 0 1 .18-.25zm-5.26-6.6l-.06-.39a2.23 2.23 0 0 0 0-.23l.28.07v-.15c0-.15-.09-.36-.12-.53l.17-.22c-.05-.32-.07-.38.29-.53v.06l.39-.07-.01-.11h.1v-.06a1 1 0 0 0 .66 0 .54.54 0 0 0 .21.16l.03.09.38-.14a.41.41 0 0 0 0-.07l.21.09v-.09a1.14 1.14 0 0 0 0-.63v-.16a.14.14 0 0 0 .06-.06.14.14 0 0 0 0-.08h.1l.07.17v.11h-.07l.06.11.19.25.06.11h-.09l-.28-.07.1.2.14.27a1.16 1.16 0 0 0-.78 0v.06a.53.53 0 0 0-.35-.11l-.05-.11h-.2l-.05-.1-.39.07-.11.26.24.5a1.22 1.22 0 0 0-.05.25H201v.09a4.25 4.25 0 0 1 0 .6v.12a1.19 1.19 0 0 0 0 .15h-.12v.1h-.21l.09.19a.63.63 0 0 0 0 .34c-.07.24-.1.28-.09.28h-.11v.1a3.18 3.18 0 0 1 .17.76l.27.56h-.05a2.21 2.21 0 0 0-.46-.76 1.2 1.2 0 0 1-.38-1.33l.06-.14h-.08zm-12.16 3.35l.23.36.4-.07v-.11h.06l-.17-.71c0-.31.07-.32.14-.33h.08v-.16a1.17 1.17 0 0 0-.06-.36l.55-.09-.33-.48.4-.17a1.31 1.31 0 0 0 .09-.23.54.54 0 0 1 .21.08l.39.41 1-.06-1.07.18-.05.66h-.1l.33.66v.11a3.38 3.38 0 0 0 1.21 1.65 1.22 1.22 0 0 1 .45.22 2.44 2.44 0 0 1-.19.2h-.14l.36.53h-.19l.07.19a.55.55 0 0 0 0 .28v.07c0 .34-.11.8-.18 1.15a.69.69 0 0 0 0 .15l-.49.22-.09.07a1 1 0 0 0-.18-.51l-.09-.25h-.08v-.11h-.24v.09c0 .27.06.59.07.88-.14-.31-.31-.67-.47-1a.29.29 0 0 1-.06-.11l-.15.07-.49.59a.31.31 0 0 1-.4-.26.18.18 0 0 0 0-.16l-.09-.25h-.13a.46.46 0 0 0-.13-.31 7.89 7.89 0 0 1-.44-3.14zm-27.79-45.79a1.83 1.83 0 0 1-.3-.06h-.07l-.61-.18h-.07.16l.9.24zm4 1.57l-.47-.23-.16-.07.67.28h-.06zm3.5 2.7l-.89-.48.35.15.49.21.19.12a1.11 1.11 0 0 0 .13.17zm1.39.75h.07l.28.1h-.05l.12.07zm-10.55 44.74l.06.2 1.32-.22v-.27a.39.39 0 0 0 .2-.13v-.06h.16l.19-.49h.08l.07.24h.09a9.94 9.94 0 0 0 2.48-1.81l.18-.07v.05l1-.3.07-.09h.16v.09l-.34.28a.45.45 0 0 1-.27.12h-.1l.09-.03a2 2 0 0 0-.25.28v-.06l-.37.06v.09a.74.74 0 0 0 .15.49v.08a7.08 7.08 0 0 0-1 .29v.11h-.15l.22.13a1.09 1.09 0 0 0 .75.24 1.61 1.61 0 0 1 .23.24h-.15l-.14.61h-.14v.1l.14.48-.21.1v-.09l-.6.1v.1l.1.37-.47.28v-.24h-.12v-.13h-.09l-.6.22h-.08v.07h-.55v.13a.09.09 0 0 1-.05 0v-.06l-.7.23a1.45 1.45 0 0 1-.31-.78v-.02h-.59a.7.7 0 0 0-.19-.25.31.31 0 0 0-.23 0h-.06a.22.22 0 0 1 0-.07l-.43-.22-.08-.28a1.23 1.23 0 0 0 .53-.11zm-5.73-26h.07a.18.18 0 0 0 .09 0l.38-.06-.06-.11-.2-.55.13.09.07.05h.06a.46.46 0 0 0 .18.12h.87l-.14.08-.08.05.3.43h-.35l.2.39a.81.81 0 0 0-.25.11l-.27-.1-.08.01h-.28a2 2 0 0 0-.27-.21H153l-.07-.14-.49-.23h.24zm-.4-1.28a2.4 2.4 0 0 1 .25.26h-.1l-.07-.12h-.08a.3.3 0 0 0 0-.06zm-1.45-2v-.07h.13a1.14 1.14 0 0 1 .22.08h.11v.12l-.33.05v-.07h-.36zM147 65.43v-.08h-.08v-.07h.13l.06.08h.08zm.33-1.43l.22.3h-.06l.31.56h.08l.12.3a1.7 1.7 0 0 1 .9.59h.05v.16h.05V66a.9.9 0 0 0 .06.17.53.53 0 0 1 .06.22.36.36 0 0 1-.09.12H149l-.17-.32h-.11l-.78-.48h-.24a.32.32 0 0 1-.06-.1.41.41 0 0 0-.16-.19.5.5 0 0 0-.16 0h.16l-.21-.4h-.08.25a.21.21 0 0 0 .14-.19v-.05l-.3-.54v-.06h-.08l-.1-.18-.41.25a.48.48 0 0 0-.18-.09l-.11-.16zm-2.08-1.72v.06l.28.1.08.15a.52.52 0 0 0 .33 0 .92.92 0 0 1-.28.08h-.34a1.47 1.47 0 0 0-.48-.45l-.16-.11zm-2.82 4.15a1.5 1.5 0 0 0 .34 0h.12l-.11-.24h.08v-.08h.06l.08.1h.26a.56.56 0 0 1 .3 0 .25.25 0 0 1 .12.14.49.49 0 0 0 .17.2h.24a.84.84 0 0 0 .56.24l.2.11.06.14a3.9 3.9 0 0 1 1 .85h-.47l.08.15a1.61 1.61 0 0 0 .21.32h-.22a.94.94 0 0 0-.42.13.56.56 0 0 0-.2.38h-.41a.93.93 0 0 0-.66-.67l-.07-.16a.58.58 0 0 1-.48-.4.92.92 0 0 0-.73-.54l-.15-.16-.11-.12a1.9 1.9 0 0 0 .15-.37zm42.9 95.57a2.29 2.29 0 0 0-.46.37h-.25v.1h-.16v.13a1.31 1.31 0 0 0-.41.25h-.25v.1l-.53.08a1.36 1.36 0 0 0-.59.22h-.14a.94.94 0 0 1-.56.28h-.06v.12l-.47.28a.45.45 0 0 1-.24.2H181v.11h-.17v.1h-.18a4.24 4.24 0 0 0-1.87.43 2.42 2.42 0 0 1-.6.29.36.36 0 0 0-.16-.15v-.13h-.26l-.26-.58a.44.44 0 0 1-.17-.4l-.41-.39a1.85 1.85 0 0 0 .15-.26h.16c.19-.34.25-.41.25-.41h.07v-.07a1.11 1.11 0 0 0 0-.56v-.43h-.07l-.18-.08a9.2 9.2 0 0 1-.79-1 .55.55 0 0 0-.11-.38 5.55 5.55 0 0 1-.53-.71 3.35 3.35 0 0 0-1-1.11h-.15v-.09h-.09v-.36l-.56-.43a.34.34 0 0 0-.25-.16l-.43-.18v-.6a9.77 9.77 0 0 1-.08-1.59v-.11h-.08a.68.68 0 0 0 0-.49v-.28h-.1v-.32H173v-.22h-.1v-.55h-.15a.59.59 0 0 0-.26-.28c-.15-.12-.29-.26-.43-.39a3.9 3.9 0 0 0-1-.75l-.05-.18c-9.54-.11-19.28-.65-29-1.62a329.9 329.9 0 0 1-43.2-7.19 2.59 2.59 0 0 1-.44 1.55l.06.24c-.19.59-.3.89-1.88 3.2a2.29 2.29 0 0 0-.07.31h-.65l-.11.7c0 .15-.07.18-.07.18h-.1l.15.53a.66.66 0 0 0-.06.47l-.38.43.07.24-.33.74.07.24a1.46 1.46 0 0 0 .05.84l-.06.57a.69.69 0 0 0-.06.31h-.1l.1.36h-.08l.08.24h-.09l.09.35h-.1l.1.43-.11.57a.18.18 0 0 1-.14.11h-.02v.06a.88.88 0 0 1 0 .18h-.09l.07.22h-.13v.09c.06.35.09.5.11.59h-.08l.14.67a1.12 1.12 0 0 0 0 .67l-.08.61a.63.63 0 0 1-.11.39h-.03v.06a1.62 1.62 0 0 1-.09.3h-.11l.33.64h-.08l.08.3h-.1l.3.63a.31.31 0 0 0 .25.25l.37.5a1.14 1.14 0 0 1 .43.41v.07H96v.57a.34.34 0 0 0 .18.15l.29.47a2.61 2.61 0 0 0 .23 1.06v.07h.11a1.32 1.32 0 0 0 .32.37l.14.33h.08a11.3 11.3 0 0 0 1 2.25c.09.19.13.3.15.35l.14.3h-.05v.11l.14.3h-.03l.09.2h-.08l.29.8a1 1 0 0 0 .25.41l.21.4.06.68c-.07.15-.1.18-.09.18h-.1l.18.54a.28.28 0 0 1-.11.08h-.23l.19.13a5.14 5.14 0 0 1 1 1 7.76 7.76 0 0 0 .68.74v.09h-.12l.43.6a1.7 1.7 0 0 1 .25.17.36.36 0 0 0 0 .34 6 6 0 0 1 .93.72.85.85 0 0 0 .44.06l.1.19.33-.06.29.41a.38.38 0 0 0 .23.31l.51.19.12.21h.27l.5.41a.67.67 0 0 0 .2.35l.11.2h.1l.2.22a2.18 2.18 0 0 1 .8.81v.06h.16l.23.39.59.1.26.45h-.12l.13.13a.8.8 0 0 0 .35.26 3.08 3.08 0 0 1 .4.29h-.21l.14.24.58.09.26.44h-.15l.17.19.07.08h.08l.07.11h.27v-.06a3.22 3.22 0 0 1 .51.43.54.54 0 0 0 .26 0 1.08 1.08 0 0 0 .65.08l.49.3a.92.92 0 0 1 .26.25.84.84 0 0 1 .4.26v.05h.11a.65.65 0 0 0 .42.11 28.23 28.23 0 0 1 3.13 1.63l.36-.06v.05l.65.29a2 2 0 0 0 1.44-1.49l1.6-.27v.07a2 2 0 0 1 .35.06v.06h.22a3 3 0 0 0 1.18 0h.12l-.06-.12a1.32 1.32 0 0 0 .9-.04h.22v-.08h.25v-.08l.44-.07c.11-.25.17-.26.24-.27h.12v-.08h.17v-.08l.94-.16v-.08h.26a.69.69 0 0 1 .48-.25h.14l-.38-.55h.09a.79.79 0 0 1 .2.19v.07l.37-.06a.32.32 0 0 0 0 .11v.11l.09-.07a2.18 2.18 0 0 1 .33-.23h.11L127 181a.13.13 0 0 0 .11-.05h.25a1.73 1.73 0 0 1 .78-.74.27.27 0 0 1 .23-.19h.11v-.09h.09l.1.26 1.31-.22c.3.16.73.37 1.08.52a.38.38 0 0 1 .31.27v.07h.2a1.6 1.6 0 0 1 .31.92v.11h.13l.09.25h.09v.14l.56.26.07.21.72-.2a.35.35 0 0 0 .21-.24.78.78 0 0 0 .48-.17.36.36 0 0 0 .32-.26.78.78 0 0 1 .33-.2v.08h.08l.09.25.36-.06-.08-.25.62-.05.08.54.72.11.1-.1a1 1 0 0 0 .23.45l.09.32a.29.29 0 0 1 .2.17v.08h.1a2.14 2.14 0 0 1 .09.23l.1.33h-.09l.2.66.12.63h.11v.07a2.15 2.15 0 0 0 .48 1.67l-.47.08.11.33h.11a.63.63 0 0 1 .08.13h-.11v.1a4 4 0 0 1 .23 1.13l-.35.06.16.47h.08v.07h.28l.46.27a.32.32 0 0 0 .18.22l-.45.08.7.48.06.19h.2l.48.3a1.17 1.17 0 0 0 .49.22l.36.36a.31.31 0 0 0 .1.2v.13l.57.25a1.4 1.4 0 0 0 .45.27l.06.22h.16l.31.52h.12v.14h.15v.11a.38.38 0 0 0 0 .34v.09a.84.84 0 0 0 .46.38h.34l-.36.06.12.25a.27.27 0 0 0 .1.09v.15h.34l.05.19h.09a.47.47 0 0 0 .29.33v.16h.08l.21.53h.14v.16h.14v.2a.2.2 0 0 0 .11.14l.06.09.09.07-.12.11v.07c.06.1.07.11 0 .21l.15.36.11.41h.06l.06.23a.34.34 0 0 0 .24.39.56.56 0 0 1 0 .13V198h.13c0 .06 0 .11.05.17v.08h.06l.1.38h.05l.1.53h-.06l.07.26v.07a1.42 1.42 0 0 1 0 .2h-.15v.09l-.09.07.08.27-.08.18h-.15v.09l.09.4h-.13l.05.11.19.41a.32.32 0 0 0 0 .38v.31h-.08v.31h-.07v.1a.94.94 0 0 0 .17.29.52.52 0 0 1 .16.37l.15.35h-.05l.06.11.26.48a.94.94 0 0 1 .36.19 1.18 1.18 0 0 0 .37.2.63.63 0 0 1 .06.19.17.17 0 0 0 .06.09l.05.13.14.25h.06v.07h.23a.55.55 0 0 0 .29.2l.07.06v.08a.21.21 0 0 0 .11.17l.11.11.1.1v.09a.27.27 0 0 0 .07.15.58.58 0 0 0 0 .13l.17.34v.07l.07.09v.08a.76.76 0 0 1 .06.22v.07l.05.14.08.13a.37.37 0 0 0 .1.07h.07v.07a.43.43 0 0 0 0 .08.11.11 0 0 0 0 .11v.06h.35c.2 0 .3-.07.65-.18l.15-.06h.14c.64-.24.64-.24.76-.3h.07l.1-.05h.14a5.79 5.79 0 0 0 .63-.34l.24-.16a1 1 0 0 0 .21-.17l.08-.07.28-.16.29-.11.11-.05h.16l.14-.06.14-.08h.11a4.25 4.25 0 0 0 .4-.25l.18-.15.15-.13.31-.26.25-.21.14-.13.29-.28.07-.07.17-.18.07-.07.87-.23v-.05a1.4 1.4 0 0 1 .78-.84.69.69 0 0 0 .12-.11c.12-.08.24-.17.34-.25a3.32 3.32 0 0 1 .37-.27l.27-.34.12-.14h.25l.17-.08h.24l.08-.11a3.21 3.21 0 0 0 .33-.18 2.13 2.13 0 0 1 .46-.23l.08-.05h.19v-.07a2.17 2.17 0 0 0 .45-.34.25.25 0 0 1 .11 0l.19-.16.28-.32a2.4 2.4 0 0 0 .45-.33l.1-.09.14-.22a1.75 1.75 0 0 0 .46-.61 2.86 2.86 0 0 1 .22-.35l.06-.07.08-.11.33-.5.11-.07a.2.2 0 0 0 0-.09l.16-.24h-.06l.21-.38.28-.44.3-.5.1-.17.15-.19h-.11l.16-.33.07-.16v-.06l.06-.06.24-.45.09-.16h-.15a.41.41 0 0 0-.12-.46l.07-.19a.16.16 0 0 0 0-.05l.25-.53.07-.16h.45l.18-.38.07-.16h-.06a3.3 3.3 0 0 1 .32-.48 1.91 1.91 0 0 0 .48-1 .32.32 0 0 0-.06-.09v-.11l-.11-.07a1 1 0 0 0 0-.26l.14-.49v-.09a.6.6 0 0 0 .12-.16h.07l.11-.3h.05a3.87 3.87 0 0 1 .24-.42l.31-.54a5.1 5.1 0 0 0 .4-.57h.07l.15-.61a1.66 1.66 0 0 0 .19-.39h.12a7 7 0 0 1 .81-1h.27l.34-.49a1.11 1.11 0 0 0 .27-.37h.07v-.1l.49-.29a3.62 3.62 0 0 1 .21-.41l.12-.36a1.53 1.53 0 0 0 .5-.72 1 1 0 0 0 .31-.37l.31-.47a2.15 2.15 0 0 0 .48-.59.41.41 0 0 1 .21-.18 10.82 10.82 0 0 1 .77-.89.16.16 0 0 1 .08-.05 3 3 0 0 0 .44-.55.82.82 0 0 1 .31-.28.4.4 0 0 1 .21-.18l.47-.39a.4.4 0 0 0 .2-.17.71.71 0 0 0 .22-.29l1-1a2 2 0 0 0 .43-.6.78.78 0 0 0 .34-.24l.47-.43.16-.53.44-.37a.39.39 0 0 0 .21-.19l.36-.57a.89.89 0 0 0 .23-.29h.48l.07-.23.18-.2.07-.21a7.43 7.43 0 0 0 1.21-2.12v-.07h.05l.24-.64v-.06h.18l.08-.29h.07a7.23 7.23 0 0 1 .58-1.13l.24-.54a1.5 1.5 0 0 0 .41-.61 4.55 4.55 0 0 0 1.09-2.21v-.08h.06v-.06l.1-.45h.09v-.19h.07v-.06l.12-.55h.08v-.06c.1-.46.2-.92.29-1.39h.1V163zm-43.88 4.33a.29.29 0 0 1-.27-.13.33.33 0 0 0-.33-.09 1.26 1.26 0 0 0-.25.08l-.18.11a.48.48 0 0 1-.29.13.76.76 0 0 1-.22-.09.21.21 0 0 1 0-.07.46.46 0 0 0-.05-.1h-.16v-.24h.31v.12l.36-.06.14.17a.46.46 0 0 0 .32-.11.49.49 0 0 1 .35-.13v.1h.35v.25h-.11v.07zm16.19 28.22h-.06l-.09.09a.56.56 0 0 0-.07.12.3.3 0 0 1 .19-.27l.15-.08zm5.5-13.14l.07-.11v-.07h.15v.08h.08v.23a.31.31 0 0 1-.14 0 .42.42 0 0 0-.17 0zm-1.22 0h.08a1 1 0 0 0 .18-.31v.24a2.36 2.36 0 0 0-.32.3zm-.39.46a1.23 1.23 0 0 1 .11-.16h.14a3.66 3.66 0 0 0-.3.44zm-2 3.11l.24-.12v-.22h.06l.1-.26h.22v.09a4.54 4.54 0 0 0-.5.68.23.23 0 0 0-.09-.09zm-.28 1.21h.15v.4l-.07.15-.07.16-.28.09a1.27 1.27 0 0 1 .25-.81zm.4 6.32l-.24-.23a.27.27 0 0 0-.16-.12v-.09a3 3 0 0 1 0-.38.22.22 0 0 0-.05-.07v-.28h-.12v-.2l.15-.44a.87.87 0 0 0 0-.42v-.29h-.07v-.15h-.06l.12-.46a3 3 0 0 1 0-.34l.12-.66c.36.46.38.63 0 2.08-.12.54-.14.66-.16.77v.24l.35.07v.05h.11v.19h.13v.08a.41.41 0 0 0 .16.06v.08a3.36 3.36 0 0 0-.22.66zm.66 1.19v.05h-.1v-.14h-.15a.51.51 0 0 0-.3.13c0-.05 0-.12.07-.22v-.05a.15.15 0 0 0 0-.06v-.19h-.06l.08-.34h-.09v-.23h.13a.82.82 0 0 1 0 .17.26.26 0 0 0 .07.09v.08a.22.22 0 0 0 .09.08l-.07.27h.2a.57.57 0 0 1 .06.15zm.52 3.51v.08h.08l-.09.2-.07.14a.22.22 0 0 0 0 .14l-.06.12-.07.15c.29-.55.34-.63.26-.7a1.88 1.88 0 0 1 .25-.45l.05-.08zm.87-1.95l-.08.16h.1v.13h-.06l-.28.8-.17.34h-.16l.05-.08h-.1l.13-.33.1-.06.15-.37.06-.15h-.05c.1-.26.2-.52.3-.79l.06-.15h-.07v-.2.08h.08l.11.08zm3.3-11.37a.74.74 0 0 1-.23.49.68.68 0 0 0-.26.51.91.91 0 0 1-.22.61l-.29.17v.07h-.6v.38h.6v-.1a.29.29 0 0 0 0-.09h.15l.07.28h.27l-.05.12a1.49 1.49 0 0 0-.53.1 1 1 0 0 1-.07.15v.07l-.32-.07-.52-.11h-.12v.28l-.45.22v.06a.35.35 0 0 0 0 .21h-.1v-.09l-.11-.07.12-.2h-.22l.07-.14a.17.17 0 0 0-.11-.07.11.11 0 0 1 0-.09h.08v-.23h.06a.72.72 0 0 0 0-.21.61.61 0 0 1 0-.17.41.41 0 0 1 .15-.17v-.05a.69.69 0 0 0-.16-.28.51.51 0 0 1-.12-.21 1.17 1.17 0 0 0 .3-.56.43.43 0 0 0-.08-.33.65.65 0 0 1 .08-.23h.1v-.28l.38-.29h.43v-.06a.06.06 0 0 1 .06 0v.15l.42-.07v-.05l.13-.38h.07v.17h.23v.14h-.1v.08a.3.3 0 0 0 0 .17v.17h.25a.32.32 0 0 0 .08.23v.13h.1a.31.31 0 0 0 .28-.13zm3-4.76c-.09 0-.09-.06-.08-.19a.64.64 0 0 0 0-.39 1.07 1.07 0 0 0-.28-.27l-.1-.08.05-.34h-.15l.13-.45h.09l.08-.55v-.24h.1l-.06.41v.13h.08v.18h.06l-.16.6v.14h.13l.06.41.16.1zm2.22-13.42a1.13 1.13 0 0 1-.21-.09l-.14-.07v-.38l.63-.18a1.11 1.11 0 0 1-.25.72zm36.16-15.58v.13h.05l-.15.65v.13h.05l-.11.45h.05l-.11.45-.06.23h.06l-.05.29a.69.69 0 0 0 0 .27l-.11.27h.05l-.06.22h.05l-.06.22-.09.33-.09.33h.2l-.09.33-.12.42v.14h.06l-.21.84v.13l-.26.84v.14l-.11.33-.07.22h.06l-.09.33a.93.93 0 0 0 0 .31l-.06.17a2.33 2.33 0 0 1-.06.78v.63a.28.28 0 0 0 0 .14 5.65 5.65 0 0 0-.3 1.31 1 1 0 0 1-.06.37l-.06.15h.06l-.08.23-.17.21-.07.17c0 .24-.1.57-.13.81v.39l-.15.35-.09.21v.06a.48.48 0 0 1 0 .25l-.07.15v.08c0 .19.12.26.25.24l.06-.13.32-.35a5.91 5.91 0 0 0 .33-.62l.28-.28a2.23 2.23 0 0 0 .3-.47l.1-.24.18-.24.08-.2.28-.35.21-.38h.19a7.51 7.51 0 0 0 .35-.76l.06-.15.08-.21.36-.92v-.1a34.14 34.14 0 0 0 1.65-4.17c.25-.74.38-1.12.64-1.95l.07-.22h.05l.05-.45c.07-.27.14-.51.21-.75v-.16l.21-.35a1.6 1.6 0 0 0 .1-.2 5.44 5.44 0 0 0 1.09-1.17c.15-.37.21-.54.25-.67q-2.62.35-5.29.65z" transform="translate(-1.36 -2.69)"/><path class="cls-11" d="M175.79 152.17a2.44 2.44 0 0 0 .46 1 .71.71 0 0 0 .18.18v.3a.53.53 0 0 1 .23.43l.41.44a6 6 0 0 1 .11 1.86h-.09v.22a1.71 1.71 0 0 1 .11.88c-.15.3-.16.36-.12.41v.61a.22.22 0 0 0 .08.12v.25h.08l-.11.48a.45.45 0 0 1 .12.31 2.81 2.81 0 0 1 0 1.19v.13h.12v.6h.08l1.26.09a.79.79 0 0 1 .49-.27h.07v-.1h.23l.34-.62a.64.64 0 0 1 .4-.22h.07v-.12l.51-.16h.07v.07l.53-.09v-.13l.41-.34a.44.44 0 0 1 .16 0 1.86 1.86 0 0 0 .42-.58l.41-.14a.08.08 0 0 0 .1.06h.05v-.11l.48-.08.3-.53a2.75 2.75 0 0 0 .41-.43h.15a.58.58 0 0 1 .39-.26h.07v-.12l.53-.31V157h.24v-.11h.16v-.11h.21a3.6 3.6 0 0 0 .39-.47h.13a7.35 7.35 0 0 0 .89-1 .38.38 0 0 1 .27-.2h.06V155h.11v-.09a1 1 0 0 0-.1-.32h.07v-.07l.05-.41a1.35 1.35 0 0 1 .45-.36h.07v-.11h.28l.49-.46a.81.81 0 0 0 .52-.38 1.19 1.19 0 0 0 .42-.28l.46-.08a.39.39 0 0 1 .2-.22h.07v-.16a1.2 1.2 0 0 0 .23-.57q-7.82.44-15.92.47a3.5 3.5 0 0 1 .74.21zm-75.21-66.45h-.26a1.74 1.74 0 0 0-.14.55v.12l.37-.06zm20.92-2.03h-.26v.06l-.21 1v.18l.17-.08h.1a.23.23 0 0 0 .07-.07h.15v-.3h.11zm5.15-1.03a.68.68 0 0 1 .24.17h.05a1.26 1.26 0 0 0 .4-.17l.09-.05v-.07a.73.73 0 0 0-.31-.45 1.69 1.69 0 0 0-.71-.16h-.13v.19a1 1 0 0 0 .14.42.42.42 0 0 0 .23.12zm7.8-7.95h.12a.52.52 0 0 0 .43.29h.08-.23l.15.48h.25V75a.48.48 0 0 0 0-.12.13.13 0 0 1 0-.07 1.64 1.64 0 0 1 .55-.15h.2v-.09a1.51 1.51 0 0 1 .11-.41 1.44 1.44 0 0 0 .12-.5v-.18h-.1l-1 .07H135v.1h-.19v.13a.47.47 0 0 1-.21.14.27.27 0 0 1-.21-.09h-.23zm-3.78 1.7l-.11.37-.13.43h-.24v.1a1.78 1.78 0 0 0 .22.59 1.21 1.21 0 0 0 .18.2.46.46 0 0 0 .14.08h.08a.25.25 0 0 0 0 .09.18.18 0 0 0 .08.06l.12.07v-.14a.92.92 0 0 0 0-.12.32.32 0 0 1 0-.15.46.46 0 0 1 .14-.13l.1-.08v-.18l.19-.13-.18-.42v.03a1.59 1.59 0 0 0 .06-.75l.22-.11h.06l-.07-.34-.46.08v.36a.53.53 0 0 0-.32 0 .24.24 0 0 1-.08.09zM123.75 84a.29.29 0 0 1 .14-.27v-.26l-.21.06-.72.21h-.07v.1l-.34.14h-.06V84a.78.78 0 0 1-.31 0 1.33 1.33 0 0 0-.46 0h-.15l.07.13.09.17h-.09v.1a.91.91 0 0 0 .13.31.84.84 0 0 0 .17.17l.16.12h.06l.41-.17h.06v-.15a.44.44 0 0 1 .2 0 .23.23 0 0 0 .14 0h.09v-.2a2 2 0 0 1 .64-.48zm-9.18 4.47l.18-.06.54-.19h.06v-.4l-.69.26v.09h-.1zm6.5-6.12c.09.37.15.46.47.49l.07.62v.1l.57-.1.08-.21h.06v.1h.11v.4l.49-.08v-.13h.11v-.31l.46-.33.13-.09v-.1c-.09-.35-.15-.45-.42-.48a.63.63 0 0 1 .19-.2 3 3 0 0 0-.24-1.08v-.07h-.17l-.62.19h-.07v.09h-.1l.06.51a.23.23 0 0 0 .11.06l-.05.25h-.07l-.15-.39-.59.21h-.06v.27l-.42.07zM167.36 190a.34.34 0 0 0-.09-.23l-.1-.1-.09.23H167l-.1.27-.08.12.06.05v.14h.26v-.1a.38.38 0 0 0 .1-.13v-.07a.24.24 0 0 1 .12-.18z" transform="translate(-1.36 -2.69)"/></g><g id="Bottom_Shape" data-name="Bottom Shape"><path id="Bottom_Shape-2" data-name="Bottom Shape" d="M208.89 173.85A87.16 87.16 0 0 1 50.3 126.37l-2.13-1c-12.17-5.84-22.53-12.32-30.71-19.29a121.27 121.27 0 0 0 230.23 68.33q2-4.44 3.68-9A180.46 180.46 0 0 1 229 171c-6.4 1.22-13.12 2.17-20.11 2.85z" transform="translate(-1.36 -2.69)" fill="url(#New_Gradient_Swatch_1-3)"/></g><g id="Shade" style="mix-blend-mode:overlay"><path d="M226.36 103.71a91.31 91.31 0 0 0-88.95-70.95 91.33 91.33 0 0 0-80.23 47.87L56.43 82 55 81.29a87.63 87.63 0 0 1-19.28-13l-.93-.87.63-1.11a117.17 117.17 0 0 1 211.8 16.79 118.93 118.93 0 0 1 3.71 11.81l.32 1.23-1.11.6a99.15 99.15 0 0 1-21.79 8.18l-1.61.42z" transform="translate(-1.36 -2.69)" fill="url(#New_Gradient_Swatch_3)" id="Shade_Upper_Bottom" data-name="Shade Upper Bottom"/><path d="M137.36 241.23A117.42 117.42 0 0 1 27.62 164.9a118.3 118.3 0 0 1-7.19-48.18l.18-2.89L23 115.5a159.92 159.92 0 0 0 22.5 13.1l.83.4.06 1a91.23 91.23 0 0 0 164.34 48.34l.42-.57.7-.08C218 177 224 176.11 229.73 175c3.9-.73 7.74-1.56 11.41-2.46l3.33-.82-1.47 3.13a117.49 117.49 0 0 1-105.64 66.38z" transform="translate(-1.36 -2.69)" fill="url(#New_Gradient_Swatch_3-2)" id="Shade_Bottom" data-name="Shade Bottom"/></g><g id="Shade_Swoosh" data-name="Shade Swoosh"><path id="Shade_Swoosh-2" data-name="Shade Swoosh" d="M149.34 129.56c-33.73-2.38-64.46-9.87-88.15-20.37-12.38-5.49-22.84-11.8-30.79-18.64C19.22 80.94 13 70.29 13.31 59.43c.28-9.27 5.31-17.71 14.05-25C11.67 43 2.16 54.15 1.41 67.07.74 78.49 7 89.88 18.47 100.34c8.17 7.43 19 14.39 31.86 20.54 24.62 11.77 56.75 20.57 92.18 24.09 29.36 2.92 56.89 1.79 80.09-2.53a158.13 158.13 0 0 0 35.89-10.76 119.67 119.67 0 0 0-.17-17.51 151.45 151.45 0 0 1-33 10.82c-21.93 4.73-48.03 6.54-75.98 4.57z" transform="translate(-1.36 -2.69)" style="mix-blend-mode:overlay" opacity=".2" fill="url(#New_Gradient_Swatch_3-3)"/></g></g><text transform="translate(288.71 234.77)" font-size="72" fill="#005495" font-family="James Fajardo">Tu envio al mejor precio</text></g></g></svg>