<?xml version="1.0" encoding="utf-8"?>
<!-- Generator: Adobe Illustrator 19.2.1, SVG Export Plug-In . SVG Version: 6.00 Build 0)  -->
<svg version="1.1" id="PPlogo" xmlns="http://www.w3.org/2000/svg" xmlns:xlink="http://www.w3.org/1999/xlink" x="0px" y="0px"
	 viewBox="0 0 361.6 92.1" style="enable-background:new 0 0 361.6 92.1;" xml:space="preserve">
<style type="text/css">
	.st0{fill:#179BD7;}
	.st1{fill:#253B80;}
	.st2{fill:#222D65;}
</style>
<path class="st0" d="M292.5,24.9c-2.8-3.3-7.9-5.1-14.6-5.1h-20c-1.4,0-2.5,1-2.7,2.3l-8.1,51.3c-0.2,1,0.6,1.9,1.6,1.9H259
	c1,0,1.8-0.7,1.9-1.6l2.3-14.5c0.2-1.4,1.4-2.3,2.7-2.3h6.3c13.2,0,20.8-6.4,22.8-19C296,32.2,295.1,27.9,292.5,24.9z M280.2,38.5
	c-1.1,7.2-6.6,7.2-11.9,7.2h-3l2.1-13.4c0.1-0.8,0.8-1.4,1.6-1.4h1.4c3.6,0,7,0,8.8,2.1C280.3,34.1,280.6,36,280.2,38.5z"/>
<path class="st0" d="M337.7,38.3h-9.6c-0.8,0-1.5,0.6-1.6,1.4l-0.4,2.7l-0.7-1c-2.1-3-6.7-4-11.3-4c-10.6,0-19.6,8-21.4,19.3
	c-0.9,5.6,0.4,11,3.6,14.7c2.9,3.4,7.1,4.9,12.1,4.9c8.5,0,13.3-5.5,13.3-5.5l-0.4,2.7c-0.2,1,0.6,1.9,1.6,1.9h8.6
	c1.4,0,2.5-1,2.7-2.4l5.2-32.8C339.5,39.2,338.8,38.3,337.7,38.3z M324.4,56.9c-0.9,5.5-5.3,9.1-10.8,9.1c-2.8,0-5-0.9-6.4-2.6
	c-1.4-1.7-1.9-4.1-1.5-6.7c0.9-5.4,5.3-9.2,10.7-9.2c2.7,0,4.9,0.9,6.4,2.6C324.2,51.8,324.8,54.3,324.4,56.9z"/>
<path class="st0" d="M359.9,19.7h-9.2c-0.8,0-1.5,0.6-1.6,1.4l-8.2,52.2c-0.2,1,0.6,1.9,1.6,1.9h8.3c1.4,0,2.5-1,2.7-2.3l8.1-51.3
	C361.7,20.7,360.9,19.7,359.9,19.7z"/>
<path class="st1" d="M149.8,24.9c-2.8-3.3-7.9-5.1-14.6-5.1h-20c-1.4,0-2.5,1-2.7,2.3l-8.1,51.3c-0.2,1,0.6,1.9,1.7,1.9h9.6
	c1.4,0,2.5-1,2.7-2.3l2.2-13.8c0.2-1.4,1.4-2.3,2.7-2.3h6.3c13.2,0,20.8-6.4,22.8-19C153.2,32.2,152.4,27.9,149.8,24.9z M137.5,38.5
	c-1.1,7.2-6.6,7.2-11.9,7.2h-3l2.1-13.4c0.1-0.8,0.8-1.4,1.6-1.4h1.4c3.6,0,7,0,8.8,2.1C137.6,34.1,137.9,36,137.5,38.5z"/>
<path class="st1" d="M195,38.3h-9.6c-0.8,0-1.5,0.6-1.6,1.4l-0.4,2.7l-0.7-1c-2.1-3-6.7-4-11.3-4c-10.6,0-19.6,8-21.4,19.3
	c-0.9,5.6,0.4,11,3.6,14.7c2.9,3.4,7.1,4.9,12.1,4.9c8.5,0,13.3-5.5,13.3-5.5l-0.4,2.7c-0.2,1,0.6,1.9,1.6,1.9h8.6
	c1.4,0,2.5-1,2.7-2.4l5.2-32.8C196.8,39.2,196,38.3,195,38.3z M181.7,56.9c-0.9,5.5-5.3,9.1-10.8,9.1c-2.8,0-5-0.9-6.4-2.6
	c-1.4-1.7-2-4.1-1.5-6.7c0.9-5.4,5.3-9.2,10.7-9.2c2.7,0,4.9,0.9,6.4,2.6C181.5,51.8,182.1,54.3,181.7,56.9z"/>
<path class="st1" d="M246,38.3h-9.6c-0.9,0-1.8,0.5-2.3,1.2L220.8,59l-5.6-18.8c-0.4-1.2-1.4-2-2.7-2h-9.5c-1.2,0-1.9,1.1-1.6,2.2
	l10.6,31.1l-10,14.1c-0.8,1.1,0,2.6,1.4,2.6h9.6c0.9,0,1.8-0.4,2.3-1.2l32-46.2C248.2,39.8,247.4,38.3,246,38.3z"/>
<path class="st0" d="M71.3,25.4c-1.1-1.2-2.4-2.2-3.9-3l0,0c-0.1,0.5-0.2,1.1-0.3,1.6c-0.1,0.5-0.2,1-0.3,1.5
	c-3.5,15.3-13.3,21.8-26,23.2c-0.8,0.1-1.7,0.2-2.6,0.2c-1,0.1-1.9,0.1-2.9,0.1h-8.1c-1.9,0-3.6,1.4-3.9,3.3l-3.7,23.2l-0.5,3
	l-1.2,7.4c-0.2,1.3,0.8,2.4,2,2.4h14.3c1.7,0,3.1-1.2,3.4-2.9l0.1-0.7l2.7-17.1l0.2-0.9c0.3-1.7,1.7-2.9,3.4-2.9h2.1
	c13.8,0,24.7-5.6,27.8-21.9C75.5,35.1,74.8,29.4,71.3,25.4z"/>
<path class="st1" d="M23.4,52.4l0.1-0.8l4.6-29c0.2-1.1,0.9-2.1,1.9-2.6c0.5-0.2,1-0.3,1.5-0.3H53c2.5,0,4.9,0.2,7.1,0.5
	c0.6,0.1,1.2,0.2,1.8,0.3c0.6,0.1,1.2,0.3,1.7,0.4c0.2,0.1,0.4,0.1,0.6,0.2c0.1,0,0.1,0,0.2,0.1c0,0,0.1,0,0.1,0
	c1,0.3,2,0.7,2.9,1.2c0,0,0,0,0,0c1.1-6.9,0-11.5-3.7-15.8C59.6,2,52.2,0,42.8,0H15.3c-1.9,0-3.6,1.4-3.9,3.3L0,75.8
	c-0.2,1.4,0.9,2.7,2.3,2.7h16.9l0.5-3L23.4,52.4z"/>
<path class="st2" d="M67.4,22.4c-0.9-0.5-1.8-0.9-2.9-1.2c0,0-0.1,0-0.1,0c-0.1,0-0.1,0-0.2-0.1c-0.2-0.1-0.4-0.1-0.6-0.2
	c-0.6-0.2-1.1-0.3-1.7-0.4c-0.6-0.1-1.2-0.2-1.8-0.3c-2.2-0.4-4.5-0.5-7.1-0.5H31.5c-0.5,0-1,0.1-1.5,0.3c-1,0.5-1.7,1.4-1.9,2.6
	l-4.6,29l-0.1,0.8c0.3-1.9,1.9-3.3,3.9-3.3h8.1c1,0,2,0,2.9-0.1c0.9,0,1.7-0.1,2.6-0.2c12.7-1.4,22.5-7.9,26-23.2
	c0.1-0.5,0.2-1,0.3-1.5C67.3,23.5,67.4,23,67.4,22.4C67.4,22.4,67.4,22.4,67.4,22.4z"/>
</svg>
